<ttFont>
<head>
    <!-- Most of this table will be recalculated by the compiler -->
    <tableVersion value="1.0"/>
    <fontRevision value="0.07599"/>
    <checkSumAdjustment value="0xeae2c596"/>
    <magicNumber value="0x5f0f3cf5"/>
    <flags value="00100000 00001111"/>
    <unitsPerEm value="1024"/>
    <created value="Tue Sep 26 16:34:39 2023"/>
    <modified value="Tue Sep 26 16:35:31 2023"/>
    <xMin value="-192"/>
    <yMin value="-202"/>
    <xMax value="799"/>
    <yMax value="966"/>
    <macStyle value="00000000 00000000"/>
    <lowestRecPPEM value="7"/>
    <fontDirectionHint value="2"/>
    <indexToLocFormat value="0"/>
    <glyphDataFormat value="0"/>
  </head>
    <TTGlyph name=".notdef" xMin="34" yMin="-30" xMax="414" yMax="670">
      <contour>
        <pt x="34" y="670" on="1"/>
        <pt x="414" y="670" on="1"/>
        <pt x="414" y="-30" on="1"/>
        <pt x="34" y="-30" on="1"/>
      </contour>
      <contour>
        <pt x="256" y="-10" on="0"/>
        <pt x="298" y="26" on="0"/>
        <pt x="298" y="59" on="1"/>
        <pt x="298" y="91" on="0"/>
        <pt x="256" y="128" on="0"/>
        <pt x="224" y="128" on="1"/>
        <pt x="193" y="128" on="0"/>
        <pt x="150" y="91" on="0"/>
        <pt x="150" y="59" on="1"/>
        <pt x="150" y="27" on="0"/>
        <pt x="192" y="-10" on="0"/>
        <pt x="224" y="-10" on="1"/>
      </contour>
      <contour>
        <pt x="265" y="252" on="0"/>
        <pt x="301" y="324" on="0"/>
        <pt x="335" y="363" on="1"/>
        <pt x="364" y="396" on="0"/>
        <pt x="393" y="449" on="0"/>
        <pt x="393" y="490" on="1"/>
        <pt x="393" y="565" on="0"/>
        <pt x="257" y="643" on="0"/>
        <pt x="91" y="645" on="1"/>
        <pt x="87" y="573" on="1"/>
        <pt x="179" y="568" on="0"/>
        <pt x="272" y="541" on="0"/>
        <pt x="299" y="507" on="0"/>
        <pt x="299" y="485" on="1"/>
        <pt x="299" y="461" on="0"/>
        <pt x="278" y="426" on="0"/>
        <pt x="255" y="400" on="1"/>
        <pt x="230" y="372" on="0"/>
        <pt x="198" y="325" on="0"/>
        <pt x="175" y="249" on="0"/>
        <pt x="176" y="195" on="1"/>
        <pt x="264" y="192" on="1"/>
      </contour>
    </TTGlyph>
    <TTGlyph name="A" xMin="30" yMin="0" xMax="418" yMax="642">
      <contour>
        <pt x="45" y="187" on="0"/>
        <pt x="123" y="520" on="0"/>
        <pt x="182" y="642" on="1"/>
        <pt x="266" y="642" on="1"/>
        <pt x="326" y="520" on="0"/>
        <pt x="403" y="187" on="0"/>
        <pt x="418" y="0" on="1"/>
        <pt x="323" y="0" on="1"/>
        <pt x="315" y="101" on="0"/>
        <pt x="304" y="176" on="1"/>
        <pt x="144" y="176" on="1"/>
        <pt x="131" y="70" on="0"/>
        <pt x="125" y="0" on="1"/>
        <pt x="30" y="0" on="1"/>
      </contour>
      <contour>
        <pt x="294" y="248" on="1"/>
        <pt x="265" y="420" on="0"/>
        <pt x="224" y="536" on="1"/>
        <pt x="181" y="409" on="0"/>
        <pt x="155" y="248" on="1"/>
      </contour>
    </TTGlyph>
    <TTGlyph name="A.hex" xMin="30" yMin="0" xMax="418" yMax="578">
      <contour>
        <pt x="45" y="169" on="0"/>
        <pt x="123" y="468" on="0"/>
        <pt x="182" y="578" on="1"/>
        <pt x="266" y="578" on="1"/>
        <pt x="326" y="468" on="0"/>
        <pt x="403" y="168" on="0"/>
        <pt x="418" y="0" on="1"/>
        <pt x="323" y="0" on="1"/>
        <pt x="319" y="47" on="0"/>
        <pt x="309" y="124" on="1"/>
        <pt x="139" y="124" on="1"/>
        <pt x="129" y="47" on="0"/>
        <pt x="125" y="0" on="1"/>
        <pt x="30" y="0" on="1"/>
      </contour>
      <contour>
        <pt x="298" y="196" on="1"/>
        <pt x="269" y="361" on="0"/>
        <pt x="224" y="477" on="1"/>
        <pt x="181" y="365" on="0"/>
        <pt x="151" y="196" on="1"/>
      </contour>
    </TTGlyph>
    <TTGlyph name="A.short" xMin="30" yMin="0" xMax="418" yMax="578">
      <component glyphName="A.hex" x="0" y="0" flags="0x400"/>
    </TTGlyph>
    <TTGlyph name="A.sups" xMin="110" yMin="320" xMax="338" yMax="643">
      <contour>
        <pt x="122" y="501" on="0"/>
        <pt x="192" y="643" on="1"/>
        <pt x="256" y="643" on="1"/>
        <pt x="326" y="506" on="0"/>
        <pt x="338" y="320" on="1"/>
        <pt x="273" y="320" on="1"/>
        <pt x="271" y="360" on="0"/>
        <pt x="267" y="394" on="1"/>
        <pt x="181" y="394" on="1"/>
        <pt x="178" y="370" on="0"/>
        <pt x="174" y="320" on="1"/>
        <pt x="110" y="320" on="1"/>
      </contour>
      <contour>
        <pt x="259" y="448" on="1"/>
        <pt x="248" y="510" on="0"/>
        <pt x="224" y="577" on="1"/>
        <pt x="204" y="524" on="0"/>
        <pt x="190" y="448" on="1"/>
      </contour>
    </TTGlyph>
    <TTGlyph name="AE" xMin="-23" yMin="0" xMax="463" yMax="640">
      <contour>
        <pt x="463" y="72" on="1"/>
        <pt x="463" y="0" on="1"/>
        <pt x="193" y="0" on="1"/>
        <pt x="193" y="176" on="1"/>
        <pt x="90" y="176" on="1"/>
        <pt x="79" y="101" on="0"/>
        <pt x="71" y="0" on="1"/>
        <pt x="-23" y="0" on="1"/>
        <pt x="-8" y="186" on="0"/>
        <pt x="64" y="518" on="0"/>
        <pt x="118" y="640" on="1"/>
        <pt x="453" y="640" on="1"/>
        <pt x="453" y="568" on="1"/>
        <pt x="285" y="568" on="1"/>
        <pt x="285" y="324" on="1"/>
        <pt x="402" y="324" on="1"/>
        <pt x="402" y="252" on="1"/>
        <pt x="285" y="252" on="1"/>
        <pt x="285" y="72" on="1"/>
      </contour>
      <contour>
        <pt x="193" y="248" on="1"/>
        <pt x="193" y="568" on="1"/>
        <pt x="176" y="568" on="1"/>
        <pt x="129" y="432" on="0"/>
        <pt x="100" y="248" on="1"/>
      </contour>
    </TTGlyph>
    <TTGlyph name="AEacute" xMin="-23" yMin="0" xMax="463" yMax="844">
      <component glyphName="AE" x="0" y="0" flags="0x400"/>
      <component glyphName="acutecomb.case" x="48" y="0" flags="0x0"/>
    </TTGlyph>
    <TTGlyph name="Aacute" xMin="30" yMin="0" xMax="418" yMax="844">
      <component glyphName="A" x="0" y="0" flags="0x400"/>
      <component glyphName="acutecomb.case" x="0" y="0" flags="0x0"/>
    </TTGlyph>
    <TTGlyph name="Abreve" xMin="30" yMin="0" xMax="418" yMax="841">
      <component glyphName="A" x="0" y="0" flags="0x400"/>
      <component glyphName="uni0306.case" x="0" y="0" flags="0x0"/>
    </TTGlyph>
    <TTGlyph name="Acircumflex" xMin="30" yMin="0" xMax="418" yMax="842">
      <component glyphName="A" x="0" y="0" flags="0x400"/>
      <component glyphName="uni0302.case" x="0" y="0" flags="0x0"/>
    </TTGlyph>
    <TTGlyph name="Adieresis" xMin="30" yMin="0" xMax="418" yMax="823">
      <component glyphName="A" x="0" y="0" flags="0x400"/>
      <component glyphName="uni0308.case" x="0" y="0" flags="0x0"/>
    </TTGlyph>
    <TTGlyph name="Agrave" xMin="30" yMin="0" xMax="418" yMax="844">
      <component glyphName="A" x="0" y="0" flags="0x400"/>
      <component glyphName="gravecomb.case" x="0" y="0" flags="0x0"/>
    </TTGlyph>
    <TTGlyph name="Alpha" xMin="30" yMin="0" xMax="418" yMax="642">
      <component glyphName="A" x="0" y="0" flags="0x400"/>
    </TTGlyph>
    <TTGlyph name="Alphatonos" xMin="-12" yMin="0" xMax="418" yMax="704">
      <component glyphName="A" x="0" y="0" flags="0x400"/>
      <component glyphName="tonos" x="-192" y="0" flags="0x0"/>
    </TTGlyph>
    <TTGlyph name="Amacron" xMin="30" yMin="0" xMax="418" yMax="773">
      <component glyphName="A" x="0" y="0" flags="0x400"/>
      <component glyphName="uni0304.case" x="0" y="0" flags="0x0"/>
    </TTGlyph>
    <TTGlyph name="Aogonek" xMin="30" yMin="-197" xMax="437" yMax="642">
      <component glyphName="A" x="0" y="0" flags="0x400"/>
      <component glyphName="uni0328" x="29" y="0" flags="0x0"/>
    </TTGlyph>
    <TTGlyph name="Aring" xMin="30" yMin="0" xMax="418" yMax="830">
      <component glyphName="A.short" x="0" y="0" flags="0x400"/>
      <component glyphName="uni030A.case" x="0" y="0" flags="0x0"/>
    </TTGlyph>
    <TTGlyph name="Aringacute" xMin="30" yMin="0" xMax="418" yMax="832">
      <component glyphName="A.short" x="0" y="0" flags="0x400"/>
      <component glyphName="uni030A.case" x="0" y="-97" flags="0x4"/>
      <component glyphName="acutecomb.case" x="0" y="-12" flags="0x4"/>
    </TTGlyph>
    <TTGlyph name="Atilde" xMin="30" yMin="0" xMax="418" yMax="840">
      <component glyphName="A" x="0" y="0" flags="0x400"/>
      <component glyphName="tildecomb.case" x="0" y="0" flags="0x0"/>
    </TTGlyph>
    <TTGlyph name="B" xMin="55" yMin="0" xMax="416" yMax="640">
      <contour>
        <pt x="55" y="640" on="1"/>
        <pt x="194" y="640" on="1"/>
        <pt x="290" y="640" on="0"/>
        <pt x="395" y="557" on="0"/>
        <pt x="395" y="476" on="1"/>
        <pt x="395" y="386" on="0"/>
        <pt x="313" y="314" on="1"/>
        <pt x="361" y="299" on="0"/>
        <pt x="416" y="225" on="0"/>
        <pt x="416" y="170" on="1"/>
        <pt x="416" y="89" on="0"/>
        <pt x="307" y="0" on="0"/>
        <pt x="214" y="0" on="1"/>
        <pt x="55" y="0" on="1"/>
      </contour>
      <contour>
        <pt x="265" y="72" on="0"/>
        <pt x="320" y="121" on="0"/>
        <pt x="320" y="172" on="1"/>
        <pt x="320" y="219" on="0"/>
        <pt x="263" y="268" on="0"/>
        <pt x="197" y="268" on="1"/>
        <pt x="147" y="268" on="1"/>
        <pt x="147" y="72" on="1"/>
        <pt x="197" y="72" on="1"/>
      </contour>
      <contour>
        <pt x="237" y="340" on="1"/>
        <pt x="266" y="364" on="0"/>
        <pt x="297" y="434" on="0"/>
        <pt x="297" y="471" on="1"/>
        <pt x="297" y="520" on="0"/>
        <pt x="244" y="568" on="0"/>
        <pt x="180" y="568" on="1"/>
        <pt x="147" y="568" on="1"/>
        <pt x="147" y="340" on="1"/>
      </contour>
    </TTGlyph>
    <TTGlyph name="B.hex" xMin="55" yMin="0" xMax="416" yMax="576">
      <contour>
        <pt x="55" y="576" on="1"/>
        <pt x="194" y="576" on="1"/>
        <pt x="290" y="576" on="0"/>
        <pt x="395" y="501" on="0"/>
        <pt x="395" y="428" on="1"/>
        <pt x="395" y="349" on="0"/>
        <pt x="316" y="281" on="1"/>
        <pt x="363" y="266" on="0"/>
        <pt x="416" y="203" on="0"/>
        <pt x="416" y="154" on="1"/>
        <pt x="416" y="80" on="0"/>
        <pt x="307" y="0" on="0"/>
        <pt x="214" y="0" on="1"/>
        <pt x="55" y="0" on="1"/>
      </contour>
      <contour>
        <pt x="264" y="72" on="0"/>
        <pt x="320" y="113" on="0"/>
        <pt x="320" y="156" on="1"/>
        <pt x="320" y="195" on="0"/>
        <pt x="263" y="236" on="0"/>
        <pt x="197" y="236" on="1"/>
        <pt x="147" y="236" on="1"/>
        <pt x="147" y="72" on="1"/>
        <pt x="197" y="72" on="1"/>
      </contour>
      <contour>
        <pt x="238" y="308" on="1"/>
        <pt x="266" y="329" on="0"/>
        <pt x="297" y="391" on="0"/>
        <pt x="297" y="423" on="1"/>
        <pt x="297" y="464" on="0"/>
        <pt x="244" y="504" on="0"/>
        <pt x="180" y="504" on="1"/>
        <pt x="147" y="504" on="1"/>
        <pt x="147" y="308" on="1"/>
      </contour>
    </TTGlyph>
    <TTGlyph name="B.sups" xMin="118" yMin="320" xMax="334" yMax="640">
      <contour>
        <pt x="118" y="640" on="1"/>
        <pt x="214" y="640" on="1"/>
        <pt x="265" y="640" on="0"/>
        <pt x="323" y="595" on="0"/>
        <pt x="323" y="558" on="1"/>
        <pt x="323" y="517" on="0"/>
        <pt x="286" y="481" on="1"/>
        <pt x="308" y="471" on="0"/>
        <pt x="334" y="434" on="0"/>
        <pt x="334" y="410" on="1"/>
        <pt x="334" y="371" on="0"/>
        <pt x="275" y="320" on="0"/>
        <pt x="224" y="320" on="1"/>
        <pt x="118" y="320" on="1"/>
      </contour>
      <contour>
        <pt x="267" y="372" on="0"/>
        <pt x="267" y="410" on="1"/>
        <pt x="267" y="426" on="0"/>
        <pt x="244" y="446" on="0"/>
        <pt x="219" y="446" on="1"/>
        <pt x="182" y="446" on="1"/>
        <pt x="182" y="372" on="1"/>
        <pt x="219" y="372" on="1"/>
      </contour>
      <contour>
        <pt x="235" y="498" on="1"/>
        <pt x="256" y="521" on="0"/>
        <pt x="256" y="548" on="1"/>
        <pt x="256" y="568" on="0"/>
        <pt x="235" y="588" on="0"/>
        <pt x="210" y="588" on="1"/>
        <pt x="182" y="588" on="1"/>
        <pt x="182" y="498" on="1"/>
      </contour>
    </TTGlyph>
    <TTGlyph name="Beta" xMin="55" yMin="0" xMax="416" yMax="640">
      <component glyphName="B" x="0" y="0" flags="0x400"/>
    </TTGlyph>
    <TTGlyph name="C" xMin="55" yMin="-9" xMax="389" yMax="647">
      <contour>
        <pt x="194" y="-9" on="0"/>
        <pt x="99" y="55" on="0"/>
        <pt x="55" y="197" on="0"/>
        <pt x="55" y="319" on="1"/>
        <pt x="55" y="441" on="0"/>
        <pt x="99" y="583" on="0"/>
        <pt x="194" y="647" on="0"/>
        <pt x="276" y="647" on="1"/>
        <pt x="334" y="647" on="0"/>
        <pt x="383" y="634" on="1"/>
        <pt x="369" y="566" on="1"/>
        <pt x="329" y="575" on="0"/>
        <pt x="289" y="575" on="1"/>
        <pt x="228" y="575" on="0"/>
        <pt x="170" y="525" on="0"/>
        <pt x="153" y="421" on="0"/>
        <pt x="153" y="319" on="1"/>
        <pt x="153" y="217" on="0"/>
        <pt x="170" y="114" on="0"/>
        <pt x="228" y="63" on="0"/>
        <pt x="289" y="63" on="1"/>
        <pt x="332" y="63" on="0"/>
        <pt x="375" y="74" on="1"/>
        <pt x="389" y="7" on="1"/>
        <pt x="335" y="-9" on="0"/>
        <pt x="276" y="-9" on="1"/>
      </contour>
    </TTGlyph>
    <TTGlyph name="C.hex" xMin="55" yMin="-9" xMax="389" yMax="583">
      <contour>
        <pt x="194" y="-9" on="0"/>
        <pt x="99" y="49" on="0"/>
        <pt x="55" y="177" on="0"/>
        <pt x="55" y="287" on="1"/>
        <pt x="55" y="397" on="0"/>
        <pt x="99" y="525" on="0"/>
        <pt x="194" y="583" on="0"/>
        <pt x="276" y="583" on="1"/>
        <pt x="334" y="583" on="0"/>
        <pt x="383" y="570" on="1"/>
        <pt x="369" y="502" on="1"/>
        <pt x="329" y="511" on="0"/>
        <pt x="289" y="511" on="1"/>
        <pt x="228" y="511" on="0"/>
        <pt x="170" y="467" on="0"/>
        <pt x="153" y="377" on="0"/>
        <pt x="153" y="287" on="1"/>
        <pt x="153" y="198" on="0"/>
        <pt x="170" y="107" on="0"/>
        <pt x="228" y="63" on="0"/>
        <pt x="289" y="63" on="1"/>
        <pt x="332" y="63" on="0"/>
        <pt x="375" y="74" on="1"/>
        <pt x="389" y="7" on="1"/>
        <pt x="335" y="-9" on="0"/>
        <pt x="276" y="-9" on="1"/>
      </contour>
    </TTGlyph>
    <TTGlyph name="C.sups" xMin="126" yMin="316" xMax="326" yMax="644">
      <contour>
        <pt x="281" y="372" on="0"/>
        <pt x="316" y="379" on="1"/>
        <pt x="326" y="326" on="1"/>
        <pt x="291" y="316" on="0"/>
        <pt x="252" y="316" on="1"/>
        <pt x="192" y="316" on="0"/>
        <pt x="126" y="401" on="0"/>
        <pt x="126" y="480" on="1"/>
        <pt x="126" y="559" on="0"/>
        <pt x="192" y="644" on="0"/>
        <pt x="252" y="644" on="1"/>
        <pt x="291" y="644" on="0"/>
        <pt x="326" y="634" on="1"/>
        <pt x="316" y="581" on="1"/>
        <pt x="281" y="588" on="0"/>
        <pt x="256" y="588" on="1"/>
        <pt x="224" y="588" on="0"/>
        <pt x="194" y="545" on="0"/>
        <pt x="194" y="480" on="1"/>
        <pt x="194" y="421" on="0"/>
        <pt x="228" y="372" on="0"/>
        <pt x="260" y="372" on="1"/>
      </contour>
    </TTGlyph>
    <TTGlyph name="Cacute" xMin="55" yMin="-9" xMax="390" yMax="844">
      <component glyphName="C" x="0" y="0" flags="0x400"/>
      <component glyphName="acutecomb.case" x="32" y="0" flags="0x0"/>
    </TTGlyph>
    <TTGlyph name="Ccaron" xMin="55" yMin="-9" xMax="405" yMax="842">
      <component glyphName="C" x="0" y="0" flags="0x400"/>
      <component glyphName="uni030C.case" x="32" y="0" flags="0x0"/>
    </TTGlyph>
    <TTGlyph name="Ccedilla" xMin="55" yMin="-192" xMax="389" yMax="647">
      <component glyphName="C" x="0" y="0" flags="0x400"/>
      <component glyphName="uni0327" x="0" y="0" flags="0x0"/>
    </TTGlyph>
    <TTGlyph name="Ccircumflex" xMin="55" yMin="-9" xMax="405" yMax="842">
      <component glyphName="C" x="0" y="0" flags="0x400"/>
      <component glyphName="uni0302.case" x="32" y="0" flags="0x0"/>
    </TTGlyph>
    <TTGlyph name="Cdotaccent" xMin="55" yMin="-9" xMax="389" yMax="822">
      <component glyphName="C" x="0" y="0" flags="0x400"/>
      <component glyphName="uni0307.case" x="32" y="0" flags="0x0"/>
    </TTGlyph>
    <TTGlyph name="Chi" xMin="42" yMin="0" xMax="405" yMax="640">
      <component glyphName="X" x="0" y="0" flags="0x400"/>
    </TTGlyph>
    <TTGlyph name="D" xMin="55" yMin="0" xMax="399" yMax="640">
      <contour>
        <pt x="260" y="640" on="0"/>
        <pt x="355" y="574" on="0"/>
        <pt x="399" y="433" on="0"/>
        <pt x="399" y="317" on="1"/>
        <pt x="399" y="201" on="0"/>
        <pt x="355" y="63" on="0"/>
        <pt x="261" y="0" on="0"/>
        <pt x="182" y="0" on="1"/>
        <pt x="55" y="0" on="1"/>
        <pt x="55" y="640" on="1"/>
        <pt x="181" y="640" on="1"/>
      </contour>
      <contour>
        <pt x="231" y="72" on="0"/>
        <pt x="284" y="122" on="0"/>
        <pt x="301" y="222" on="0"/>
        <pt x="301" y="317" on="1"/>
        <pt x="301" y="415" on="0"/>
        <pt x="284" y="518" on="0"/>
        <pt x="230" y="568" on="0"/>
        <pt x="175" y="568" on="1"/>
        <pt x="147" y="568" on="1"/>
        <pt x="147" y="72" on="1"/>
        <pt x="175" y="72" on="1"/>
      </contour>
    </TTGlyph>
    <TTGlyph name="D.hex" xMin="55" yMin="0" xMax="399" yMax="576">
      <contour>
        <pt x="260" y="576" on="0"/>
        <pt x="355" y="517" on="0"/>
        <pt x="399" y="389" on="0"/>
        <pt x="399" y="285" on="1"/>
        <pt x="399" y="180" on="0"/>
        <pt x="355" y="56" on="0"/>
        <pt x="261" y="0" on="0"/>
        <pt x="182" y="0" on="1"/>
        <pt x="55" y="0" on="1"/>
        <pt x="55" y="576" on="1"/>
        <pt x="181" y="576" on="1"/>
      </contour>
      <contour>
        <pt x="231" y="72" on="0"/>
        <pt x="284" y="115" on="0"/>
        <pt x="301" y="202" on="0"/>
        <pt x="301" y="285" on="1"/>
        <pt x="301" y="370" on="0"/>
        <pt x="284" y="460" on="0"/>
        <pt x="230" y="504" on="0"/>
        <pt x="175" y="504" on="1"/>
        <pt x="147" y="504" on="1"/>
        <pt x="147" y="72" on="1"/>
        <pt x="175" y="72" on="1"/>
      </contour>
    </TTGlyph>
    <TTGlyph name="D.sups" xMin="115" yMin="320" xMax="338" yMax="640">
      <contour>
        <pt x="115" y="640" on="1"/>
        <pt x="209" y="640" on="1"/>
        <pt x="276" y="640" on="0"/>
        <pt x="338" y="563" on="0"/>
        <pt x="338" y="478" on="1"/>
        <pt x="338" y="394" on="0"/>
        <pt x="275" y="320" on="0"/>
        <pt x="210" y="320" on="1"/>
        <pt x="115" y="320" on="1"/>
      </contour>
      <contour>
        <pt x="232" y="374" on="0"/>
        <pt x="259" y="393" on="0"/>
        <pt x="270" y="437" on="0"/>
        <pt x="270" y="478" on="1"/>
        <pt x="270" y="521" on="0"/>
        <pt x="260" y="566" on="0"/>
        <pt x="233" y="586" on="0"/>
        <pt x="206" y="586" on="1"/>
        <pt x="179" y="586" on="1"/>
        <pt x="179" y="374" on="1"/>
        <pt x="206" y="374" on="1"/>
      </contour>
    </TTGlyph>
    <TTGlyph name="Dcaron" xMin="55" yMin="0" xMax="399" yMax="842">
      <component glyphName="D" x="0" y="0" flags="0x400"/>
      <component glyphName="uni030C.case" x="-12" y="0" flags="0x0"/>
    </TTGlyph>
    <TTGlyph name="Dcroat" xMin="0" yMin="0" xMax="399" yMax="640">
      <component glyphName="Eth" x="0" y="0" flags="0x400"/>
    </TTGlyph>
    <TTGlyph name="E" xMin="55" yMin="0" xMax="394" yMax="640">
      <contour>
        <pt x="55" y="640" on="1"/>
        <pt x="384" y="640" on="1"/>
        <pt x="384" y="568" on="1"/>
        <pt x="147" y="568" on="1"/>
        <pt x="147" y="324" on="1"/>
        <pt x="330" y="324" on="1"/>
        <pt x="330" y="252" on="1"/>
        <pt x="147" y="252" on="1"/>
        <pt x="147" y="72" on="1"/>
        <pt x="394" y="72" on="1"/>
        <pt x="394" y="0" on="1"/>
        <pt x="55" y="0" on="1"/>
      </contour>
    </TTGlyph>
    <TTGlyph name="E.hex" xMin="55" yMin="0" xMax="394" yMax="576">
      <contour>
        <pt x="55" y="576" on="1"/>
        <pt x="384" y="576" on="1"/>
        <pt x="384" y="504" on="1"/>
        <pt x="147" y="504" on="1"/>
        <pt x="147" y="308" on="1"/>
        <pt x="330" y="308" on="1"/>
        <pt x="330" y="236" on="1"/>
        <pt x="147" y="236" on="1"/>
        <pt x="147" y="72" on="1"/>
        <pt x="394" y="72" on="1"/>
        <pt x="394" y="0" on="1"/>
        <pt x="55" y="0" on="1"/>
      </contour>
    </TTGlyph>
    <TTGlyph name="E.short" xMin="55" yMin="0" xMax="394" yMax="576">
      <component glyphName="E.hex" x="0" y="0" flags="0x400"/>
    </TTGlyph>
    <TTGlyph name="E.sups" xMin="128" yMin="320" xMax="318" yMax="640">
      <contour>
        <pt x="128" y="640" on="1"/>
        <pt x="314" y="640" on="1"/>
        <pt x="314" y="585" on="1"/>
        <pt x="192" y="585" on="1"/>
        <pt x="192" y="509" on="1"/>
        <pt x="302" y="509" on="1"/>
        <pt x="302" y="454" on="1"/>
        <pt x="192" y="454" on="1"/>
        <pt x="192" y="375" on="1"/>
        <pt x="318" y="375" on="1"/>
        <pt x="318" y="320" on="1"/>
        <pt x="128" y="320" on="1"/>
      </contour>
    </TTGlyph>
    <TTGlyph name="Eacute" xMin="55" yMin="0" xMax="394" yMax="844">
      <component glyphName="E" x="0" y="0" flags="0x400"/>
      <component glyphName="acutecomb.case" x="-4" y="0" flags="0x0"/>
    </TTGlyph>
    <TTGlyph name="Ebreve" xMin="55" yMin="0" xMax="394" yMax="841">
      <component glyphName="E" x="0" y="0" flags="0x400"/>
      <component glyphName="uni0306.case" x="-4" y="0" flags="0x0"/>
    </TTGlyph>
    <TTGlyph name="Ecaron" xMin="55" yMin="0" xMax="394" yMax="842">
      <component glyphName="E" x="0" y="0" flags="0x400"/>
      <component glyphName="uni030C.case" x="-4" y="0" flags="0x0"/>
    </TTGlyph>
    <TTGlyph name="Ecircumflex" xMin="55" yMin="0" xMax="394" yMax="842">
      <component glyphName="E" x="0" y="0" flags="0x400"/>
      <component glyphName="uni0302.case" x="-4" y="0" flags="0x0"/>
    </TTGlyph>
    <TTGlyph name="Edieresis" xMin="55" yMin="0" xMax="394" yMax="823">
      <component glyphName="E" x="0" y="0" flags="0x400"/>
      <component glyphName="uni0308.case" x="-4" y="0" flags="0x0"/>
    </TTGlyph>
    <TTGlyph name="Edotaccent" xMin="55" yMin="0" xMax="394" yMax="822">
      <component glyphName="E" x="0" y="0" flags="0x400"/>
      <component glyphName="uni0307.case" x="-4" y="0" flags="0x0"/>
    </TTGlyph>
    <TTGlyph name="Egrave" xMin="55" yMin="0" xMax="394" yMax="844">
      <component glyphName="E" x="0" y="0" flags="0x400"/>
      <component glyphName="gravecomb.case" x="-4" y="0" flags="0x0"/>
    </TTGlyph>
    <TTGlyph name="Emacron" xMin="55" yMin="0" xMax="394" yMax="773">
      <component glyphName="E" x="0" y="0" flags="0x400"/>
      <component glyphName="uni0304.case" x="-4" y="0" flags="0x0"/>
    </TTGlyph>
    <TTGlyph name="Eng" xMin="53" yMin="-14" xMax="393" yMax="644">
      <contour>
        <pt x="55" y="576" on="1"/>
        <pt x="53" y="640" on="1"/>
        <pt x="137" y="640" on="1"/>
        <pt x="142" y="592" on="1"/>
        <pt x="201" y="644" on="0"/>
        <pt x="266" y="644" on="1"/>
        <pt x="325" y="644" on="0"/>
        <pt x="393" y="574" on="0"/>
        <pt x="393" y="501" on="1"/>
        <pt x="393" y="177" on="1"/>
        <pt x="393" y="103" on="0"/>
        <pt x="336" y="13" on="0"/>
        <pt x="267" y="-14" on="1"/>
        <pt x="234" y="56" on="1"/>
        <pt x="273" y="73" on="0"/>
        <pt x="301" y="121" on="0"/>
        <pt x="301" y="169" on="1"/>
        <pt x="301" y="496" on="1"/>
        <pt x="301" y="570" on="0"/>
        <pt x="240" y="570" on="1"/>
        <pt x="196" y="570" on="0"/>
        <pt x="147" y="524" on="1"/>
        <pt x="147" y="0" on="1"/>
        <pt x="55" y="0" on="1"/>
      </contour>
    </TTGlyph>
    <TTGlyph name="Eng.loclNSM" xMin="55" yMin="-196" xMax="393" yMax="640">
      <contour>
        <pt x="393" y="-81" on="0"/>
        <pt x="335" y="-170" on="0"/>
        <pt x="267" y="-196" on="1"/>
        <pt x="234" y="-126" on="1"/>
        <pt x="276" y="-108" on="0"/>
        <pt x="306" y="-61" on="0"/>
        <pt x="306" y="-13" on="1"/>
        <pt x="306" y="3" on="1"/>
        <pt x="168" y="376" on="1"/>
        <pt x="138" y="500" on="1"/>
        <pt x="142" y="0" on="1"/>
        <pt x="55" y="0" on="1"/>
        <pt x="55" y="640" on="1"/>
        <pt x="152" y="640" on="1"/>
        <pt x="290" y="267" on="1"/>
        <pt x="310" y="183" on="1"/>
        <pt x="306" y="640" on="1"/>
        <pt x="393" y="640" on="1"/>
        <pt x="393" y="-5" on="1"/>
      </contour>
    </TTGlyph>
    <TTGlyph name="Eogonek" xMin="55" yMin="-197" xMax="413" yMax="640">
      <component glyphName="E" x="0" y="0" flags="0x400"/>
      <component glyphName="uni0328" x="5" y="0" flags="0x0"/>
    </TTGlyph>
    <TTGlyph name="Epsilon" xMin="55" yMin="0" xMax="394" yMax="640">
      <component glyphName="E" x="0" y="0" flags="0x400"/>
    </TTGlyph>
    <TTGlyph name="Epsilontonos" xMin="-76" yMin="0" xMax="394" yMax="704">
      <component glyphName="E" x="0" y="0" flags="0x400"/>
      <component glyphName="tonos" x="-256" y="0" flags="0x0"/>
    </TTGlyph>
    <TTGlyph name="Eta" xMin="55" yMin="0" xMax="393" yMax="640">
      <component glyphName="H" x="0" y="0" flags="0x400"/>
    </TTGlyph>
    <TTGlyph name="Etatonos" xMin="-76" yMin="0" xMax="393" yMax="704">
      <component glyphName="H" x="0" y="0" flags="0x400"/>
      <component glyphName="tonos" x="-256" y="0" flags="0x0"/>
    </TTGlyph>
    <TTGlyph name="Eth" xMin="0" yMin="0" xMax="399" yMax="640">
      <contour>
        <pt x="55" y="324" on="1"/>
        <pt x="55" y="640" on="1"/>
        <pt x="181" y="640" on="1"/>
        <pt x="260" y="640" on="0"/>
        <pt x="355" y="574" on="0"/>
        <pt x="399" y="433" on="0"/>
        <pt x="399" y="317" on="1"/>
        <pt x="399" y="201" on="0"/>
        <pt x="355" y="63" on="0"/>
        <pt x="261" y="0" on="0"/>
        <pt x="182" y="0" on="1"/>
        <pt x="55" y="0" on="1"/>
        <pt x="55" y="252" on="1"/>
        <pt x="0" y="252" on="1"/>
        <pt x="0" y="324" on="1"/>
      </contour>
      <contour>
        <pt x="231" y="72" on="0"/>
        <pt x="284" y="122" on="0"/>
        <pt x="301" y="222" on="0"/>
        <pt x="301" y="317" on="1"/>
        <pt x="301" y="415" on="0"/>
        <pt x="284" y="518" on="0"/>
        <pt x="230" y="568" on="0"/>
        <pt x="175" y="568" on="1"/>
        <pt x="147" y="568" on="1"/>
        <pt x="147" y="324" on="1"/>
        <pt x="241" y="324" on="1"/>
        <pt x="241" y="252" on="1"/>
        <pt x="147" y="252" on="1"/>
        <pt x="147" y="72" on="1"/>
        <pt x="175" y="72" on="1"/>
      </contour>
    </TTGlyph>
    <TTGlyph name="Euro" xMin="59" yMin="-7" xMax="414" yMax="583">
      <contour>
        <pt x="353" y="65" on="0"/>
        <pt x="396" y="80" on="1"/>
        <pt x="414" y="13" on="1"/>
        <pt x="390" y="3" on="0"/>
        <pt x="333" y="-7" on="0"/>
        <pt x="308" y="-7" on="1"/>
        <pt x="143" y="-7" on="0"/>
        <pt x="114" y="187" on="1"/>
        <pt x="59" y="187" on="1"/>
        <pt x="59" y="258" on="1"/>
        <pt x="108" y="258" on="1"/>
        <pt x="107" y="268" on="0"/>
        <pt x="107" y="288" on="1"/>
        <pt x="107" y="316" on="1"/>
        <pt x="59" y="316" on="1"/>
        <pt x="59" y="387" on="1"/>
        <pt x="114" y="387" on="1"/>
        <pt x="129" y="484" on="0"/>
        <pt x="223" y="583" on="0"/>
        <pt x="308" y="583" on="1"/>
        <pt x="333" y="583" on="0"/>
        <pt x="390" y="573" on="0"/>
        <pt x="414" y="563" on="1"/>
        <pt x="396" y="496" on="1"/>
        <pt x="353" y="511" on="0"/>
        <pt x="315" y="511" on="1"/>
        <pt x="270" y="511" on="0"/>
        <pt x="216" y="453" on="0"/>
        <pt x="206" y="387" on="1"/>
        <pt x="378" y="387" on="1"/>
        <pt x="361" y="316" on="1"/>
        <pt x="199" y="316" on="1"/>
        <pt x="199" y="288" on="1"/>
        <pt x="199" y="258" on="1"/>
        <pt x="350" y="258" on="1"/>
        <pt x="334" y="187" on="1"/>
        <pt x="206" y="187" on="1"/>
        <pt x="216" y="122" on="0"/>
        <pt x="270" y="65" on="0"/>
        <pt x="315" y="65" on="1"/>
      </contour>
    </TTGlyph>
    <TTGlyph name="F" xMin="54" yMin="0" xMax="394" yMax="640">
      <contour>
        <pt x="54" y="640" on="1"/>
        <pt x="394" y="640" on="1"/>
        <pt x="394" y="568" on="1"/>
        <pt x="146" y="568" on="1"/>
        <pt x="146" y="324" on="1"/>
        <pt x="330" y="324" on="1"/>
        <pt x="330" y="252" on="1"/>
        <pt x="146" y="252" on="1"/>
        <pt x="146" y="0" on="1"/>
        <pt x="54" y="0" on="1"/>
      </contour>
    </TTGlyph>
    <TTGlyph name="F.hex" xMin="54" yMin="0" xMax="394" yMax="576">
      <contour>
        <pt x="54" y="576" on="1"/>
        <pt x="394" y="576" on="1"/>
        <pt x="394" y="504" on="1"/>
        <pt x="146" y="504" on="1"/>
        <pt x="146" y="308" on="1"/>
        <pt x="330" y="308" on="1"/>
        <pt x="330" y="236" on="1"/>
        <pt x="146" y="236" on="1"/>
        <pt x="146" y="0" on="1"/>
        <pt x="54" y="0" on="1"/>
      </contour>
    </TTGlyph>
    <TTGlyph name="F.sups" xMin="128" yMin="320" xMax="320" yMax="640">
      <contour>
        <pt x="128" y="640" on="1"/>
        <pt x="320" y="640" on="1"/>
        <pt x="320" y="585" on="1"/>
        <pt x="192" y="585" on="1"/>
        <pt x="192" y="503" on="1"/>
        <pt x="300" y="503" on="1"/>
        <pt x="300" y="448" on="1"/>
        <pt x="192" y="448" on="1"/>
        <pt x="192" y="320" on="1"/>
        <pt x="128" y="320" on="1"/>
      </contour>
    </TTGlyph>
    <TTGlyph name="G" xMin="49" yMin="-9" xMax="393" yMax="647">
      <contour>
        <pt x="188" y="-9" on="0"/>
        <pt x="93" y="55" on="0"/>
        <pt x="49" y="197" on="0"/>
        <pt x="49" y="319" on="1"/>
        <pt x="49" y="441" on="0"/>
        <pt x="93" y="583" on="0"/>
        <pt x="188" y="647" on="0"/>
        <pt x="270" y="647" on="1"/>
        <pt x="333" y="647" on="0"/>
        <pt x="390" y="631" on="1"/>
        <pt x="376" y="563" on="1"/>
        <pt x="328" y="575" on="0"/>
        <pt x="283" y="575" on="1"/>
        <pt x="222" y="575" on="0"/>
        <pt x="164" y="525" on="0"/>
        <pt x="147" y="421" on="0"/>
        <pt x="147" y="319" on="1"/>
        <pt x="147" y="217" on="0"/>
        <pt x="163" y="114" on="0"/>
        <pt x="218" y="63" on="0"/>
        <pt x="275" y="63" on="1"/>
        <pt x="292" y="63" on="0"/>
        <pt x="301" y="64" on="1"/>
        <pt x="301" y="252" on="1"/>
        <pt x="219" y="252" on="1"/>
        <pt x="219" y="324" on="1"/>
        <pt x="393" y="324" on="1"/>
        <pt x="393" y="7" on="1"/>
        <pt x="366" y="-1" on="0"/>
        <pt x="298" y="-9" on="0"/>
        <pt x="270" y="-9" on="1"/>
      </contour>
    </TTGlyph>
    <TTGlyph name="G.sups" xMin="103" yMin="315" xMax="322" yMax="647">
      <contour>
        <pt x="163" y="315" on="0"/>
        <pt x="103" y="391" on="0"/>
        <pt x="103" y="481" on="1"/>
        <pt x="103" y="567" on="0"/>
        <pt x="166" y="647" on="0"/>
        <pt x="236" y="647" on="1"/>
        <pt x="277" y="647" on="0"/>
        <pt x="322" y="638" on="1"/>
        <pt x="313" y="583" on="1"/>
        <pt x="267" y="591" on="0"/>
        <pt x="239" y="591" on="1"/>
        <pt x="207" y="591" on="0"/>
        <pt x="178" y="569" on="0"/>
        <pt x="169" y="525" on="0"/>
        <pt x="169" y="481" on="1"/>
        <pt x="169" y="437" on="0"/>
        <pt x="179" y="391" on="0"/>
        <pt x="204" y="371" on="0"/>
        <pt x="228" y="371" on="1"/>
        <pt x="257" y="373" on="1"/>
        <pt x="257" y="512" on="1"/>
        <pt x="321" y="512" on="1"/>
        <pt x="321" y="325" on="1"/>
        <pt x="273" y="315" on="0"/>
        <pt x="226" y="315" on="1"/>
      </contour>
    </TTGlyph>
    <TTGlyph name="Gamma" xMin="55" yMin="0" xMax="389" yMax="640">
      <component glyphName="uni0413" x="0" y="0" flags="0x400"/>
    </TTGlyph>
    <TTGlyph name="Gbreve" xMin="49" yMin="-9" xMax="393" yMax="841">
      <component glyphName="G" x="0" y="0" flags="0x400"/>
      <component glyphName="uni0306.case" x="20" y="0" flags="0x0"/>
    </TTGlyph>
    <TTGlyph name="Gcaron" xMin="49" yMin="-9" xMax="393" yMax="842">
      <component glyphName="G" x="0" y="0" flags="0x400"/>
      <component glyphName="uni030C.case" x="20" y="0" flags="0x0"/>
    </TTGlyph>
    <TTGlyph name="Gcircumflex" xMin="49" yMin="-9" xMax="393" yMax="842">
      <component glyphName="G" x="0" y="0" flags="0x400"/>
      <component glyphName="uni0302.case" x="20" y="0" flags="0x0"/>
    </TTGlyph>
    <TTGlyph name="Gdotaccent" xMin="49" yMin="-9" xMax="393" yMax="822">
      <component glyphName="G" x="0" y="0" flags="0x400"/>
      <component glyphName="uni0307.case" x="20" y="0" flags="0x0"/>
    </TTGlyph>
    <TTGlyph name="H" xMin="55" yMin="0" xMax="393" yMax="640">
      <contour>
        <pt x="55" y="640" on="1"/>
        <pt x="147" y="640" on="1"/>
        <pt x="147" y="324" on="1"/>
        <pt x="301" y="324" on="1"/>
        <pt x="301" y="640" on="1"/>
        <pt x="393" y="640" on="1"/>
        <pt x="393" y="0" on="1"/>
        <pt x="301" y="0" on="1"/>
        <pt x="301" y="252" on="1"/>
        <pt x="147" y="252" on="1"/>
        <pt x="147" y="0" on="1"/>
        <pt x="55" y="0" on="1"/>
      </contour>
    </TTGlyph>
    <TTGlyph name="H.sups" xMin="118" yMin="320" xMax="330" yMax="640">
      <contour>
        <pt x="182" y="508" on="1"/>
        <pt x="266" y="508" on="1"/>
        <pt x="266" y="640" on="1"/>
        <pt x="330" y="640" on="1"/>
        <pt x="330" y="320" on="1"/>
        <pt x="266" y="320" on="1"/>
        <pt x="266" y="452" on="1"/>
        <pt x="182" y="452" on="1"/>
        <pt x="182" y="320" on="1"/>
        <pt x="118" y="320" on="1"/>
        <pt x="118" y="640" on="1"/>
        <pt x="182" y="640" on="1"/>
      </contour>
    </TTGlyph>
    <TTGlyph name="Hbar" xMin="5" yMin="0" xMax="443" yMax="640">
      <contour>
        <pt x="55" y="508" on="1"/>
        <pt x="55" y="640" on="1"/>
        <pt x="147" y="640" on="1"/>
        <pt x="147" y="508" on="1"/>
        <pt x="301" y="508" on="1"/>
        <pt x="301" y="640" on="1"/>
        <pt x="393" y="640" on="1"/>
        <pt x="393" y="508" on="1"/>
        <pt x="443" y="508" on="1"/>
        <pt x="443" y="440" on="1"/>
        <pt x="393" y="440" on="1"/>
        <pt x="393" y="0" on="1"/>
        <pt x="301" y="0" on="1"/>
        <pt x="301" y="252" on="1"/>
        <pt x="147" y="252" on="1"/>
        <pt x="147" y="0" on="1"/>
        <pt x="55" y="0" on="1"/>
        <pt x="55" y="440" on="1"/>
        <pt x="5" y="440" on="1"/>
        <pt x="5" y="508" on="1"/>
      </contour>
      <contour>
        <pt x="301" y="324" on="1"/>
        <pt x="301" y="440" on="1"/>
        <pt x="147" y="440" on="1"/>
        <pt x="147" y="324" on="1"/>
      </contour>
    </TTGlyph>
    <TTGlyph name="Hcircumflex" xMin="55" yMin="0" xMax="393" yMax="842">
      <component glyphName="H" x="0" y="0" flags="0x400"/>
      <component glyphName="uni0302.case" x="0" y="0" flags="0x0"/>
    </TTGlyph>
    <TTGlyph name="I" xMin="58" yMin="0" xMax="390" yMax="640">
      <contour>
        <pt x="58" y="61" on="1"/>
        <pt x="178" y="72" on="1"/>
        <pt x="178" y="568" on="1"/>
        <pt x="62" y="579" on="1"/>
        <pt x="62" y="640" on="1"/>
        <pt x="386" y="640" on="1"/>
        <pt x="386" y="579" on="1"/>
        <pt x="270" y="568" on="1"/>
        <pt x="270" y="72" on="1"/>
        <pt x="390" y="61" on="1"/>
        <pt x="390" y="0" on="1"/>
        <pt x="58" y="0" on="1"/>
      </contour>
    </TTGlyph>
    <TTGlyph name="I.cv02" xMin="178" yMin="0" xMax="270" yMax="640">
      <contour>
        <pt x="178" y="640" on="1"/>
        <pt x="270" y="640" on="1"/>
        <pt x="270" y="0" on="1"/>
        <pt x="178" y="0" on="1"/>
      </contour>
    </TTGlyph>
    <TTGlyph name="I.short" xMin="58" yMin="0" xMax="390" yMax="576">
      <contour>
        <pt x="58" y="61" on="1"/>
        <pt x="178" y="72" on="1"/>
        <pt x="178" y="504" on="1"/>
        <pt x="62" y="515" on="1"/>
        <pt x="62" y="576" on="1"/>
        <pt x="386" y="576" on="1"/>
        <pt x="386" y="515" on="1"/>
        <pt x="270" y="504" on="1"/>
        <pt x="270" y="72" on="1"/>
        <pt x="390" y="61" on="1"/>
        <pt x="390" y="0" on="1"/>
        <pt x="58" y="0" on="1"/>
      </contour>
    </TTGlyph>
    <TTGlyph name="I.short.cv02" xMin="178" yMin="0" xMax="270" yMax="576">
      <contour>
        <pt x="178" y="576" on="1"/>
        <pt x="270" y="576" on="1"/>
        <pt x="270" y="0" on="1"/>
        <pt x="178" y="0" on="1"/>
      </contour>
    </TTGlyph>
    <TTGlyph name="I.sups" xMin="128" yMin="320" xMax="320" yMax="640">
      <contour>
        <pt x="320" y="320" on="1"/>
        <pt x="128" y="320" on="1"/>
        <pt x="128" y="368" on="1"/>
        <pt x="192" y="376" on="1"/>
        <pt x="192" y="584" on="1"/>
        <pt x="128" y="592" on="1"/>
        <pt x="128" y="640" on="1"/>
        <pt x="320" y="640" on="1"/>
        <pt x="320" y="592" on="1"/>
        <pt x="256" y="584" on="1"/>
        <pt x="256" y="376" on="1"/>
        <pt x="320" y="368" on="1"/>
      </contour>
    </TTGlyph>
    <TTGlyph name="IJ" xMin="3" yMin="0" xMax="406" yMax="640">
      <contour>
        <pt x="3" y="61" on="1"/>
        <pt x="54" y="72" on="1"/>
        <pt x="54" y="568" on="1"/>
        <pt x="5" y="579" on="1"/>
        <pt x="5" y="640" on="1"/>
        <pt x="191" y="640" on="1"/>
        <pt x="191" y="579" on="1"/>
        <pt x="146" y="568" on="1"/>
        <pt x="146" y="72" on="1"/>
        <pt x="232" y="72" on="1"/>
        <pt x="278" y="72" on="0"/>
        <pt x="314" y="125" on="0"/>
        <pt x="314" y="177" on="1"/>
        <pt x="314" y="568" on="1"/>
        <pt x="230" y="568" on="1"/>
        <pt x="230" y="640" on="1"/>
        <pt x="406" y="640" on="1"/>
        <pt x="406" y="181" on="1"/>
        <pt x="406" y="88" on="0"/>
        <pt x="313" y="0" on="0"/>
        <pt x="232" y="0" on="1"/>
        <pt x="3" y="0" on="1"/>
      </contour>
    </TTGlyph>
    <TTGlyph name="Iacute" xMin="58" yMin="0" xMax="390" yMax="844">
      <component glyphName="I" x="0" y="0" flags="0x400"/>
      <component glyphName="acutecomb.case" x="0" y="0" flags="0x0"/>
    </TTGlyph>
    <TTGlyph name="Iacute.cv02" xMin="178" yMin="0" xMax="358" yMax="844">
      <component glyphName="I.cv02" x="0" y="0" flags="0x400"/>
      <component glyphName="acutecomb.case" x="0" y="0" flags="0x0"/>
    </TTGlyph>
    <TTGlyph name="Ibreve" xMin="58" yMin="0" xMax="390" yMax="841">
      <component glyphName="I" x="0" y="0" flags="0x400"/>
      <component glyphName="uni0306.case" x="0" y="0" flags="0x0"/>
    </TTGlyph>
    <TTGlyph name="Ibreve.cv02" xMin="88" yMin="0" xMax="360" yMax="841">
      <component glyphName="I.cv02" x="0" y="0" flags="0x400"/>
      <component glyphName="uni0306.case" x="0" y="0" flags="0x0"/>
    </TTGlyph>
    <TTGlyph name="Icircumflex" xMin="58" yMin="0" xMax="390" yMax="842">
      <component glyphName="I" x="0" y="0" flags="0x400"/>
      <component glyphName="uni0302.case" x="0" y="0" flags="0x0"/>
    </TTGlyph>
    <TTGlyph name="Icircumflex.cv02" xMin="76" yMin="0" xMax="373" yMax="842">
      <component glyphName="I.cv02" x="0" y="0" flags="0x400"/>
      <component glyphName="uni0302.case" x="0" y="0" flags="0x0"/>
    </TTGlyph>
    <TTGlyph name="Idieresis" xMin="58" yMin="0" xMax="390" yMax="823">
      <component glyphName="I" x="0" y="0" flags="0x400"/>
      <component glyphName="uni0308.case" x="0" y="0" flags="0x0"/>
    </TTGlyph>
    <TTGlyph name="Idieresis.cv02" xMin="81" yMin="0" xMax="368" yMax="823">
      <component glyphName="I.cv02" x="0" y="0" flags="0x400"/>
      <component glyphName="uni0308.case" x="0" y="0" flags="0x0"/>
    </TTGlyph>
    <TTGlyph name="Idotaccent" xMin="58" yMin="0" xMax="390" yMax="822">
      <component glyphName="I" x="0" y="0" flags="0x400"/>
      <component glyphName="uni0307.case" x="0" y="0" flags="0x0"/>
    </TTGlyph>
    <TTGlyph name="Idotaccent.cv02" xMin="160" yMin="0" xMax="288" yMax="822">
      <component glyphName="I.cv02" x="0" y="0" flags="0x400"/>
      <component glyphName="uni0307.case" x="0" y="0" flags="0x0"/>
    </TTGlyph>
    <TTGlyph name="Igrave" xMin="58" yMin="0" xMax="390" yMax="844">
      <component glyphName="I" x="0" y="0" flags="0x400"/>
      <component glyphName="gravecomb.case" x="0" y="0" flags="0x0"/>
    </TTGlyph>
    <TTGlyph name="Igrave.cv02" xMin="91" yMin="0" xMax="270" yMax="844">
      <component glyphName="I.cv02" x="0" y="0" flags="0x400"/>
      <component glyphName="gravecomb.case" x="0" y="0" flags="0x0"/>
    </TTGlyph>
    <TTGlyph name="Imacron" xMin="58" yMin="0" xMax="390" yMax="773">
      <component glyphName="I" x="0" y="0" flags="0x400"/>
      <component glyphName="uni0304.case" x="0" y="0" flags="0x0"/>
    </TTGlyph>
    <TTGlyph name="Imacron.cv02" xMin="97" yMin="0" xMax="351" yMax="773">
      <component glyphName="I.cv02" x="0" y="0" flags="0x400"/>
      <component glyphName="uni0304.case" x="0" y="0" flags="0x0"/>
    </TTGlyph>
    <TTGlyph name="Iogonek" xMin="58" yMin="-197" xMax="409" yMax="640">
      <component glyphName="I" x="0" y="0" flags="0x400"/>
      <component glyphName="uni0328" x="1" y="0" flags="0x0"/>
    </TTGlyph>
    <TTGlyph name="Iogonek.cv02" xMin="128" yMin="-197" xMax="289" yMax="640">
      <component glyphName="I.cv02" x="0" y="0" flags="0x400"/>
      <component glyphName="uni0328" x="-119" y="0" flags="0x0"/>
    </TTGlyph>
    <TTGlyph name="Iota" xMin="58" yMin="0" xMax="390" yMax="640">
      <component glyphName="I" x="0" y="0" flags="0x400"/>
    </TTGlyph>
    <TTGlyph name="Iota.cv02" xMin="178" yMin="0" xMax="270" yMax="640">
      <component glyphName="I.cv02" x="0" y="0" flags="0x400"/>
    </TTGlyph>
    <TTGlyph name="Iotadieresis" xMin="58" yMin="0" xMax="390" yMax="823">
      <component glyphName="I" x="0" y="0" flags="0x400"/>
      <component glyphName="uni0308.case" x="0" y="0" flags="0x0"/>
    </TTGlyph>
    <TTGlyph name="Iotadieresis.cv02" xMin="81" yMin="0" xMax="368" yMax="823">
      <component glyphName="Iota.cv02" x="0" y="0" flags="0x400"/>
      <component glyphName="uni0308.case" x="0" y="0" flags="0x0"/>
    </TTGlyph>
    <TTGlyph name="Iotatonos" xMin="-76" yMin="0" xMax="390" yMax="704">
      <component glyphName="I" x="0" y="0" flags="0x400"/>
      <component glyphName="tonos" x="-256" y="0" flags="0x0"/>
    </TTGlyph>
    <TTGlyph name="Iotatonos.cv02" xMin="47" yMin="0" xMax="270" yMax="704">
      <component glyphName="tonos" x="-133" y="0" flags="0x400"/>
      <component glyphName="Iota.cv02" x="0" y="0" flags="0x0"/>
    </TTGlyph>
    <TTGlyph name="Itilde" xMin="58" yMin="0" xMax="390" yMax="840">
      <component glyphName="I" x="0" y="0" flags="0x400"/>
      <component glyphName="tildecomb.case" x="0" y="0" flags="0x0"/>
    </TTGlyph>
    <TTGlyph name="Itilde.cv02" xMin="66" yMin="0" xMax="382" yMax="840">
      <component glyphName="I.cv02" x="0" y="0" flags="0x400"/>
      <component glyphName="tildecomb.case" x="0" y="0" flags="0x0"/>
    </TTGlyph>
    <TTGlyph name="J" xMin="57" yMin="-8" xMax="393" yMax="640">
      <contour>
        <pt x="153" y="106" on="0"/>
        <pt x="191" y="64" on="0"/>
        <pt x="224" y="64" on="1"/>
        <pt x="267" y="64" on="0"/>
        <pt x="301" y="117" on="0"/>
        <pt x="301" y="169" on="1"/>
        <pt x="301" y="564" on="1"/>
        <pt x="147" y="564" on="1"/>
        <pt x="147" y="640" on="1"/>
        <pt x="393" y="640" on="1"/>
        <pt x="393" y="173" on="1"/>
        <pt x="393" y="80" on="0"/>
        <pt x="303" y="-8" on="0"/>
        <pt x="224" y="-8" on="1"/>
        <pt x="87" y="-8" on="0"/>
        <pt x="57" y="128" on="1"/>
        <pt x="143" y="149" on="1"/>
      </contour>
    </TTGlyph>
    <TTGlyph name="J.cv03" xMin="57" yMin="-8" xMax="393" yMax="640">
      <contour>
        <pt x="87" y="-8" on="0"/>
        <pt x="57" y="128" on="1"/>
        <pt x="143" y="149" on="1"/>
        <pt x="153" y="106" on="0"/>
        <pt x="191" y="64" on="0"/>
        <pt x="224" y="64" on="1"/>
        <pt x="267" y="64" on="0"/>
        <pt x="301" y="117" on="0"/>
        <pt x="301" y="169" on="1"/>
        <pt x="301" y="640" on="1"/>
        <pt x="393" y="640" on="1"/>
        <pt x="393" y="173" on="1"/>
        <pt x="393" y="80" on="0"/>
        <pt x="303" y="-8" on="0"/>
        <pt x="224" y="-8" on="1"/>
      </contour>
    </TTGlyph>
    <TTGlyph name="J.sups" xMin="128" yMin="320" xMax="320" yMax="640">
      <contour>
        <pt x="320" y="640" on="1"/>
        <pt x="320" y="384" on="1"/>
        <pt x="256" y="384" on="1"/>
        <pt x="256" y="576" on="1"/>
        <pt x="128" y="576" on="1"/>
        <pt x="128" y="640" on="1"/>
      </contour>
      <contour>
        <pt x="256" y="320" on="1"/>
        <pt x="128" y="320" on="1"/>
        <pt x="128" y="384" on="1"/>
        <pt x="256" y="384" on="1"/>
      </contour>
    </TTGlyph>
    <TTGlyph name="Jcircumflex" xMin="57" yMin="-8" xMax="419" yMax="842">
      <component glyphName="J" x="0" y="0" flags="0x400"/>
      <component glyphName="uni0302.case" x="46" y="0" flags="0x0"/>
    </TTGlyph>
    <TTGlyph name="Jcircumflex.cv03" xMin="57" yMin="-8" xMax="496" yMax="842">
      <component glyphName="J.cv03" x="0" y="0" flags="0x400"/>
      <component glyphName="uni0302.case" x="123" y="0" flags="0x0"/>
    </TTGlyph>
    <TTGlyph name="K" xMin="55" yMin="0" xMax="407" yMax="640">
      <contour>
        <pt x="55" y="640" on="1"/>
        <pt x="147" y="640" on="1"/>
        <pt x="147" y="329" on="1"/>
        <pt x="177" y="329" on="1"/>
        <pt x="231" y="398" on="0"/>
        <pt x="293" y="540" on="0"/>
        <pt x="310" y="640" on="1"/>
        <pt x="407" y="640" on="1"/>
        <pt x="389" y="537" on="0"/>
        <pt x="328" y="391" on="0"/>
        <pt x="273" y="321" on="1"/>
        <pt x="331" y="306" on="0"/>
        <pt x="389" y="220" on="0"/>
        <pt x="394" y="150" on="1"/>
        <pt x="406" y="0" on="1"/>
        <pt x="310" y="0" on="1"/>
        <pt x="302" y="144" on="1"/>
        <pt x="299" y="206" on="0"/>
        <pt x="253" y="257" on="0"/>
        <pt x="199" y="257" on="1"/>
        <pt x="147" y="257" on="1"/>
        <pt x="147" y="0" on="1"/>
        <pt x="55" y="0" on="1"/>
      </contour>
    </TTGlyph>
    <TTGlyph name="K.sups" xMin="128" yMin="320" xMax="320" yMax="640">
      <contour>
        <pt x="192" y="640" on="1"/>
        <pt x="192" y="512" on="1"/>
        <pt x="256" y="512" on="1"/>
        <pt x="256" y="448" on="1"/>
        <pt x="192" y="448" on="1"/>
        <pt x="192" y="320" on="1"/>
        <pt x="128" y="320" on="1"/>
        <pt x="128" y="640" on="1"/>
      </contour>
      <contour>
        <pt x="320" y="640" on="1"/>
        <pt x="320" y="512" on="1"/>
        <pt x="256" y="512" on="1"/>
        <pt x="256" y="640" on="1"/>
      </contour>
      <contour>
        <pt x="320" y="448" on="1"/>
        <pt x="320" y="320" on="1"/>
        <pt x="256" y="320" on="1"/>
        <pt x="256" y="448" on="1"/>
      </contour>
    </TTGlyph>
    <TTGlyph name="Kappa" xMin="55" yMin="0" xMax="407" yMax="640">
      <component glyphName="K" x="0" y="0" flags="0x400"/>
    </TTGlyph>
    <TTGlyph name="L" xMin="55" yMin="0" xMax="389" yMax="640">
      <contour>
        <pt x="55" y="640" on="1"/>
        <pt x="147" y="640" on="1"/>
        <pt x="147" y="76" on="1"/>
        <pt x="389" y="76" on="1"/>
        <pt x="389" y="0" on="1"/>
        <pt x="55" y="0" on="1"/>
      </contour>
    </TTGlyph>
    <TTGlyph name="L.sups" xMin="128" yMin="320" xMax="320" yMax="640">
      <contour>
        <pt x="320" y="320" on="1"/>
        <pt x="128" y="320" on="1"/>
        <pt x="128" y="640" on="1"/>
        <pt x="192" y="640" on="1"/>
        <pt x="192" y="376" on="1"/>
        <pt x="320" y="376" on="1"/>
      </contour>
    </TTGlyph>
    <TTGlyph name="Lacute" xMin="55" yMin="0" xMax="389" yMax="844">
      <component glyphName="L" x="0" y="0" flags="0x400"/>
      <component glyphName="acutecomb.case" x="-123" y="0" flags="0x0"/>
    </TTGlyph>
    <TTGlyph name="Lambda" xMin="30" yMin="0" xMax="418" yMax="642">
      <contour>
        <pt x="45" y="187" on="0"/>
        <pt x="123" y="520" on="0"/>
        <pt x="182" y="642" on="1"/>
        <pt x="266" y="642" on="1"/>
        <pt x="326" y="520" on="0"/>
        <pt x="403" y="187" on="0"/>
        <pt x="418" y="0" on="1"/>
        <pt x="323" y="0" on="1"/>
        <pt x="310" y="161" on="0"/>
        <pt x="260" y="434" on="0"/>
        <pt x="224" y="536" on="1"/>
        <pt x="152" y="325" on="0"/>
        <pt x="125" y="0" on="1"/>
        <pt x="30" y="0" on="1"/>
      </contour>
    </TTGlyph>
    <TTGlyph name="Lcaron" xMin="55" yMin="0" xMax="389" yMax="640">
      <component glyphName="L" x="0" y="0" flags="0x400"/>
      <component glyphName="uni030C.alt" x="-64" y="0" flags="0x0"/>
    </TTGlyph>
    <TTGlyph name="Ldot" xMin="55" yMin="0" xMax="394" yMax="640">
      <component glyphName="L" x="0" y="0" flags="0x400"/>
      <component glyphName="period" x="128" y="256" flags="0x4"/>
    </TTGlyph>
    <TTGlyph name="Lslash" xMin="-46" yMin="0" xMax="389" yMax="640">
      <component glyphName="L" x="0" y="0" flags="0x400"/>
      <component glyphName="_part.slash.comp" x="-112" y="0" flags="0x0"/>
    </TTGlyph>
    <TTGlyph name="M" xMin="9" yMin="0" xMax="439" yMax="640">
      <contour>
        <pt x="14" y="356" on="0"/>
        <pt x="34" y="640" on="1"/>
        <pt x="131" y="640" on="1"/>
        <pt x="223" y="289" on="1"/>
        <pt x="225" y="289" on="1"/>
        <pt x="318" y="640" on="1"/>
        <pt x="414" y="640" on="1"/>
        <pt x="434" y="356" on="0"/>
        <pt x="439" y="0" on="1"/>
        <pt x="346" y="0" on="1"/>
        <pt x="346" y="226" on="0"/>
        <pt x="337" y="442" on="1"/>
        <pt x="335" y="442" on="1"/>
        <pt x="252" y="139" on="1"/>
        <pt x="196" y="139" on="1"/>
        <pt x="112" y="442" on="1"/>
        <pt x="110" y="442" on="1"/>
        <pt x="102" y="212" on="0"/>
        <pt x="102" y="0" on="1"/>
        <pt x="9" y="0" on="1"/>
      </contour>
    </TTGlyph>
    <TTGlyph name="M.sups" xMin="128" yMin="320" xMax="320" yMax="640">
      <contour>
        <pt x="320" y="640" on="1"/>
        <pt x="320" y="320" on="1"/>
        <pt x="256" y="320" on="1"/>
        <pt x="256" y="384" on="1"/>
        <pt x="192" y="384" on="1"/>
        <pt x="192" y="320" on="1"/>
        <pt x="128" y="320" on="1"/>
        <pt x="128" y="640" on="1"/>
      </contour>
    </TTGlyph>
    <TTGlyph name="Mu" xMin="9" yMin="0" xMax="439" yMax="640">
      <component glyphName="M" x="0" y="0" flags="0x400"/>
    </TTGlyph>
    <TTGlyph name="N" xMin="55" yMin="0" xMax="393" yMax="640">
      <contour>
        <pt x="152" y="640" on="1"/>
        <pt x="284" y="264" on="1"/>
        <pt x="310" y="147" on="1"/>
        <pt x="306" y="640" on="1"/>
        <pt x="393" y="640" on="1"/>
        <pt x="393" y="0" on="1"/>
        <pt x="296" y="0" on="1"/>
        <pt x="164" y="376" on="1"/>
        <pt x="138" y="491" on="1"/>
        <pt x="142" y="0" on="1"/>
        <pt x="55" y="0" on="1"/>
        <pt x="55" y="640" on="1"/>
      </contour>
    </TTGlyph>
    <TTGlyph name="N.sups" xMin="110" yMin="320" xMax="338" yMax="640">
      <contour>
        <pt x="110" y="640" on="1"/>
        <pt x="200" y="640" on="1"/>
        <pt x="276" y="421" on="1"/>
        <pt x="276" y="640" on="1"/>
        <pt x="338" y="640" on="1"/>
        <pt x="338" y="320" on="1"/>
        <pt x="248" y="320" on="1"/>
        <pt x="172" y="539" on="1"/>
        <pt x="172" y="320" on="1"/>
        <pt x="110" y="320" on="1"/>
      </contour>
    </TTGlyph>
    <TTGlyph name="Nacute" xMin="55" yMin="0" xMax="393" yMax="844">
      <component glyphName="N" x="0" y="0" flags="0x400"/>
      <component glyphName="acutecomb.case" x="0" y="0" flags="0x0"/>
    </TTGlyph>
    <TTGlyph name="Ncaron" xMin="55" yMin="0" xMax="393" yMax="842">
      <component glyphName="N" x="0" y="0" flags="0x400"/>
      <component glyphName="uni030C.case" x="0" y="0" flags="0x0"/>
    </TTGlyph>
    <TTGlyph name="Ntilde" xMin="55" yMin="0" xMax="393" yMax="840">
      <component glyphName="N" x="0" y="0" flags="0x400"/>
      <component glyphName="tildecomb.case" x="0" y="0" flags="0x0"/>
    </TTGlyph>
    <TTGlyph name="Nu" xMin="55" yMin="0" xMax="393" yMax="640">
      <component glyphName="N" x="0" y="0" flags="0x400"/>
    </TTGlyph>
    <TTGlyph name="O" xMin="32" yMin="-10" xMax="416" yMax="650">
      <contour>
        <pt x="32" y="-10" on="0"/>
        <pt x="32" y="319" on="1"/>
        <pt x="32" y="486" on="0"/>
        <pt x="127" y="650" on="0"/>
        <pt x="224" y="650" on="1"/>
        <pt x="323" y="650" on="0"/>
        <pt x="416" y="487" on="0"/>
        <pt x="416" y="319" on="1"/>
        <pt x="416" y="154" on="0"/>
        <pt x="323" y="-10" on="0"/>
        <pt x="224" y="-10" on="1"/>
      </contour>
      <contour>
        <pt x="259" y="64" on="0"/>
        <pt x="301" y="115" on="0"/>
        <pt x="320" y="225" on="0"/>
        <pt x="320" y="319" on="1"/>
        <pt x="320" y="414" on="0"/>
        <pt x="301" y="525" on="0"/>
        <pt x="259" y="576" on="0"/>
        <pt x="224" y="576" on="1"/>
        <pt x="189" y="576" on="0"/>
        <pt x="147" y="525" on="0"/>
        <pt x="128" y="414" on="0"/>
        <pt x="128" y="319" on="1"/>
        <pt x="128" y="225" on="0"/>
        <pt x="147" y="115" on="0"/>
        <pt x="189" y="64" on="0"/>
        <pt x="224" y="64" on="1"/>
      </contour>
    </TTGlyph>
    <TTGlyph name="O.short" xMin="32" yMin="-10" xMax="416" yMax="586">
      <contour>
        <pt x="128" y="-10" on="0"/>
        <pt x="32" y="143" on="0"/>
        <pt x="32" y="287" on="1"/>
        <pt x="32" y="432" on="0"/>
        <pt x="128" y="586" on="0"/>
        <pt x="224" y="586" on="1"/>
        <pt x="416" y="586" on="0"/>
        <pt x="416" y="287" on="1"/>
        <pt x="416" y="-10" on="0"/>
        <pt x="224" y="-10" on="1"/>
      </contour>
      <contour>
        <pt x="276" y="64" on="0"/>
        <pt x="320" y="169" on="0"/>
        <pt x="320" y="287" on="1"/>
        <pt x="320" y="406" on="0"/>
        <pt x="276" y="512" on="0"/>
        <pt x="224" y="512" on="1"/>
        <pt x="172" y="512" on="0"/>
        <pt x="128" y="406" on="0"/>
        <pt x="128" y="287" on="1"/>
        <pt x="128" y="169" on="0"/>
        <pt x="172" y="64" on="0"/>
        <pt x="224" y="64" on="1"/>
      </contour>
    </TTGlyph>
    <TTGlyph name="O.sups" xMin="104" yMin="316" xMax="344" yMax="644">
      <contour>
        <pt x="161" y="316" on="0"/>
        <pt x="104" y="406" on="0"/>
        <pt x="104" y="480" on="1"/>
        <pt x="104" y="555" on="0"/>
        <pt x="161" y="644" on="0"/>
        <pt x="224" y="644" on="1"/>
        <pt x="286" y="644" on="0"/>
        <pt x="344" y="554" on="0"/>
        <pt x="344" y="480" on="1"/>
        <pt x="344" y="407" on="0"/>
        <pt x="286" y="316" on="0"/>
        <pt x="224" y="316" on="1"/>
      </contour>
      <contour>
        <pt x="255" y="372" on="0"/>
        <pt x="280" y="420" on="0"/>
        <pt x="280" y="480" on="1"/>
        <pt x="280" y="539" on="0"/>
        <pt x="255" y="588" on="0"/>
        <pt x="224" y="588" on="1"/>
        <pt x="193" y="588" on="0"/>
        <pt x="168" y="539" on="0"/>
        <pt x="168" y="480" on="1"/>
        <pt x="168" y="420" on="0"/>
        <pt x="193" y="372" on="0"/>
        <pt x="224" y="372" on="1"/>
      </contour>
    </TTGlyph>
    <TTGlyph name="OE" xMin="-8" yMin="0" xMax="452" yMax="640">
      <contour>
        <pt x="-8" y="0" on="0"/>
        <pt x="-8" y="319" on="1"/>
        <pt x="-8" y="480" on="0"/>
        <pt x="80" y="640" on="0"/>
        <pt x="169" y="640" on="1"/>
        <pt x="442" y="640" on="1"/>
        <pt x="442" y="568" on="1"/>
        <pt x="286" y="568" on="1"/>
        <pt x="286" y="324" on="1"/>
        <pt x="407" y="324" on="1"/>
        <pt x="407" y="252" on="1"/>
        <pt x="286" y="252" on="1"/>
        <pt x="286" y="72" on="1"/>
        <pt x="452" y="72" on="1"/>
        <pt x="452" y="0" on="1"/>
        <pt x="169" y="0" on="1"/>
      </contour>
      <contour>
        <pt x="194" y="72" on="1"/>
        <pt x="194" y="568" on="1"/>
        <pt x="169" y="568" on="1"/>
        <pt x="139" y="568" on="0"/>
        <pt x="104" y="519" on="0"/>
        <pt x="88" y="411" on="0"/>
        <pt x="88" y="319" on="1"/>
        <pt x="88" y="185" on="0"/>
        <pt x="125" y="72" on="0"/>
        <pt x="169" y="72" on="1"/>
      </contour>
    </TTGlyph>
    <TTGlyph name="Oacute" xMin="32" yMin="-10" xMax="416" yMax="844">
      <component glyphName="O" x="0" y="0" flags="0x400"/>
      <component glyphName="acutecomb.case" x="0" y="0" flags="0x0"/>
    </TTGlyph>
    <TTGlyph name="Obreve" xMin="32" yMin="-10" xMax="416" yMax="841">
      <component glyphName="O" x="0" y="0" flags="0x400"/>
      <component glyphName="uni0306.case" x="0" y="0" flags="0x0"/>
    </TTGlyph>
    <TTGlyph name="Ocircumflex" xMin="32" yMin="-10" xMax="416" yMax="842">
      <component glyphName="O" x="0" y="0" flags="0x400"/>
      <component glyphName="uni0302.case" x="0" y="0" flags="0x0"/>
    </TTGlyph>
    <TTGlyph name="Odieresis" xMin="32" yMin="-10" xMax="416" yMax="823">
      <component glyphName="O" x="0" y="0" flags="0x400"/>
      <component glyphName="uni0308.case" x="0" y="0" flags="0x0"/>
    </TTGlyph>
    <TTGlyph name="Ograve" xMin="32" yMin="-10" xMax="416" yMax="844">
      <component glyphName="O" x="0" y="0" flags="0x400"/>
      <component glyphName="gravecomb.case" x="0" y="0" flags="0x0"/>
    </TTGlyph>
    <TTGlyph name="Ohorn" xMin="32" yMin="-10" xMax="438" yMax="772">
      <contour>
        <pt x="32" y="-10" on="0"/>
        <pt x="32" y="319" on="1"/>
        <pt x="32" y="486" on="0"/>
        <pt x="127" y="650" on="0"/>
        <pt x="224" y="650" on="1"/>
        <pt x="249" y="650" on="0"/>
        <pt x="273" y="644" on="1"/>
        <pt x="293" y="640" on="0"/>
        <pt x="303" y="640" on="1"/>
        <pt x="326" y="640" on="0"/>
        <pt x="347" y="665" on="0"/>
        <pt x="347" y="692" on="1"/>
        <pt x="347" y="722" on="0"/>
        <pt x="338" y="772" on="1"/>
        <pt x="424" y="772" on="1"/>
        <pt x="438" y="725" on="0"/>
        <pt x="438" y="683" on="1"/>
        <pt x="438" y="639" on="0"/>
        <pt x="401" y="589" on="0"/>
        <pt x="362" y="580" on="1"/>
        <pt x="416" y="501" on="0"/>
        <pt x="416" y="319" on="1"/>
        <pt x="416" y="154" on="0"/>
        <pt x="323" y="-10" on="0"/>
        <pt x="224" y="-10" on="1"/>
      </contour>
      <contour>
        <pt x="128" y="225" on="0"/>
        <pt x="147" y="115" on="0"/>
        <pt x="189" y="64" on="0"/>
        <pt x="224" y="64" on="1"/>
        <pt x="259" y="64" on="0"/>
        <pt x="301" y="115" on="0"/>
        <pt x="320" y="225" on="0"/>
        <pt x="320" y="319" on="1"/>
        <pt x="320" y="414" on="0"/>
        <pt x="301" y="525" on="0"/>
        <pt x="259" y="576" on="0"/>
        <pt x="224" y="576" on="1"/>
        <pt x="189" y="576" on="0"/>
        <pt x="147" y="525" on="0"/>
        <pt x="128" y="414" on="0"/>
        <pt x="128" y="319" on="1"/>
      </contour>
    </TTGlyph>
    <TTGlyph name="Ohorn.short" xMin="32" yMin="-10" xMax="438" yMax="708">
      <contour>
        <pt x="128" y="-10" on="0"/>
        <pt x="32" y="143" on="0"/>
        <pt x="32" y="287" on="1"/>
        <pt x="32" y="432" on="0"/>
        <pt x="128" y="586" on="0"/>
        <pt x="224" y="586" on="1"/>
        <pt x="249" y="586" on="0"/>
        <pt x="273" y="580" on="1"/>
        <pt x="293" y="576" on="0"/>
        <pt x="303" y="576" on="1"/>
        <pt x="326" y="576" on="0"/>
        <pt x="347" y="601" on="0"/>
        <pt x="347" y="628" on="1"/>
        <pt x="347" y="658" on="0"/>
        <pt x="338" y="708" on="1"/>
        <pt x="424" y="708" on="1"/>
        <pt x="438" y="661" on="0"/>
        <pt x="438" y="619" on="1"/>
        <pt x="438" y="575" on="0"/>
        <pt x="402" y="526" on="0"/>
        <pt x="364" y="517" on="1"/>
        <pt x="416" y="444" on="0"/>
        <pt x="416" y="287" on="1"/>
        <pt x="416" y="138" on="0"/>
        <pt x="323" y="-10" on="0"/>
        <pt x="224" y="-10" on="1"/>
      </contour>
      <contour>
        <pt x="128" y="169" on="0"/>
        <pt x="172" y="64" on="0"/>
        <pt x="224" y="64" on="1"/>
        <pt x="276" y="64" on="0"/>
        <pt x="320" y="169" on="0"/>
        <pt x="320" y="287" on="1"/>
        <pt x="320" y="406" on="0"/>
        <pt x="276" y="512" on="0"/>
        <pt x="224" y="512" on="1"/>
        <pt x="172" y="512" on="0"/>
        <pt x="128" y="406" on="0"/>
        <pt x="128" y="287" on="1"/>
      </contour>
    </TTGlyph>
    <TTGlyph name="Ohungarumlaut" xMin="32" yMin="-10" xMax="422" yMax="844">
      <component glyphName="O" x="0" y="0" flags="0x400"/>
      <component glyphName="uni030B.case" x="0" y="0" flags="0x0"/>
    </TTGlyph>
    <TTGlyph name="Omacron" xMin="32" yMin="-10" xMax="416" yMax="773">
      <component glyphName="O" x="0" y="0" flags="0x400"/>
      <component glyphName="uni0304.case" x="0" y="0" flags="0x0"/>
    </TTGlyph>
    <TTGlyph name="Omegatonos" xMin="-76" yMin="0" xMax="416" yMax="704">
      <component glyphName="uni03A9" x="0" y="0" flags="0x400"/>
      <component glyphName="tonos" x="-256" y="0" flags="0x0"/>
    </TTGlyph>
    <TTGlyph name="Omicron" xMin="32" yMin="-10" xMax="416" yMax="650">
      <component glyphName="O" x="0" y="0" flags="0x400"/>
    </TTGlyph>
    <TTGlyph name="Omicrontonos" xMin="-76" yMin="-10" xMax="416" yMax="704">
      <component glyphName="O" x="0" y="0" flags="0x400"/>
      <component glyphName="tonos" x="-256" y="0" flags="0x0"/>
    </TTGlyph>
    <TTGlyph name="Oslash" xMin="28" yMin="-21" xMax="420" yMax="661">
      <component glyphName="O" x="0" y="0" flags="0x400"/>
      <component glyphName="slash.O" x="0" y="0" flags="0x0"/>
    </TTGlyph>
    <TTGlyph name="Oslashacute" xMin="28" yMin="-21" xMax="420" yMax="844">
      <component glyphName="Oslash" x="0" y="0" flags="0x400"/>
      <component glyphName="acutecomb.case" x="0" y="0" flags="0x0"/>
    </TTGlyph>
    <TTGlyph name="Otilde" xMin="32" yMin="-10" xMax="416" yMax="840">
      <component glyphName="O" x="0" y="0" flags="0x400"/>
      <component glyphName="tildecomb.case" x="0" y="0" flags="0x0"/>
    </TTGlyph>
    <TTGlyph name="P" xMin="55" yMin="0" xMax="406" yMax="640">
      <contour>
        <pt x="55" y="640" on="1"/>
        <pt x="217" y="640" on="1"/>
        <pt x="304" y="640" on="0"/>
        <pt x="406" y="521" on="0"/>
        <pt x="406" y="412" on="1"/>
        <pt x="406" y="303" on="0"/>
        <pt x="305" y="188" on="0"/>
        <pt x="217" y="188" on="1"/>
        <pt x="147" y="188" on="1"/>
        <pt x="147" y="0" on="1"/>
        <pt x="55" y="0" on="1"/>
      </contour>
      <contour>
        <pt x="264" y="260" on="0"/>
        <pt x="310" y="337" on="0"/>
        <pt x="310" y="412" on="1"/>
        <pt x="310" y="489" on="0"/>
        <pt x="263" y="568" on="0"/>
        <pt x="201" y="568" on="1"/>
        <pt x="147" y="568" on="1"/>
        <pt x="147" y="260" on="1"/>
        <pt x="201" y="260" on="1"/>
      </contour>
    </TTGlyph>
    <TTGlyph name="P.sups" xMin="128" yMin="320" xMax="337" yMax="640">
      <contour>
        <pt x="128" y="640" on="1"/>
        <pt x="232" y="640" on="1"/>
        <pt x="280" y="640" on="0"/>
        <pt x="337" y="589" on="0"/>
        <pt x="337" y="544" on="1"/>
        <pt x="337" y="498" on="0"/>
        <pt x="281" y="448" on="0"/>
        <pt x="234" y="448" on="1"/>
        <pt x="192" y="448" on="1"/>
        <pt x="192" y="320" on="1"/>
        <pt x="128" y="320" on="1"/>
      </contour>
      <contour>
        <pt x="269" y="502" on="0"/>
        <pt x="269" y="544" on="1"/>
        <pt x="269" y="586" on="0"/>
        <pt x="230" y="586" on="1"/>
        <pt x="192" y="586" on="1"/>
        <pt x="192" y="502" on="1"/>
        <pt x="230" y="502" on="1"/>
      </contour>
    </TTGlyph>
    <TTGlyph name="Phi" xMin="23" yMin="0" xMax="425" yMax="640">
      <component glyphName="uni0424" x="0" y="0" flags="0x400"/>
    </TTGlyph>
    <TTGlyph name="Pi" xMin="55" yMin="0" xMax="393" yMax="640">
      <component glyphName="uni041F" x="0" y="0" flags="0x400"/>
    </TTGlyph>
    <TTGlyph name="Psi" xMin="32" yMin="0" xMax="416" yMax="640">
      <contour>
        <pt x="260" y="247" on="1"/>
        <pt x="307" y="259" on="0"/>
        <pt x="344" y="353" on="0"/>
        <pt x="344" y="445" on="1"/>
        <pt x="344" y="515" on="0"/>
        <pt x="335" y="640" on="1"/>
        <pt x="400" y="640" on="1"/>
        <pt x="416" y="537" on="0"/>
        <pt x="416" y="441" on="1"/>
        <pt x="416" y="327" on="0"/>
        <pt x="344" y="195" on="0"/>
        <pt x="260" y="184" on="1"/>
        <pt x="260" y="0" on="1"/>
        <pt x="188" y="0" on="1"/>
        <pt x="188" y="184" on="1"/>
        <pt x="104" y="195" on="0"/>
        <pt x="32" y="327" on="0"/>
        <pt x="32" y="441" on="1"/>
        <pt x="32" y="537" on="0"/>
        <pt x="48" y="640" on="1"/>
        <pt x="113" y="640" on="1"/>
        <pt x="104" y="515" on="0"/>
        <pt x="104" y="445" on="1"/>
        <pt x="104" y="353" on="0"/>
        <pt x="141" y="259" on="0"/>
        <pt x="188" y="247" on="1"/>
        <pt x="188" y="640" on="1"/>
        <pt x="260" y="640" on="1"/>
      </contour>
    </TTGlyph>
    <TTGlyph name="Q" xMin="32" yMin="-148" xMax="418" yMax="650">
      <contour>
        <pt x="322" y="-143" on="0"/>
        <pt x="216" y="-77" on="0"/>
        <pt x="200" y="-9" on="1"/>
        <pt x="32" y="12" on="0"/>
        <pt x="32" y="319" on="1"/>
        <pt x="32" y="486" on="0"/>
        <pt x="127" y="650" on="0"/>
        <pt x="224" y="650" on="1"/>
        <pt x="323" y="650" on="0"/>
        <pt x="416" y="487" on="0"/>
        <pt x="416" y="319" on="1"/>
        <pt x="416" y="181" on="0"/>
        <pt x="350" y="21" on="0"/>
        <pt x="282" y="-1" on="1"/>
        <pt x="291" y="-37" on="0"/>
        <pt x="354" y="-66" on="0"/>
        <pt x="418" y="-69" on="1"/>
        <pt x="409" y="-148" on="1"/>
      </contour>
      <contour>
        <pt x="259" y="64" on="0"/>
        <pt x="301" y="115" on="0"/>
        <pt x="320" y="225" on="0"/>
        <pt x="320" y="319" on="1"/>
        <pt x="320" y="414" on="0"/>
        <pt x="301" y="525" on="0"/>
        <pt x="259" y="576" on="0"/>
        <pt x="224" y="576" on="1"/>
        <pt x="189" y="576" on="0"/>
        <pt x="147" y="525" on="0"/>
        <pt x="128" y="414" on="0"/>
        <pt x="128" y="319" on="1"/>
        <pt x="128" y="225" on="0"/>
        <pt x="147" y="115" on="0"/>
        <pt x="189" y="64" on="0"/>
        <pt x="224" y="64" on="1"/>
      </contour>
    </TTGlyph>
    <TTGlyph name="Q.sups" xMin="104" yMin="256" xMax="344" yMax="644">
      <contour>
        <pt x="192" y="320" on="1"/>
        <pt x="146" y="331" on="0"/>
        <pt x="104" y="417" on="0"/>
        <pt x="104" y="480" on="1"/>
        <pt x="104" y="555" on="0"/>
        <pt x="161" y="644" on="0"/>
        <pt x="224" y="644" on="1"/>
        <pt x="286" y="644" on="0"/>
        <pt x="344" y="554" on="0"/>
        <pt x="344" y="480" on="1"/>
        <pt x="344" y="418" on="0"/>
        <pt x="301" y="331" on="0"/>
        <pt x="256" y="320" on="1"/>
        <pt x="256" y="256" on="1"/>
        <pt x="192" y="256" on="1"/>
      </contour>
      <contour>
        <pt x="255" y="372" on="0"/>
        <pt x="280" y="420" on="0"/>
        <pt x="280" y="480" on="1"/>
        <pt x="280" y="539" on="0"/>
        <pt x="255" y="588" on="0"/>
        <pt x="224" y="588" on="1"/>
        <pt x="193" y="588" on="0"/>
        <pt x="168" y="539" on="0"/>
        <pt x="168" y="480" on="1"/>
        <pt x="168" y="420" on="0"/>
        <pt x="193" y="372" on="0"/>
        <pt x="224" y="372" on="1"/>
      </contour>
    </TTGlyph>
    <TTGlyph name="R" xMin="55" yMin="0" xMax="416" yMax="640">
      <contour>
        <pt x="304" y="640" on="0"/>
        <pt x="406" y="533" on="0"/>
        <pt x="406" y="437" on="1"/>
        <pt x="406" y="361" on="0"/>
        <pt x="337" y="268" on="0"/>
        <pt x="275" y="253" on="1"/>
        <pt x="335" y="224" on="0"/>
        <pt x="409" y="93" on="0"/>
        <pt x="416" y="0" on="1"/>
        <pt x="322" y="0" on="1"/>
        <pt x="313" y="94" on="0"/>
        <pt x="246" y="204" on="0"/>
        <pt x="182" y="237" on="1"/>
        <pt x="147" y="237" on="1"/>
        <pt x="147" y="0" on="1"/>
        <pt x="55" y="0" on="1"/>
        <pt x="55" y="640" on="1"/>
        <pt x="217" y="640" on="1"/>
      </contour>
      <contour>
        <pt x="263" y="309" on="0"/>
        <pt x="310" y="375" on="0"/>
        <pt x="310" y="439" on="1"/>
        <pt x="310" y="502" on="0"/>
        <pt x="262" y="568" on="0"/>
        <pt x="201" y="568" on="1"/>
        <pt x="147" y="568" on="1"/>
        <pt x="147" y="309" on="1"/>
        <pt x="201" y="309" on="1"/>
      </contour>
    </TTGlyph>
    <TTGlyph name="R.sups" xMin="127" yMin="320" xMax="330" yMax="640">
      <contour>
        <pt x="270" y="640" on="0"/>
        <pt x="325" y="584" on="0"/>
        <pt x="325" y="534" on="1"/>
        <pt x="325" y="502" on="0"/>
        <pt x="298" y="458" on="0"/>
        <pt x="274" y="448" on="1"/>
        <pt x="322" y="412" on="0"/>
        <pt x="330" y="320" on="1"/>
        <pt x="263" y="320" on="1"/>
        <pt x="259" y="363" on="0"/>
        <pt x="235" y="413" on="0"/>
        <pt x="212" y="428" on="1"/>
        <pt x="191" y="428" on="1"/>
        <pt x="191" y="320" on="1"/>
        <pt x="127" y="320" on="1"/>
        <pt x="127" y="640" on="1"/>
        <pt x="224" y="640" on="1"/>
      </contour>
      <contour>
        <pt x="244" y="484" on="0"/>
        <pt x="261" y="509" on="0"/>
        <pt x="261" y="534" on="1"/>
        <pt x="261" y="559" on="0"/>
        <pt x="244" y="584" on="0"/>
        <pt x="221" y="584" on="1"/>
        <pt x="191" y="584" on="1"/>
        <pt x="191" y="484" on="1"/>
        <pt x="221" y="484" on="1"/>
      </contour>
    </TTGlyph>
    <TTGlyph name="Racute" xMin="55" yMin="0" xMax="416" yMax="844">
      <component glyphName="R" x="0" y="0" flags="0x400"/>
      <component glyphName="acutecomb.case" x="0" y="0" flags="0x0"/>
    </TTGlyph>
    <TTGlyph name="Rcaron" xMin="55" yMin="0" xMax="416" yMax="842">
      <component glyphName="R" x="0" y="0" flags="0x400"/>
      <component glyphName="uni030C.case" x="0" y="0" flags="0x0"/>
    </TTGlyph>
    <TTGlyph name="Rho" xMin="55" yMin="0" xMax="406" yMax="640">
      <component glyphName="P" x="0" y="0" flags="0x400"/>
    </TTGlyph>
    <TTGlyph name="S" xMin="44" yMin="-8" xMax="396" yMax="648">
      <contour>
        <pt x="158" y="-8" on="0"/>
        <pt x="78" y="7" on="0"/>
        <pt x="44" y="21" on="1"/>
        <pt x="66" y="90" on="1"/>
        <pt x="99" y="78" on="0"/>
        <pt x="155" y="65" on="0"/>
        <pt x="188" y="65" on="1"/>
        <pt x="300" y="65" on="0"/>
        <pt x="300" y="148" on="1"/>
        <pt x="300" y="177" on="0"/>
        <pt x="274" y="216" on="0"/>
        <pt x="235" y="241" on="0"/>
        <pt x="200" y="257" on="1"/>
        <pt x="153" y="280" on="0"/>
        <pt x="95" y="320" on="0"/>
        <pt x="54" y="397" on="0"/>
        <pt x="54" y="458" on="1"/>
        <pt x="54" y="545" on="0"/>
        <pt x="159" y="648" on="0"/>
        <pt x="258" y="648" on="1"/>
        <pt x="328" y="648" on="0"/>
        <pt x="383" y="628" on="1"/>
        <pt x="365" y="558" on="1"/>
        <pt x="311" y="575" on="0"/>
        <pt x="265" y="575" on="1"/>
        <pt x="199" y="575" on="0"/>
        <pt x="150" y="517" on="0"/>
        <pt x="150" y="464" on="1"/>
        <pt x="150" y="427" on="0"/>
        <pt x="180" y="378" on="0"/>
        <pt x="224" y="349" on="0"/>
        <pt x="263" y="329" on="1"/>
        <pt x="306" y="308" on="0"/>
        <pt x="359" y="272" on="0"/>
        <pt x="396" y="206" on="0"/>
        <pt x="396" y="155" on="1"/>
        <pt x="396" y="73" on="0"/>
        <pt x="293" y="-8" on="0"/>
        <pt x="196" y="-8" on="1"/>
      </contour>
    </TTGlyph>
    <TTGlyph name="S.sups" xMin="125" yMin="316" xMax="320" yMax="644">
      <contour>
        <pt x="171" y="316" on="0"/>
        <pt x="125" y="326" on="1"/>
        <pt x="134" y="377" on="1"/>
        <pt x="188" y="370" on="0"/>
        <pt x="208" y="370" on="1"/>
        <pt x="234" y="370" on="0"/>
        <pt x="256" y="390" on="0"/>
        <pt x="256" y="410" on="1"/>
        <pt x="256" y="431" on="0"/>
        <pt x="235" y="447" on="0"/>
        <pt x="201" y="458" on="1"/>
        <pt x="164" y="471" on="0"/>
        <pt x="128" y="512" on="0"/>
        <pt x="128" y="550" on="1"/>
        <pt x="128" y="591" on="0"/>
        <pt x="178" y="644" on="0"/>
        <pt x="234" y="644" on="1"/>
        <pt x="275" y="644" on="0"/>
        <pt x="315" y="634" on="1"/>
        <pt x="305" y="583" on="1"/>
        <pt x="265" y="590" on="0"/>
        <pt x="238" y="590" on="1"/>
        <pt x="192" y="590" on="0"/>
        <pt x="192" y="552" on="1"/>
        <pt x="192" y="533" on="0"/>
        <pt x="212" y="519" on="0"/>
        <pt x="240" y="510" on="1"/>
        <pt x="282" y="497" on="0"/>
        <pt x="320" y="456" on="0"/>
        <pt x="320" y="412" on="1"/>
        <pt x="320" y="367" on="0"/>
        <pt x="266" y="316" on="0"/>
        <pt x="214" y="316" on="1"/>
      </contour>
    </TTGlyph>
    <TTGlyph name="Sacute" xMin="44" yMin="-8" xMax="396" yMax="844">
      <component glyphName="S" x="0" y="0" flags="0x400"/>
      <component glyphName="acutecomb.case" x="0" y="0" flags="0x0"/>
    </TTGlyph>
    <TTGlyph name="Scaron" xMin="44" yMin="-8" xMax="396" yMax="842">
      <component glyphName="S" x="0" y="0" flags="0x400"/>
      <component glyphName="uni030C.case" x="0" y="0" flags="0x0"/>
    </TTGlyph>
    <TTGlyph name="Scedilla" xMin="44" yMin="-172" xMax="396" yMax="648">
      <component glyphName="S" x="0" y="0" flags="0x400"/>
      <component glyphName="uni0327" x="-55" y="20" flags="0x4"/>
    </TTGlyph>
    <TTGlyph name="Scircumflex" xMin="44" yMin="-8" xMax="396" yMax="842">
      <component glyphName="S" x="0" y="0" flags="0x400"/>
      <component glyphName="uni0302.case" x="0" y="0" flags="0x0"/>
    </TTGlyph>
    <TTGlyph name="Sigma" xMin="50" yMin="0" xMax="393" yMax="640">
      <contour>
        <pt x="177" y="320" on="1"/>
        <pt x="62" y="584" on="1"/>
        <pt x="62" y="640" on="1"/>
        <pt x="393" y="640" on="1"/>
        <pt x="393" y="568" on="1"/>
        <pt x="167" y="568" on="1"/>
        <pt x="275" y="320" on="1"/>
        <pt x="156" y="72" on="1"/>
        <pt x="393" y="72" on="1"/>
        <pt x="393" y="0" on="1"/>
        <pt x="50" y="0" on="1"/>
        <pt x="50" y="56" on="1"/>
      </contour>
    </TTGlyph>
    <TTGlyph name="T" xMin="34" yMin="0" xMax="414" yMax="640">
      <contour>
        <pt x="270" y="568" on="1"/>
        <pt x="270" y="0" on="1"/>
        <pt x="178" y="0" on="1"/>
        <pt x="178" y="568" on="1"/>
        <pt x="34" y="568" on="1"/>
        <pt x="34" y="640" on="1"/>
        <pt x="414" y="640" on="1"/>
        <pt x="414" y="568" on="1"/>
      </contour>
    </TTGlyph>
    <TTGlyph name="T.sups" xMin="120" yMin="320" xMax="328" yMax="640">
      <contour>
        <pt x="328" y="584" on="1"/>
        <pt x="256" y="584" on="1"/>
        <pt x="256" y="320" on="1"/>
        <pt x="192" y="320" on="1"/>
        <pt x="192" y="584" on="1"/>
        <pt x="120" y="584" on="1"/>
        <pt x="120" y="640" on="1"/>
        <pt x="328" y="640" on="1"/>
      </contour>
    </TTGlyph>
    <TTGlyph name="Tau" xMin="34" yMin="0" xMax="414" yMax="640">
      <component glyphName="T" x="0" y="0" flags="0x400"/>
    </TTGlyph>
    <TTGlyph name="Tbar" xMin="34" yMin="0" xMax="414" yMax="640">
      <contour>
        <pt x="270" y="254" on="1"/>
        <pt x="270" y="0" on="1"/>
        <pt x="178" y="0" on="1"/>
        <pt x="178" y="254" on="1"/>
        <pt x="79" y="254" on="1"/>
        <pt x="79" y="322" on="1"/>
        <pt x="178" y="322" on="1"/>
        <pt x="178" y="568" on="1"/>
        <pt x="34" y="568" on="1"/>
        <pt x="34" y="640" on="1"/>
        <pt x="414" y="640" on="1"/>
        <pt x="414" y="568" on="1"/>
        <pt x="270" y="568" on="1"/>
        <pt x="270" y="322" on="1"/>
        <pt x="369" y="322" on="1"/>
        <pt x="369" y="254" on="1"/>
      </contour>
    </TTGlyph>
    <TTGlyph name="Tcaron" xMin="34" yMin="0" xMax="414" yMax="842">
      <component glyphName="T" x="0" y="0" flags="0x400"/>
      <component glyphName="uni030C.case" x="0" y="0" flags="0x0"/>
    </TTGlyph>
    <TTGlyph name="Theta" xMin="32" yMin="-10" xMax="416" yMax="650">
      <contour>
        <pt x="32" y="-10" on="0"/>
        <pt x="32" y="319" on="1"/>
        <pt x="32" y="486" on="0"/>
        <pt x="127" y="650" on="0"/>
        <pt x="224" y="650" on="1"/>
        <pt x="323" y="650" on="0"/>
        <pt x="416" y="487" on="0"/>
        <pt x="416" y="319" on="1"/>
        <pt x="416" y="154" on="0"/>
        <pt x="323" y="-10" on="0"/>
        <pt x="224" y="-10" on="1"/>
      </contour>
      <contour>
        <pt x="270" y="64" on="0"/>
        <pt x="314" y="151" on="0"/>
        <pt x="319" y="252" on="1"/>
        <pt x="129" y="252" on="1"/>
        <pt x="134" y="151" on="0"/>
        <pt x="178" y="64" on="0"/>
        <pt x="224" y="64" on="1"/>
      </contour>
      <contour>
        <pt x="320" y="324" on="1"/>
        <pt x="320" y="416" on="0"/>
        <pt x="301" y="526" on="0"/>
        <pt x="259" y="576" on="0"/>
        <pt x="224" y="576" on="1"/>
        <pt x="189" y="576" on="0"/>
        <pt x="147" y="526" on="0"/>
        <pt x="128" y="416" on="0"/>
        <pt x="128" y="324" on="1"/>
      </contour>
    </TTGlyph>
    <TTGlyph name="Thorn" xMin="55" yMin="0" xMax="406" yMax="640">
      <contour>
        <pt x="304" y="516" on="0"/>
        <pt x="406" y="412" on="0"/>
        <pt x="406" y="318" on="1"/>
        <pt x="406" y="224" on="0"/>
        <pt x="304" y="124" on="0"/>
        <pt x="217" y="124" on="1"/>
        <pt x="147" y="124" on="1"/>
        <pt x="147" y="0" on="1"/>
        <pt x="55" y="0" on="1"/>
        <pt x="55" y="640" on="1"/>
        <pt x="147" y="640" on="1"/>
        <pt x="147" y="516" on="1"/>
        <pt x="217" y="516" on="1"/>
      </contour>
      <contour>
        <pt x="264" y="196" on="0"/>
        <pt x="312" y="258" on="0"/>
        <pt x="312" y="318" on="1"/>
        <pt x="312" y="381" on="0"/>
        <pt x="263" y="444" on="0"/>
        <pt x="201" y="444" on="1"/>
        <pt x="147" y="444" on="1"/>
        <pt x="147" y="196" on="1"/>
        <pt x="201" y="196" on="1"/>
      </contour>
    </TTGlyph>
    <TTGlyph name="U" xMin="55" yMin="-8" xMax="393" yMax="640">
      <contour>
        <pt x="147" y="640" on="1"/>
        <pt x="147" y="176" on="1"/>
        <pt x="147" y="119" on="0"/>
        <pt x="179" y="64" on="0"/>
        <pt x="224" y="64" on="1"/>
        <pt x="267" y="64" on="0"/>
        <pt x="301" y="120" on="0"/>
        <pt x="301" y="176" on="1"/>
        <pt x="301" y="640" on="1"/>
        <pt x="393" y="640" on="1"/>
        <pt x="393" y="180" on="1"/>
        <pt x="393" y="83" on="0"/>
        <pt x="303" y="-8" on="0"/>
        <pt x="224" y="-8" on="1"/>
        <pt x="145" y="-8" on="0"/>
        <pt x="55" y="83" on="0"/>
        <pt x="55" y="180" on="1"/>
        <pt x="55" y="640" on="1"/>
      </contour>
    </TTGlyph>
    <TTGlyph name="U.short" xMin="55" yMin="-8" xMax="393" yMax="576">
      <contour>
        <pt x="147" y="576" on="1"/>
        <pt x="147" y="176" on="1"/>
        <pt x="147" y="119" on="0"/>
        <pt x="179" y="64" on="0"/>
        <pt x="224" y="64" on="1"/>
        <pt x="267" y="64" on="0"/>
        <pt x="301" y="120" on="0"/>
        <pt x="301" y="176" on="1"/>
        <pt x="301" y="576" on="1"/>
        <pt x="393" y="576" on="1"/>
        <pt x="393" y="180" on="1"/>
        <pt x="393" y="83" on="0"/>
        <pt x="303" y="-8" on="0"/>
        <pt x="224" y="-8" on="1"/>
        <pt x="145" y="-8" on="0"/>
        <pt x="55" y="83" on="0"/>
        <pt x="55" y="180" on="1"/>
        <pt x="55" y="576" on="1"/>
      </contour>
    </TTGlyph>
    <TTGlyph name="U.sups" xMin="128" yMin="320" xMax="320" yMax="640">
      <contour>
        <pt x="192" y="640" on="1"/>
        <pt x="192" y="384" on="1"/>
        <pt x="128" y="384" on="1"/>
        <pt x="128" y="640" on="1"/>
      </contour>
      <contour>
        <pt x="256" y="384" on="1"/>
        <pt x="256" y="640" on="1"/>
        <pt x="320" y="640" on="1"/>
        <pt x="320" y="320" on="1"/>
        <pt x="192" y="320" on="1"/>
        <pt x="192" y="384" on="1"/>
      </contour>
    </TTGlyph>
    <TTGlyph name="Uacute" xMin="55" yMin="-8" xMax="393" yMax="844">
      <component glyphName="U" x="0" y="0" flags="0x400"/>
      <component glyphName="acutecomb.case" x="0" y="0" flags="0x0"/>
    </TTGlyph>
    <TTGlyph name="Ubreve" xMin="55" yMin="-8" xMax="393" yMax="841">
      <component glyphName="U" x="0" y="0" flags="0x400"/>
      <component glyphName="uni0306.case" x="0" y="0" flags="0x0"/>
    </TTGlyph>
    <TTGlyph name="Ucircumflex" xMin="55" yMin="-8" xMax="393" yMax="842">
      <component glyphName="U" x="0" y="0" flags="0x400"/>
      <component glyphName="uni0302.case" x="0" y="0" flags="0x0"/>
    </TTGlyph>
    <TTGlyph name="Udieresis" xMin="55" yMin="-8" xMax="393" yMax="823">
      <component glyphName="U" x="0" y="0" flags="0x400"/>
      <component glyphName="uni0308.case" x="0" y="0" flags="0x0"/>
    </TTGlyph>
    <TTGlyph name="Ugrave" xMin="55" yMin="-8" xMax="393" yMax="844">
      <component glyphName="U" x="0" y="0" flags="0x400"/>
      <component glyphName="gravecomb.case" x="0" y="0" flags="0x0"/>
    </TTGlyph>
    <TTGlyph name="Uhorn" xMin="55" yMin="-8" xMax="474" yMax="772">
      <component glyphName="U" x="0" y="0" flags="0x400"/>
      <component glyphName="uni031B.case" x="0" y="0" flags="0x0"/>
    </TTGlyph>
    <TTGlyph name="Uhorn.short" xMin="55" yMin="-8" xMax="474" yMax="708">
      <component glyphName="U.short" x="0" y="0" flags="0x400"/>
      <component glyphName="uni031B.case" x="0" y="-64" flags="0x4"/>
    </TTGlyph>
    <TTGlyph name="Uhungarumlaut" xMin="55" yMin="-8" xMax="422" yMax="844">
      <component glyphName="U" x="0" y="0" flags="0x400"/>
      <component glyphName="uni030B.case" x="0" y="0" flags="0x0"/>
    </TTGlyph>
    <TTGlyph name="Umacron" xMin="55" yMin="-8" xMax="393" yMax="773">
      <component glyphName="U" x="0" y="0" flags="0x400"/>
      <component glyphName="uni0304.case" x="0" y="0" flags="0x0"/>
    </TTGlyph>
    <TTGlyph name="Uogonek" xMin="55" yMin="-197" xMax="393" yMax="640">
      <component glyphName="U" x="0" y="0" flags="0x400"/>
      <component glyphName="uni0328" x="-104" y="0" flags="0x0"/>
    </TTGlyph>
    <TTGlyph name="Upsilon" xMin="20" yMin="0" xMax="428" yMax="640">
      <contour>
        <pt x="188" y="440" on="0"/>
        <pt x="20" y="640" on="1"/>
        <pt x="114" y="640" on="1"/>
        <pt x="195" y="524" on="0"/>
        <pt x="224" y="368" on="1"/>
        <pt x="253" y="524" on="0"/>
        <pt x="334" y="640" on="1"/>
        <pt x="428" y="640" on="1"/>
        <pt x="260" y="438" on="0"/>
        <pt x="260" y="170" on="1"/>
        <pt x="260" y="0" on="1"/>
        <pt x="188" y="0" on="1"/>
        <pt x="188" y="170" on="1"/>
      </contour>
    </TTGlyph>
    <TTGlyph name="Upsilondieresis" xMin="20" yMin="0" xMax="428" yMax="823">
      <component glyphName="Upsilon" x="0" y="0" flags="0x400"/>
      <component glyphName="uni0308.case" x="0" y="0" flags="0x0"/>
    </TTGlyph>
    <TTGlyph name="Upsilontonos" xMin="-76" yMin="0" xMax="428" yMax="704">
      <component glyphName="Upsilon" x="0" y="0" flags="0x400"/>
      <component glyphName="tonos" x="-256" y="0" flags="0x0"/>
    </TTGlyph>
    <TTGlyph name="Uring" xMin="55" yMin="-8" xMax="393" yMax="830">
      <component glyphName="U.short" x="0" y="0" flags="0x400"/>
      <component glyphName="uni030A.case" x="0" y="0" flags="0x0"/>
    </TTGlyph>
    <TTGlyph name="Utilde" xMin="55" yMin="-8" xMax="393" yMax="840">
      <component glyphName="U" x="0" y="0" flags="0x400"/>
      <component glyphName="tildecomb.case" x="0" y="0" flags="0x0"/>
    </TTGlyph>
    <TTGlyph name="V" xMin="30" yMin="-1" xMax="418" yMax="640">
      <contour>
        <pt x="123" y="120" on="0"/>
        <pt x="45" y="453" on="0"/>
        <pt x="30" y="640" on="1"/>
        <pt x="125" y="640" on="1"/>
        <pt x="152" y="315" on="0"/>
        <pt x="224" y="104" on="1"/>
        <pt x="260" y="206" on="0"/>
        <pt x="310" y="479" on="0"/>
        <pt x="323" y="640" on="1"/>
        <pt x="418" y="640" on="1"/>
        <pt x="403" y="453" on="0"/>
        <pt x="326" y="121" on="0"/>
        <pt x="266" y="-1" on="1"/>
        <pt x="182" y="-1" on="1"/>
      </contour>
    </TTGlyph>
    <TTGlyph name="V.sups" xMin="106" yMin="320" xMax="341" yMax="640">
      <contour>
        <pt x="184" y="515" on="0"/>
        <pt x="224" y="384" on="1"/>
        <pt x="264" y="518" on="0"/>
        <pt x="280" y="640" on="1"/>
        <pt x="341" y="640" on="1"/>
        <pt x="320" y="477" on="0"/>
        <pt x="252" y="320" on="1"/>
        <pt x="196" y="320" on="1"/>
        <pt x="126" y="486" on="0"/>
        <pt x="106" y="640" on="1"/>
        <pt x="168" y="640" on="1"/>
      </contour>
    </TTGlyph>
    <TTGlyph name="W" xMin="32" yMin="0" xMax="416" yMax="640">
      <contour>
        <pt x="64" y="151" on="0"/>
        <pt x="34" y="441" on="0"/>
        <pt x="32" y="640" on="1"/>
        <pt x="124" y="640" on="1"/>
        <pt x="126" y="453" on="0"/>
        <pt x="137" y="221" on="0"/>
        <pt x="154" y="106" on="1"/>
        <pt x="187" y="274" on="0"/>
        <pt x="187" y="448" on="1"/>
        <pt x="261" y="448" on="1"/>
        <pt x="261" y="274" on="0"/>
        <pt x="294" y="106" on="1"/>
        <pt x="311" y="221" on="0"/>
        <pt x="322" y="453" on="0"/>
        <pt x="324" y="640" on="1"/>
        <pt x="416" y="640" on="1"/>
        <pt x="414" y="441" on="0"/>
        <pt x="384" y="151" on="0"/>
        <pt x="346" y="0" on="1"/>
        <pt x="265" y="0" on="1"/>
        <pt x="234" y="91" on="0"/>
        <pt x="224" y="192" on="1"/>
        <pt x="213" y="86" on="0"/>
        <pt x="184" y="0" on="1"/>
        <pt x="102" y="0" on="1"/>
      </contour>
    </TTGlyph>
    <TTGlyph name="W.sups" xMin="128" yMin="320" xMax="320" yMax="640">
      <contour>
        <pt x="192" y="640" on="1"/>
        <pt x="192" y="576" on="1"/>
        <pt x="256" y="576" on="1"/>
        <pt x="256" y="640" on="1"/>
        <pt x="320" y="640" on="1"/>
        <pt x="320" y="320" on="1"/>
        <pt x="128" y="320" on="1"/>
        <pt x="128" y="640" on="1"/>
      </contour>
    </TTGlyph>
    <TTGlyph name="Wacute" xMin="32" yMin="0" xMax="416" yMax="844">
      <component glyphName="W" x="0" y="0" flags="0x400"/>
      <component glyphName="acutecomb.case" x="0" y="0" flags="0x0"/>
    </TTGlyph>
    <TTGlyph name="Wcircumflex" xMin="32" yMin="0" xMax="416" yMax="842">
      <component glyphName="W" x="0" y="0" flags="0x400"/>
      <component glyphName="uni0302.case" x="0" y="0" flags="0x0"/>
    </TTGlyph>
    <TTGlyph name="Wdieresis" xMin="32" yMin="0" xMax="416" yMax="823">
      <component glyphName="W" x="0" y="0" flags="0x400"/>
      <component glyphName="uni0308.case" x="0" y="0" flags="0x0"/>
    </TTGlyph>
    <TTGlyph name="Wgrave" xMin="32" yMin="0" xMax="416" yMax="844">
      <component glyphName="W" x="0" y="0" flags="0x400"/>
      <component glyphName="gravecomb.case" x="0" y="0" flags="0x0"/>
    </TTGlyph>
    <TTGlyph name="X" xMin="42" yMin="0" xMax="405" yMax="640">
      <contour>
        <pt x="59" y="95" on="0"/>
        <pt x="113" y="229" on="0"/>
        <pt x="165" y="300" on="1"/>
        <pt x="112" y="365" on="0"/>
        <pt x="63" y="517" on="0"/>
        <pt x="51" y="640" on="1"/>
        <pt x="143" y="640" on="1"/>
        <pt x="153" y="531" on="0"/>
        <pt x="188" y="408" on="0"/>
        <pt x="224" y="359" on="1"/>
        <pt x="261" y="407" on="0"/>
        <pt x="296" y="532" on="0"/>
        <pt x="305" y="640" on="1"/>
        <pt x="397" y="640" on="1"/>
        <pt x="386" y="518" on="0"/>
        <pt x="336" y="366" on="0"/>
        <pt x="283" y="300" on="1"/>
        <pt x="335" y="229" on="0"/>
        <pt x="388" y="96" on="0"/>
        <pt x="405" y="0" on="1"/>
        <pt x="311" y="0" on="1"/>
        <pt x="294" y="86" on="0"/>
        <pt x="258" y="189" on="0"/>
        <pt x="224" y="239" on="1"/>
        <pt x="190" y="189" on="0"/>
        <pt x="152" y="85" on="0"/>
        <pt x="136" y="0" on="1"/>
        <pt x="42" y="0" on="1"/>
      </contour>
    </TTGlyph>
    <TTGlyph name="X.sups" xMin="128" yMin="320" xMax="320" yMax="640">
      <contour>
        <pt x="192" y="640" on="1"/>
        <pt x="192" y="512" on="1"/>
        <pt x="128" y="512" on="1"/>
        <pt x="128" y="640" on="1"/>
      </contour>
      <contour>
        <pt x="256" y="512" on="1"/>
        <pt x="256" y="448" on="1"/>
        <pt x="192" y="448" on="1"/>
        <pt x="192" y="512" on="1"/>
      </contour>
      <contour>
        <pt x="192" y="448" on="1"/>
        <pt x="192" y="320" on="1"/>
        <pt x="128" y="320" on="1"/>
        <pt x="128" y="448" on="1"/>
      </contour>
      <contour>
        <pt x="320" y="448" on="1"/>
        <pt x="320" y="320" on="1"/>
        <pt x="256" y="320" on="1"/>
        <pt x="256" y="448" on="1"/>
      </contour>
      <contour>
        <pt x="320" y="640" on="1"/>
        <pt x="320" y="512" on="1"/>
        <pt x="256" y="512" on="1"/>
        <pt x="256" y="640" on="1"/>
      </contour>
    </TTGlyph>
    <TTGlyph name="Xi" xMin="50" yMin="0" xMax="398" yMax="640">
      <contour>
        <pt x="393" y="640" on="1"/>
        <pt x="393" y="560" on="1"/>
        <pt x="55" y="560" on="1"/>
        <pt x="55" y="640" on="1"/>
      </contour>
      <contour>
        <pt x="398" y="80" on="1"/>
        <pt x="398" y="0" on="1"/>
        <pt x="50" y="0" on="1"/>
        <pt x="50" y="80" on="1"/>
      </contour>
      <contour>
        <pt x="344" y="328" on="1"/>
        <pt x="344" y="248" on="1"/>
        <pt x="104" y="248" on="1"/>
        <pt x="104" y="328" on="1"/>
      </contour>
    </TTGlyph>
    <TTGlyph name="Y" xMin="31" yMin="0" xMax="417" yMax="640">
      <contour>
        <pt x="178" y="202" on="1"/>
        <pt x="118" y="285" on="0"/>
        <pt x="47" y="498" on="0"/>
        <pt x="31" y="640" on="1"/>
        <pt x="123" y="640" on="1"/>
        <pt x="134" y="521" on="0"/>
        <pt x="178" y="354" on="0"/>
        <pt x="224" y="266" on="1"/>
        <pt x="270" y="354" on="0"/>
        <pt x="315" y="521" on="0"/>
        <pt x="325" y="640" on="1"/>
        <pt x="417" y="640" on="1"/>
        <pt x="402" y="498" on="0"/>
        <pt x="330" y="285" on="0"/>
        <pt x="270" y="202" on="1"/>
        <pt x="270" y="0" on="1"/>
        <pt x="178" y="0" on="1"/>
      </contour>
    </TTGlyph>
    <TTGlyph name="Y.short" xMin="31" yMin="0" xMax="417" yMax="576">
      <contour>
        <pt x="178" y="170" on="1"/>
        <pt x="118" y="247" on="0"/>
        <pt x="47" y="444" on="0"/>
        <pt x="31" y="576" on="1"/>
        <pt x="123" y="576" on="1"/>
        <pt x="133" y="465" on="0"/>
        <pt x="178" y="312" on="0"/>
        <pt x="224" y="229" on="1"/>
        <pt x="271" y="312" on="0"/>
        <pt x="315" y="465" on="0"/>
        <pt x="325" y="576" on="1"/>
        <pt x="417" y="576" on="1"/>
        <pt x="402" y="444" on="0"/>
        <pt x="330" y="247" on="0"/>
        <pt x="270" y="170" on="1"/>
        <pt x="270" y="0" on="1"/>
        <pt x="178" y="0" on="1"/>
      </contour>
    </TTGlyph>
    <TTGlyph name="Y.sups" xMin="128" yMin="320" xMax="320" yMax="640">
      <contour>
        <pt x="192" y="640" on="1"/>
        <pt x="192" y="512" on="1"/>
        <pt x="256" y="512" on="1"/>
        <pt x="256" y="640" on="1"/>
        <pt x="320" y="640" on="1"/>
        <pt x="320" y="384" on="1"/>
        <pt x="256" y="384" on="1"/>
        <pt x="256" y="448" on="1"/>
        <pt x="128" y="448" on="1"/>
        <pt x="128" y="640" on="1"/>
      </contour>
      <contour>
        <pt x="256" y="320" on="1"/>
        <pt x="128" y="320" on="1"/>
        <pt x="128" y="384" on="1"/>
        <pt x="256" y="384" on="1"/>
      </contour>
    </TTGlyph>
    <TTGlyph name="Yacute" xMin="31" yMin="0" xMax="417" yMax="844">
      <component glyphName="Y" x="0" y="0" flags="0x400"/>
      <component glyphName="acutecomb.case" x="0" y="0" flags="0x0"/>
    </TTGlyph>
    <TTGlyph name="Ycircumflex" xMin="31" yMin="0" xMax="417" yMax="842">
      <component glyphName="Y" x="0" y="0" flags="0x400"/>
      <component glyphName="uni0302.case" x="0" y="0" flags="0x0"/>
    </TTGlyph>
    <TTGlyph name="Ydieresis" xMin="31" yMin="0" xMax="417" yMax="823">
      <component glyphName="Y" x="0" y="0" flags="0x400"/>
      <component glyphName="uni0308.case" x="0" y="0" flags="0x0"/>
    </TTGlyph>
    <TTGlyph name="Ygrave" xMin="31" yMin="0" xMax="417" yMax="844">
      <component glyphName="Y" x="0" y="0" flags="0x400"/>
      <component glyphName="gravecomb.case" x="0" y="0" flags="0x0"/>
    </TTGlyph>
    <TTGlyph name="Z" xMin="50" yMin="0" xMax="393" yMax="640">
      <contour>
        <pt x="50" y="56" on="1"/>
        <pt x="288" y="568" on="1"/>
        <pt x="62" y="568" on="1"/>
        <pt x="62" y="640" on="1"/>
        <pt x="393" y="640" on="1"/>
        <pt x="393" y="584" on="1"/>
        <pt x="155" y="72" on="1"/>
        <pt x="393" y="72" on="1"/>
        <pt x="393" y="0" on="1"/>
        <pt x="50" y="0" on="1"/>
      </contour>
    </TTGlyph>
    <TTGlyph name="Z.sups" xMin="122" yMin="320" xMax="317" yMax="640">
      <contour>
        <pt x="122" y="368" on="1"/>
        <pt x="243" y="586" on="1"/>
        <pt x="126" y="586" on="1"/>
        <pt x="126" y="640" on="1"/>
        <pt x="317" y="640" on="1"/>
        <pt x="317" y="592" on="1"/>
        <pt x="196" y="374" on="1"/>
        <pt x="317" y="374" on="1"/>
        <pt x="317" y="320" on="1"/>
        <pt x="122" y="320" on="1"/>
      </contour>
    </TTGlyph>
    <TTGlyph name="Zacute" xMin="50" yMin="0" xMax="393" yMax="844">
      <component glyphName="Z" x="0" y="0" flags="0x400"/>
      <component glyphName="acutecomb.case" x="0" y="0" flags="0x0"/>
    </TTGlyph>
    <TTGlyph name="Zcaron" xMin="50" yMin="0" xMax="393" yMax="842">
      <component glyphName="Z" x="0" y="0" flags="0x400"/>
      <component glyphName="uni030C.case" x="0" y="0" flags="0x0"/>
    </TTGlyph>
    <TTGlyph name="Zdotaccent" xMin="50" yMin="0" xMax="393" yMax="846">
      <component glyphName="Z" x="0" y="0" flags="0x400"/>
      <component glyphName="uni0307" x="0" y="192" flags="0x4"/>
    </TTGlyph>
    <TTGlyph name="Zeta" xMin="50" yMin="0" xMax="393" yMax="640">
      <component glyphName="Z" x="0" y="0" flags="0x400"/>
    </TTGlyph>
    <TTGlyph name="_part.slash.comp" xMin="66" yMin="142" xMax="384" yMax="397">
      <contour>
        <pt x="343" y="397" on="1"/>
        <pt x="384" y="339" on="1"/>
        <pt x="107" y="142" on="1"/>
        <pt x="66" y="200" on="1"/>
      </contour>
    </TTGlyph>
    <TTGlyph name="a" xMin="44" yMin="-4" xMax="386" yMax="454">
      <contour>
        <pt x="292" y="337" on="0"/>
        <pt x="254" y="377" on="0"/>
        <pt x="206" y="377" on="1"/>
        <pt x="154" y="377" on="0"/>
        <pt x="84" y="353" on="1"/>
        <pt x="65" y="421" on="1"/>
        <pt x="145" y="454" on="0"/>
        <pt x="221" y="454" on="1"/>
        <pt x="302" y="454" on="0"/>
        <pt x="384" y="379" on="0"/>
        <pt x="384" y="299" on="1"/>
        <pt x="384" y="64" on="1"/>
        <pt x="386" y="0" on="1"/>
        <pt x="303" y="0" on="1"/>
        <pt x="299" y="34" on="1"/>
        <pt x="234" y="-4" on="0"/>
        <pt x="173" y="-4" on="1"/>
        <pt x="116" y="-4" on="0"/>
        <pt x="44" y="61" on="0"/>
        <pt x="44" y="121" on="1"/>
        <pt x="44" y="192" on="0"/>
        <pt x="161" y="266" on="0"/>
        <pt x="292" y="271" on="1"/>
        <pt x="292" y="285" on="1"/>
      </contour>
      <contour>
        <pt x="140" y="99" on="0"/>
        <pt x="169" y="68" on="0"/>
        <pt x="199" y="68" on="1"/>
        <pt x="238" y="68" on="0"/>
        <pt x="292" y="99" on="1"/>
        <pt x="292" y="206" on="1"/>
        <pt x="210" y="202" on="0"/>
        <pt x="140" y="162" on="0"/>
        <pt x="140" y="126" on="1"/>
      </contour>
    </TTGlyph>
    <TTGlyph name="aacute" xMin="44" yMin="-4" xMax="386" yMax="704">
      <component glyphName="a" x="0" y="0" flags="0x400"/>
      <component glyphName="acutecomb" x="2" y="0" flags="0x0"/>
    </TTGlyph>
    <TTGlyph name="abreve" xMin="44" yMin="-4" xMax="386" yMax="649">
      <component glyphName="a" x="0" y="0" flags="0x400"/>
      <component glyphName="uni0306" x="2" y="0" flags="0x0"/>
    </TTGlyph>
    <TTGlyph name="acircumflex" xMin="44" yMin="-4" xMax="386" yMax="650">
      <component glyphName="a" x="0" y="0" flags="0x400"/>
      <component glyphName="uni0302" x="2" y="0" flags="0x0"/>
    </TTGlyph>
    <TTGlyph name="acute" xMin="139" yMin="384" xMax="323" yMax="640">
      <contour>
        <pt x="139" y="384" on="1"/>
        <pt x="205" y="640" on="1"/>
        <pt x="323" y="640" on="1"/>
        <pt x="231" y="384" on="1"/>
      </contour>
    </TTGlyph>
    <TTGlyph name="acutecomb" xMin="186" yMin="512" xMax="358" yMax="704">
      <contour>
        <pt x="225" y="704" on="1"/>
        <pt x="358" y="704" on="1"/>
        <pt x="262" y="512" on="1"/>
        <pt x="186" y="512" on="1"/>
      </contour>
    </TTGlyph>
    <TTGlyph name="acutecomb.alt" xMin="186" yMin="510" xMax="358" yMax="652">
      <contour>
        <pt x="225" y="652" on="1"/>
        <pt x="358" y="652" on="1"/>
        <pt x="262" y="510" on="1"/>
        <pt x="186" y="510" on="1"/>
      </contour>
    </TTGlyph>
    <TTGlyph name="acutecomb.case" xMin="186" yMin="702" xMax="358" yMax="844">
      <component glyphName="acutecomb.alt" x="0" y="192" flags="0x404"/>
    </TTGlyph>
    <TTGlyph name="adieresis" xMin="44" yMin="-4" xMax="386" yMax="653">
      <component glyphName="a" x="0" y="0" flags="0x400"/>
      <component glyphName="uni0308" x="2" y="0" flags="0x0"/>
    </TTGlyph>
    <TTGlyph name="ae" xMin="-18" yMin="-9" xMax="468" yMax="459">
      <contour>
        <pt x="265" y="-9" on="0"/>
        <pt x="221" y="41" on="1"/>
        <pt x="192" y="17" on="0"/>
        <pt x="136" y="-8" on="0"/>
        <pt x="103" y="-8" on="1"/>
        <pt x="47" y="-8" on="0"/>
        <pt x="-18" y="59" on="0"/>
        <pt x="-18" y="124" on="1"/>
        <pt x="-18" y="191" on="0"/>
        <pt x="70" y="262" on="0"/>
        <pt x="171" y="266" on="1"/>
        <pt x="171" y="285" on="1"/>
        <pt x="171" y="339" on="0"/>
        <pt x="140" y="382" on="0"/>
        <pt x="103" y="382" on="1"/>
        <pt x="61" y="382" on="0"/>
        <pt x="13" y="363" on="1"/>
        <pt x="-6" y="428" on="1"/>
        <pt x="62" y="455" on="0"/>
        <pt x="113" y="455" on="1"/>
        <pt x="193" y="455" on="0"/>
        <pt x="225" y="404" on="1"/>
        <pt x="260" y="459" on="0"/>
        <pt x="329" y="459" on="1"/>
        <pt x="402" y="459" on="0"/>
        <pt x="468" y="354" on="0"/>
        <pt x="468" y="254" on="1"/>
        <pt x="468" y="216" on="0"/>
        <pt x="466" y="195" on="1"/>
        <pt x="266" y="195" on="1"/>
        <pt x="268" y="122" on="0"/>
        <pt x="307" y="63" on="0"/>
        <pt x="352" y="63" on="1"/>
        <pt x="388" y="63" on="0"/>
        <pt x="434" y="80" on="1"/>
        <pt x="451" y="14" on="1"/>
        <pt x="398" y="-9" on="0"/>
        <pt x="340" y="-9" on="1"/>
      </contour>
      <contour>
        <pt x="151" y="64" on="0"/>
        <pt x="189" y="97" on="1"/>
        <pt x="174" y="133" on="0"/>
        <pt x="171" y="196" on="1"/>
        <pt x="119" y="192" on="0"/>
        <pt x="76" y="158" on="0"/>
        <pt x="76" y="126" on="1"/>
        <pt x="76" y="95" on="0"/>
        <pt x="101" y="64" on="0"/>
        <pt x="121" y="64" on="1"/>
      </contour>
      <contour>
        <pt x="372" y="330" on="0"/>
        <pt x="350" y="387" on="0"/>
        <pt x="324" y="387" on="1"/>
        <pt x="297" y="387" on="0"/>
        <pt x="270" y="331" on="0"/>
        <pt x="267" y="265" on="1"/>
        <pt x="372" y="265" on="1"/>
      </contour>
    </TTGlyph>
    <TTGlyph name="aeacute" xMin="-18" yMin="-9" xMax="468" yMax="704">
      <component glyphName="ae" x="0" y="0" flags="0x400"/>
      <component glyphName="acutecomb" x="0" y="0" flags="0x0"/>
    </TTGlyph>
    <TTGlyph name="agrave" xMin="44" yMin="-4" xMax="386" yMax="704">
      <component glyphName="a" x="0" y="0" flags="0x400"/>
      <component glyphName="gravecomb" x="2" y="0" flags="0x0"/>
    </TTGlyph>
    <TTGlyph name="alpha" xMin="34" yMin="-8" xMax="435" yMax="456">
      <contour>
        <pt x="322" y="-6" on="0"/>
        <pt x="307" y="36" on="1"/>
        <pt x="267" y="-8" on="0"/>
        <pt x="199" y="-8" on="1"/>
        <pt x="134" y="-8" on="0"/>
        <pt x="94" y="32" on="1"/>
        <pt x="34" y="92" on="0"/>
        <pt x="34" y="224" on="1"/>
        <pt x="34" y="286" on="0"/>
        <pt x="63" y="384" on="0"/>
        <pt x="93" y="414" on="1"/>
        <pt x="135" y="456" on="0"/>
        <pt x="200" y="456" on="1"/>
        <pt x="269" y="456" on="0"/>
        <pt x="309" y="412" on="1"/>
        <pt x="315" y="448" on="1"/>
        <pt x="390" y="448" on="1"/>
        <pt x="388" y="384" on="1"/>
        <pt x="388" y="91" on="1"/>
        <pt x="388" y="66" on="0"/>
        <pt x="413" y="66" on="1"/>
        <pt x="424" y="67" on="0"/>
        <pt x="434" y="68" on="1"/>
        <pt x="435" y="1" on="1"/>
        <pt x="405" y="-6" on="0"/>
        <pt x="377" y="-6" on="1"/>
      </contour>
      <contour>
        <pt x="132" y="166" on="0"/>
        <pt x="147" y="98" on="0"/>
        <pt x="163" y="82" on="1"/>
        <pt x="180" y="65" on="0"/>
        <pt x="213" y="65" on="1"/>
        <pt x="267" y="65" on="0"/>
        <pt x="296" y="104" on="1"/>
        <pt x="296" y="342" on="1"/>
        <pt x="267" y="383" on="0"/>
        <pt x="213" y="383" on="1"/>
        <pt x="180" y="383" on="0"/>
        <pt x="162" y="365" on="1"/>
        <pt x="146" y="349" on="0"/>
        <pt x="132" y="283" on="0"/>
        <pt x="132" y="224" on="1"/>
      </contour>
    </TTGlyph>
    <TTGlyph name="alphatonos" xMin="34" yMin="-8" xMax="435" yMax="704">
      <component glyphName="alpha" x="0" y="0" flags="0x400"/>
      <component glyphName="tonos" x="0" y="0" flags="0x0"/>
    </TTGlyph>
    <TTGlyph name="amacron" xMin="44" yMin="-4" xMax="386" yMax="632">
      <component glyphName="a" x="0" y="0" flags="0x400"/>
      <component glyphName="uni0304" x="2" y="0" flags="0x0"/>
    </TTGlyph>
    <TTGlyph name="ampersand" xMin="30" yMin="-10" xMax="433" yMax="542">
      <contour>
        <pt x="259" y="470" on="0"/>
        <pt x="224" y="470" on="1"/>
        <pt x="177" y="470" on="0"/>
        <pt x="137" y="428" on="0"/>
        <pt x="137" y="397" on="1"/>
        <pt x="137" y="363" on="0"/>
        <pt x="181" y="324" on="0"/>
        <pt x="238" y="324" on="1"/>
        <pt x="433" y="324" on="1"/>
        <pt x="433" y="252" on="1"/>
        <pt x="373" y="252" on="1"/>
        <pt x="373" y="18" on="1"/>
        <pt x="334" y="5" on="0"/>
        <pt x="245" y="-10" on="0"/>
        <pt x="208" y="-10" on="1"/>
        <pt x="116" y="-10" on="0"/>
        <pt x="30" y="79" on="0"/>
        <pt x="30" y="147" on="1"/>
        <pt x="30" y="188" on="0"/>
        <pt x="70" y="263" on="0"/>
        <pt x="116" y="288" on="1"/>
        <pt x="80" y="305" on="0"/>
        <pt x="45" y="364" on="0"/>
        <pt x="45" y="400" on="1"/>
        <pt x="45" y="463" on="0"/>
        <pt x="133" y="542" on="0"/>
        <pt x="216" y="542" on="1"/>
        <pt x="272" y="542" on="0"/>
        <pt x="326" y="528" on="1"/>
        <pt x="313" y="460" on="1"/>
      </contour>
      <contour>
        <pt x="123" y="62" on="0"/>
        <pt x="207" y="62" on="1"/>
        <pt x="246" y="62" on="0"/>
        <pt x="281" y="69" on="1"/>
        <pt x="281" y="252" on="1"/>
        <pt x="249" y="252" on="1"/>
        <pt x="179" y="252" on="0"/>
        <pt x="123" y="194" on="0"/>
        <pt x="123" y="150" on="1"/>
      </contour>
    </TTGlyph>
    <TTGlyph name="angle" xMin="64" yMin="64" xMax="384" yMax="522">
      <contour>
        <pt x="64" y="64" on="1"/>
        <pt x="64" y="128" on="1"/>
        <pt x="258" y="522" on="1"/>
        <pt x="316" y="494" on="1"/>
        <pt x="136" y="128" on="1"/>
        <pt x="384" y="128" on="1"/>
        <pt x="384" y="64" on="1"/>
      </contour>
    </TTGlyph>
    <TTGlyph name="anoteleia" xMin="150" yMin="310" xMax="298" yMax="458">
      <component glyphName="period" x="32" y="320" flags="0x404"/>
    </TTGlyph>
    <TTGlyph name="aogonek" xMin="44" yMin="-197" xMax="406" yMax="454">
      <component glyphName="a" x="0" y="0" flags="0x400"/>
      <component glyphName="uni0328" x="-2" y="0" flags="0x0"/>
    </TTGlyph>
    <TTGlyph name="approxequal" xMin="24" yMin="133" xMax="424" yMax="443">
      <contour>
        <pt x="281" y="133" on="0"/>
        <pt x="235" y="152" on="0"/>
        <pt x="205" y="170" on="1"/>
        <pt x="183" y="183" on="0"/>
        <pt x="155" y="195" on="0"/>
        <pt x="140" y="195" on="1"/>
        <pt x="100" y="195" on="0"/>
        <pt x="94" y="136" on="1"/>
        <pt x="24" y="141" on="1"/>
        <pt x="27" y="204" on="0"/>
        <pt x="84" y="273" on="0"/>
        <pt x="135" y="273" on="1"/>
        <pt x="167" y="273" on="0"/>
        <pt x="214" y="254" on="0"/>
        <pt x="245" y="236" on="1"/>
        <pt x="265" y="223" on="0"/>
        <pt x="293" y="211" on="0"/>
        <pt x="308" y="211" on="1"/>
        <pt x="348" y="211" on="0"/>
        <pt x="354" y="270" on="1"/>
        <pt x="424" y="265" on="1"/>
        <pt x="421" y="202" on="0"/>
        <pt x="364" y="133" on="0"/>
        <pt x="313" y="133" on="1"/>
      </contour>
      <contour>
        <pt x="281" y="303" on="0"/>
        <pt x="235" y="322" on="0"/>
        <pt x="205" y="340" on="1"/>
        <pt x="183" y="353" on="0"/>
        <pt x="155" y="365" on="0"/>
        <pt x="140" y="365" on="1"/>
        <pt x="100" y="365" on="0"/>
        <pt x="94" y="306" on="1"/>
        <pt x="24" y="311" on="1"/>
        <pt x="27" y="374" on="0"/>
        <pt x="84" y="443" on="0"/>
        <pt x="135" y="443" on="1"/>
        <pt x="167" y="443" on="0"/>
        <pt x="214" y="424" on="0"/>
        <pt x="245" y="406" on="1"/>
        <pt x="265" y="393" on="0"/>
        <pt x="293" y="381" on="0"/>
        <pt x="308" y="381" on="1"/>
        <pt x="348" y="381" on="0"/>
        <pt x="354" y="440" on="1"/>
        <pt x="424" y="435" on="1"/>
        <pt x="421" y="372" on="0"/>
        <pt x="364" y="303" on="0"/>
        <pt x="313" y="303" on="1"/>
      </contour>
    </TTGlyph>
    <TTGlyph name="aring" xMin="44" yMin="-4" xMax="386" yMax="702">
      <component glyphName="a" x="0" y="0" flags="0x400"/>
      <component glyphName="uni030A" x="2" y="0" flags="0x0"/>
    </TTGlyph>
    <TTGlyph name="aringacute" xMin="44" yMin="-4" xMax="386" yMax="876">
      <component glyphName="a" x="0" y="0" flags="0x400"/>
      <component glyphName="uni030A" x="2" y="0" flags="0x0"/>
      <component glyphName="acutecomb.alt" x="2" y="224" flags="0x4"/>
    </TTGlyph>
    <TTGlyph name="arrowboth" xMin="-10" yMin="118" xMax="458" yMax="458">
      <contour>
        <pt x="207" y="162" on="1"/>
        <pt x="169" y="118" on="1"/>
        <pt x="-10" y="266" on="1"/>
        <pt x="-10" y="310" on="1"/>
        <pt x="169" y="458" on="1"/>
        <pt x="207" y="414" on="1"/>
        <pt x="98" y="320" on="1"/>
        <pt x="350" y="320" on="1"/>
        <pt x="241" y="414" on="1"/>
        <pt x="279" y="458" on="1"/>
        <pt x="458" y="310" on="1"/>
        <pt x="458" y="266" on="1"/>
        <pt x="279" y="118" on="1"/>
        <pt x="241" y="162" on="1"/>
        <pt x="350" y="256" on="1"/>
        <pt x="98" y="256" on="1"/>
      </contour>
    </TTGlyph>
    <TTGlyph name="arrowdown" xMin="54" yMin="54" xMax="394" yMax="512">
      <contour>
        <pt x="54" y="233" on="1"/>
        <pt x="98" y="271" on="1"/>
        <pt x="192" y="162" on="1"/>
        <pt x="192" y="512" on="1"/>
        <pt x="256" y="512" on="1"/>
        <pt x="256" y="162" on="1"/>
        <pt x="350" y="271" on="1"/>
        <pt x="394" y="233" on="1"/>
        <pt x="246" y="54" on="1"/>
        <pt x="202" y="54" on="1"/>
      </contour>
    </TTGlyph>
    <TTGlyph name="arrowleft" xMin="-10" yMin="118" xMax="448" yMax="458">
      <contour>
        <pt x="-10" y="266" on="1"/>
        <pt x="-10" y="310" on="1"/>
        <pt x="169" y="458" on="1"/>
        <pt x="207" y="414" on="1"/>
        <pt x="98" y="320" on="1"/>
        <pt x="448" y="320" on="1"/>
        <pt x="448" y="256" on="1"/>
        <pt x="98" y="256" on="1"/>
        <pt x="207" y="162" on="1"/>
        <pt x="169" y="118" on="1"/>
      </contour>
    </TTGlyph>
    <TTGlyph name="arrowright" xMin="0" yMin="118" xMax="458" yMax="458">
      <contour>
        <pt x="241" y="162" on="1"/>
        <pt x="350" y="256" on="1"/>
        <pt x="0" y="256" on="1"/>
        <pt x="0" y="320" on="1"/>
        <pt x="350" y="320" on="1"/>
        <pt x="241" y="414" on="1"/>
        <pt x="279" y="458" on="1"/>
        <pt x="458" y="310" on="1"/>
        <pt x="458" y="266" on="1"/>
        <pt x="279" y="118" on="1"/>
      </contour>
    </TTGlyph>
    <TTGlyph name="arrowup" xMin="54" yMin="64" xMax="394" yMax="522">
      <contour>
        <pt x="98" y="305" on="1"/>
        <pt x="54" y="343" on="1"/>
        <pt x="202" y="522" on="1"/>
        <pt x="246" y="522" on="1"/>
        <pt x="394" y="343" on="1"/>
        <pt x="350" y="305" on="1"/>
        <pt x="256" y="414" on="1"/>
        <pt x="256" y="64" on="1"/>
        <pt x="192" y="64" on="1"/>
        <pt x="192" y="414" on="1"/>
      </contour>
    </TTGlyph>
    <TTGlyph name="arrowupdn" xMin="54" yMin="54" xMax="394" yMax="522">
      <contour>
        <pt x="98" y="305" on="1"/>
        <pt x="54" y="343" on="1"/>
        <pt x="202" y="522" on="1"/>
        <pt x="246" y="522" on="1"/>
        <pt x="394" y="343" on="1"/>
        <pt x="350" y="305" on="1"/>
        <pt x="256" y="414" on="1"/>
        <pt x="256" y="162" on="1"/>
        <pt x="350" y="271" on="1"/>
        <pt x="394" y="233" on="1"/>
        <pt x="246" y="54" on="1"/>
        <pt x="202" y="54" on="1"/>
        <pt x="54" y="233" on="1"/>
        <pt x="98" y="271" on="1"/>
        <pt x="192" y="162" on="1"/>
        <pt x="192" y="414" on="1"/>
      </contour>
    </TTGlyph>
    <TTGlyph name="arrowupdnbse" xMin="54" yMin="0" xMax="394" yMax="522">
      <contour>
        <pt x="194" y="64" on="1"/>
        <pt x="54" y="233" on="1"/>
        <pt x="98" y="271" on="1"/>
        <pt x="192" y="162" on="1"/>
        <pt x="192" y="414" on="1"/>
        <pt x="98" y="305" on="1"/>
        <pt x="54" y="343" on="1"/>
        <pt x="202" y="522" on="1"/>
        <pt x="246" y="522" on="1"/>
        <pt x="394" y="343" on="1"/>
        <pt x="350" y="305" on="1"/>
        <pt x="256" y="414" on="1"/>
        <pt x="256" y="162" on="1"/>
        <pt x="350" y="271" on="1"/>
        <pt x="394" y="233" on="1"/>
        <pt x="254" y="64" on="1"/>
        <pt x="384" y="64" on="1"/>
        <pt x="384" y="0" on="1"/>
        <pt x="64" y="0" on="1"/>
        <pt x="64" y="64" on="1"/>
      </contour>
    </TTGlyph>
    <TTGlyph name="asciicircum" xMin="43" yMin="192" xMax="405" yMax="566">
      <contour>
        <pt x="272" y="566" on="1"/>
        <pt x="405" y="192" on="1"/>
        <pt x="309" y="192" on="1"/>
        <pt x="224" y="459" on="1"/>
        <pt x="139" y="192" on="1"/>
        <pt x="43" y="192" on="1"/>
        <pt x="176" y="566" on="1"/>
      </contour>
    </TTGlyph>
    <TTGlyph name="asciitilde" xMin="-6" yMin="190" xMax="454" yMax="386">
      <contour>
        <pt x="271" y="190" on="0"/>
        <pt x="217" y="227" on="0"/>
        <pt x="191" y="260" on="1"/>
        <pt x="174" y="283" on="0"/>
        <pt x="147" y="305" on="0"/>
        <pt x="127" y="305" on="1"/>
        <pt x="96" y="305" on="0"/>
        <pt x="71" y="257" on="0"/>
        <pt x="66" y="200" on="1"/>
        <pt x="-6" y="205" on="1"/>
        <pt x="-2" y="296" on="0"/>
        <pt x="59" y="386" on="0"/>
        <pt x="127" y="386" on="1"/>
        <pt x="177" y="386" on="0"/>
        <pt x="231" y="349" on="0"/>
        <pt x="258" y="315" on="1"/>
        <pt x="275" y="293" on="0"/>
        <pt x="301" y="271" on="0"/>
        <pt x="321" y="271" on="1"/>
        <pt x="352" y="271" on="0"/>
        <pt x="377" y="318" on="0"/>
        <pt x="382" y="376" on="1"/>
        <pt x="454" y="372" on="1"/>
        <pt x="450" y="280" on="0"/>
        <pt x="389" y="190" on="0"/>
        <pt x="320" y="190" on="1"/>
      </contour>
    </TTGlyph>
    <TTGlyph name="asterisk" xMin="27" yMin="69" xMax="421" yMax="507">
      <contour>
        <pt x="280" y="288" on="1"/>
        <pt x="421" y="183" on="1"/>
        <pt x="362" y="112" on="1"/>
        <pt x="262" y="206" on="1"/>
        <pt x="270" y="69" on="1"/>
        <pt x="178" y="69" on="1"/>
        <pt x="186" y="206" on="1"/>
        <pt x="87" y="113" on="1"/>
        <pt x="27" y="183" on="1"/>
        <pt x="169" y="288" on="1"/>
        <pt x="27" y="394" on="1"/>
        <pt x="87" y="464" on="1"/>
        <pt x="186" y="370" on="1"/>
        <pt x="178" y="507" on="1"/>
        <pt x="270" y="507" on="1"/>
        <pt x="262" y="370" on="1"/>
        <pt x="362" y="464" on="1"/>
        <pt x="421" y="394" on="1"/>
      </contour>
    </TTGlyph>
    <TTGlyph name="at" xMin="38" yMin="-128" xMax="398" yMax="586">
      <contour>
        <pt x="362" y="60" on="0"/>
        <pt x="311" y="60" on="1"/>
        <pt x="240" y="60" on="0"/>
        <pt x="163" y="143" on="0"/>
        <pt x="163" y="219" on="1"/>
        <pt x="163" y="289" on="0"/>
        <pt x="232" y="376" on="0"/>
        <pt x="306" y="391" on="1"/>
        <pt x="304" y="455" on="0"/>
        <pt x="270" y="515" on="0"/>
        <pt x="231" y="515" on="1"/>
        <pt x="193" y="515" on="0"/>
        <pt x="149" y="457" on="0"/>
        <pt x="130" y="331" on="0"/>
        <pt x="130" y="223" on="1"/>
        <pt x="130" y="117" on="0"/>
        <pt x="155" y="-4" on="0"/>
        <pt x="209" y="-56" on="0"/>
        <pt x="254" y="-56" on="1"/>
        <pt x="294" y="-56" on="0"/>
        <pt x="338" y="-43" on="1"/>
        <pt x="356" y="-105" on="1"/>
        <pt x="331" y="-116" on="0"/>
        <pt x="271" y="-128" on="0"/>
        <pt x="244" y="-128" on="1"/>
        <pt x="136" y="-128" on="0"/>
        <pt x="38" y="39" on="0"/>
        <pt x="38" y="223" on="1"/>
        <pt x="38" y="409" on="0"/>
        <pt x="128" y="586" on="0"/>
        <pt x="233" y="586" on="1"/>
        <pt x="316" y="586" on="0"/>
        <pt x="398" y="476" on="0"/>
        <pt x="398" y="381" on="1"/>
        <pt x="398" y="70" on="1"/>
      </contour>
      <contour>
        <pt x="257" y="175" on="0"/>
        <pt x="279" y="133" on="0"/>
        <pt x="306" y="134" on="1"/>
        <pt x="306" y="316" on="1"/>
        <pt x="278" y="305" on="0"/>
        <pt x="257" y="261" on="0"/>
        <pt x="257" y="220" on="1"/>
      </contour>
    </TTGlyph>
    <TTGlyph name="atilde" xMin="44" yMin="-4" xMax="386" yMax="648">
      <component glyphName="a" x="0" y="0" flags="0x400"/>
      <component glyphName="tildecomb" x="2" y="0" flags="0x0"/>
    </TTGlyph>
    <TTGlyph name="b" xMin="53" yMin="-8" xMax="408" yMax="640">
      <contour>
        <pt x="55" y="65" on="1"/>
        <pt x="55" y="640" on="1"/>
        <pt x="147" y="640" on="1"/>
        <pt x="147" y="424" on="1"/>
        <pt x="185" y="456" on="0"/>
        <pt x="243" y="456" on="1"/>
        <pt x="308" y="456" on="0"/>
        <pt x="348" y="416" on="1"/>
        <pt x="408" y="356" on="0"/>
        <pt x="408" y="224" on="1"/>
        <pt x="408" y="162" on="0"/>
        <pt x="379" y="64" on="0"/>
        <pt x="349" y="34" on="1"/>
        <pt x="307" y="-8" on="0"/>
        <pt x="242" y="-8" on="1"/>
        <pt x="175" y="-8" on="0"/>
        <pt x="133" y="35" on="1"/>
        <pt x="128" y="0" on="1"/>
        <pt x="53" y="0" on="1"/>
      </contour>
      <contour>
        <pt x="176" y="65" on="0"/>
        <pt x="229" y="65" on="1"/>
        <pt x="262" y="65" on="0"/>
        <pt x="280" y="83" on="1"/>
        <pt x="296" y="99" on="0"/>
        <pt x="310" y="165" on="0"/>
        <pt x="310" y="224" on="1"/>
        <pt x="310" y="282" on="0"/>
        <pt x="295" y="350" on="0"/>
        <pt x="279" y="366" on="1"/>
        <pt x="262" y="383" on="0"/>
        <pt x="229" y="383" on="1"/>
        <pt x="176" y="383" on="0"/>
        <pt x="147" y="345" on="1"/>
        <pt x="147" y="104" on="1"/>
      </contour>
    </TTGlyph>
    <TTGlyph name="backslash" xMin="109" yMin="-69" xMax="339" yMax="710">
      <contour>
        <pt x="248" y="-69" on="1"/>
        <pt x="109" y="698" on="1"/>
        <pt x="200" y="710" on="1"/>
        <pt x="339" y="-57" on="1"/>
      </contour>
    </TTGlyph>
    <TTGlyph name="bar" xMin="178" yMin="-64" xMax="270" yMax="704">
      <contour>
        <pt x="178" y="-64" on="1"/>
        <pt x="178" y="704" on="1"/>
        <pt x="270" y="704" on="1"/>
        <pt x="270" y="-64" on="1"/>
      </contour>
    </TTGlyph>
    <TTGlyph name="beta" xMin="60" yMin="-192" xMax="409" yMax="648">
      <contour>
        <pt x="60" y="558" on="0"/>
        <pt x="149" y="648" on="0"/>
        <pt x="221" y="648" on="1"/>
        <pt x="300" y="648" on="0"/>
        <pt x="379" y="555" on="0"/>
        <pt x="379" y="489" on="1"/>
        <pt x="379" y="444" on="0"/>
        <pt x="335" y="375" on="0"/>
        <pt x="293" y="357" on="1"/>
        <pt x="409" y="321" on="0"/>
        <pt x="409" y="176" on="1"/>
        <pt x="409" y="95" on="0"/>
        <pt x="323" y="-6" on="0"/>
        <pt x="240" y="-6" on="1"/>
        <pt x="178" y="-6" on="0"/>
        <pt x="132" y="28" on="1"/>
        <pt x="132" y="-192" on="1"/>
        <pt x="60" y="-192" on="1"/>
        <pt x="60" y="477" on="1"/>
      </contour>
      <contour>
        <pt x="175" y="57" on="0"/>
        <pt x="233" y="57" on="1"/>
        <pt x="286" y="57" on="0"/>
        <pt x="334" y="117" on="0"/>
        <pt x="334" y="182" on="1"/>
        <pt x="334" y="251" on="0"/>
        <pt x="274" y="321" on="0"/>
        <pt x="205" y="321" on="1"/>
        <pt x="182" y="321" on="1"/>
        <pt x="182" y="383" on="1"/>
        <pt x="205" y="383" on="1"/>
        <pt x="305" y="383" on="0"/>
        <pt x="305" y="484" on="1"/>
        <pt x="305" y="532" on="0"/>
        <pt x="261" y="584" on="0"/>
        <pt x="219" y="584" on="1"/>
        <pt x="132" y="584" on="0"/>
        <pt x="132" y="476" on="1"/>
        <pt x="132" y="97" on="1"/>
      </contour>
    </TTGlyph>
    <TTGlyph name="block" xMin="-5" yMin="-197" xMax="453" yMax="837">
      <contour>
        <pt x="-5" y="-197" on="1"/>
        <pt x="-5" y="837" on="1"/>
        <pt x="453" y="837" on="1"/>
        <pt x="453" y="-197" on="1"/>
      </contour>
    </TTGlyph>
    <TTGlyph name="braceleft" xMin="79" yMin="-64" xMax="356" yMax="704">
      <contour>
        <pt x="248" y="-53" on="0"/>
        <pt x="147" y="5" on="0"/>
        <pt x="147" y="72" on="1"/>
        <pt x="147" y="89" on="0"/>
        <pt x="153" y="125" on="1"/>
        <pt x="159" y="163" on="0"/>
        <pt x="159" y="189" on="1"/>
        <pt x="159" y="224" on="0"/>
        <pt x="120" y="265" on="0"/>
        <pt x="79" y="272" on="1"/>
        <pt x="79" y="369" on="1"/>
        <pt x="120" y="376" on="0"/>
        <pt x="159" y="416" on="0"/>
        <pt x="159" y="452" on="1"/>
        <pt x="159" y="476" on="0"/>
        <pt x="153" y="516" on="1"/>
        <pt x="147" y="550" on="0"/>
        <pt x="147" y="568" on="1"/>
        <pt x="147" y="636" on="0"/>
        <pt x="248" y="693" on="0"/>
        <pt x="346" y="704" on="1"/>
        <pt x="356" y="639" on="1"/>
        <pt x="309" y="630" on="0"/>
        <pt x="258" y="613" on="0"/>
        <pt x="235" y="584" on="0"/>
        <pt x="235" y="559" on="1"/>
        <pt x="235" y="547" on="0"/>
        <pt x="238" y="523" on="0"/>
        <pt x="240" y="510" on="1"/>
        <pt x="247" y="475" on="0"/>
        <pt x="247" y="443" on="1"/>
        <pt x="247" y="390" on="0"/>
        <pt x="200" y="335" on="0"/>
        <pt x="150" y="320" on="1"/>
        <pt x="200" y="305" on="0"/>
        <pt x="247" y="250" on="0"/>
        <pt x="247" y="198" on="1"/>
        <pt x="247" y="166" on="0"/>
        <pt x="240" y="131" on="1"/>
        <pt x="238" y="118" on="0"/>
        <pt x="235" y="94" on="0"/>
        <pt x="235" y="81" on="1"/>
        <pt x="235" y="46" on="0"/>
        <pt x="287" y="14" on="0"/>
        <pt x="356" y="1" on="1"/>
        <pt x="346" y="-64" on="1"/>
      </contour>
    </TTGlyph>
    <TTGlyph name="braceright" xMin="92" yMin="-64" xMax="369" yMax="704">
      <contour>
        <pt x="161" y="14" on="0"/>
        <pt x="213" y="46" on="0"/>
        <pt x="213" y="81" on="1"/>
        <pt x="213" y="94" on="0"/>
        <pt x="210" y="118" on="0"/>
        <pt x="208" y="131" on="1"/>
        <pt x="201" y="166" on="0"/>
        <pt x="201" y="198" on="1"/>
        <pt x="201" y="250" on="0"/>
        <pt x="249" y="305" on="0"/>
        <pt x="298" y="320" on="1"/>
        <pt x="249" y="335" on="0"/>
        <pt x="201" y="390" on="0"/>
        <pt x="201" y="443" on="1"/>
        <pt x="201" y="475" on="0"/>
        <pt x="208" y="510" on="1"/>
        <pt x="210" y="523" on="0"/>
        <pt x="213" y="547" on="0"/>
        <pt x="213" y="559" on="1"/>
        <pt x="213" y="584" on="0"/>
        <pt x="190" y="613" on="0"/>
        <pt x="139" y="630" on="0"/>
        <pt x="92" y="639" on="1"/>
        <pt x="102" y="704" on="1"/>
        <pt x="201" y="693" on="0"/>
        <pt x="301" y="636" on="0"/>
        <pt x="301" y="568" on="1"/>
        <pt x="301" y="550" on="0"/>
        <pt x="295" y="516" on="1"/>
        <pt x="289" y="476" on="0"/>
        <pt x="289" y="452" on="1"/>
        <pt x="289" y="416" on="0"/>
        <pt x="328" y="376" on="0"/>
        <pt x="369" y="369" on="1"/>
        <pt x="369" y="272" on="1"/>
        <pt x="328" y="265" on="0"/>
        <pt x="289" y="224" on="0"/>
        <pt x="289" y="189" on="1"/>
        <pt x="289" y="163" on="0"/>
        <pt x="295" y="125" on="1"/>
        <pt x="301" y="89" on="0"/>
        <pt x="301" y="72" on="1"/>
        <pt x="301" y="5" on="0"/>
        <pt x="200" y="-53" on="0"/>
        <pt x="102" y="-64" on="1"/>
        <pt x="92" y="1" on="1"/>
      </contour>
    </TTGlyph>
    <TTGlyph name="bracketleft" xMin="134" yMin="-64" xMax="350" yMax="704">
      <contour>
        <pt x="226" y="632" on="1"/>
        <pt x="226" y="8" on="1"/>
        <pt x="350" y="8" on="1"/>
        <pt x="350" y="-64" on="1"/>
        <pt x="134" y="-64" on="1"/>
        <pt x="134" y="704" on="1"/>
        <pt x="350" y="704" on="1"/>
        <pt x="350" y="632" on="1"/>
      </contour>
    </TTGlyph>
    <TTGlyph name="bracketright" xMin="98" yMin="-64" xMax="314" yMax="704">
      <contour>
        <pt x="98" y="-64" on="1"/>
        <pt x="98" y="8" on="1"/>
        <pt x="222" y="8" on="1"/>
        <pt x="222" y="632" on="1"/>
        <pt x="98" y="632" on="1"/>
        <pt x="98" y="704" on="1"/>
        <pt x="314" y="704" on="1"/>
        <pt x="314" y="-64" on="1"/>
      </contour>
    </TTGlyph>
    <TTGlyph name="breve" xMin="88" yMin="499" xMax="360" yMax="649">
      <component glyphName="uni0306" x="0" y="0" flags="0x400"/>
    </TTGlyph>
    <TTGlyph name="brokenbar" xMin="180" yMin="-192" xMax="268" yMax="704">
      <contour>
        <pt x="180" y="320" on="1"/>
        <pt x="180" y="704" on="1"/>
        <pt x="268" y="704" on="1"/>
        <pt x="268" y="320" on="1"/>
      </contour>
      <contour>
        <pt x="180" y="-192" on="1"/>
        <pt x="180" y="192" on="1"/>
        <pt x="268" y="192" on="1"/>
        <pt x="268" y="-192" on="1"/>
      </contour>
    </TTGlyph>
    <TTGlyph name="bullet" xMin="112" yMin="110" xMax="336" yMax="338">
      <contour>
        <pt x="272" y="338" on="0"/>
        <pt x="336" y="273" on="0"/>
        <pt x="336" y="224" on="1"/>
        <pt x="336" y="176" on="0"/>
        <pt x="272" y="110" on="0"/>
        <pt x="224" y="110" on="1"/>
        <pt x="177" y="110" on="0"/>
        <pt x="112" y="176" on="0"/>
        <pt x="112" y="224" on="1"/>
        <pt x="112" y="273" on="0"/>
        <pt x="177" y="338" on="0"/>
        <pt x="224" y="338" on="1"/>
      </contour>
    </TTGlyph>
    <TTGlyph name="c" xMin="50" yMin="-7" xMax="368" yMax="455">
      <contour>
        <pt x="306" y="381" on="0"/>
        <pt x="257" y="381" on="1"/>
        <pt x="215" y="381" on="0"/>
        <pt x="167" y="352" on="0"/>
        <pt x="146" y="284" on="0"/>
        <pt x="146" y="224" on="1"/>
        <pt x="146" y="165" on="0"/>
        <pt x="167" y="97" on="0"/>
        <pt x="215" y="67" on="0"/>
        <pt x="257" y="67" on="1"/>
        <pt x="300" y="67" on="0"/>
        <pt x="353" y="82" on="1"/>
        <pt x="368" y="15" on="1"/>
        <pt x="310" y="-7" on="0"/>
        <pt x="244" y="-7" on="1"/>
        <pt x="50" y="-7" on="0"/>
        <pt x="50" y="224" on="1"/>
        <pt x="50" y="455" on="0"/>
        <pt x="244" y="455" on="1"/>
        <pt x="313" y="455" on="0"/>
        <pt x="368" y="434" on="1"/>
        <pt x="353" y="367" on="1"/>
      </contour>
    </TTGlyph>
    <TTGlyph name="cacute" xMin="50" yMin="-7" xMax="374" yMax="704">
      <component glyphName="c" x="0" y="0" flags="0x400"/>
      <component glyphName="acutecomb" x="16" y="0" flags="0x0"/>
    </TTGlyph>
    <TTGlyph name="caron" xMin="76" yMin="509" xMax="373" yMax="650">
      <component glyphName="uni030C" x="0" y="0" flags="0x400"/>
    </TTGlyph>
    <TTGlyph name="carriagereturn" xMin="0" yMin="54" xMax="428" yMax="448">
      <contour>
        <pt x="217" y="98" on="1"/>
        <pt x="179" y="54" on="1"/>
        <pt x="0" y="202" on="1"/>
        <pt x="0" y="246" on="1"/>
        <pt x="179" y="394" on="1"/>
        <pt x="217" y="350" on="1"/>
        <pt x="108" y="256" on="1"/>
        <pt x="360" y="256" on="1"/>
        <pt x="360" y="448" on="1"/>
        <pt x="428" y="448" on="1"/>
        <pt x="428" y="192" on="1"/>
        <pt x="108" y="192" on="1"/>
      </contour>
    </TTGlyph>
    <TTGlyph name="ccaron" xMin="50" yMin="-7" xMax="389" yMax="650">
      <component glyphName="c" x="0" y="0" flags="0x400"/>
      <component glyphName="uni030C" x="16" y="0" flags="0x0"/>
    </TTGlyph>
    <TTGlyph name="ccedilla" xMin="50" yMin="-192" xMax="368" yMax="455">
      <component glyphName="c" x="0" y="0" flags="0x400"/>
      <component glyphName="uni0327" x="-22" y="0" flags="0x0"/>
    </TTGlyph>
    <TTGlyph name="ccircumflex" xMin="50" yMin="-7" xMax="389" yMax="650">
      <component glyphName="c" x="0" y="0" flags="0x400"/>
      <component glyphName="uni0302" x="16" y="0" flags="0x0"/>
    </TTGlyph>
    <TTGlyph name="cdotaccent" xMin="50" yMin="-7" xMax="368" yMax="654">
      <component glyphName="c" x="0" y="0" flags="0x400"/>
      <component glyphName="uni0307" x="16" y="0" flags="0x0"/>
    </TTGlyph>
    <TTGlyph name="cedilla" xMin="126" yMin="-192" xMax="326" yMax="10">
      <component glyphName="uni0327" x="0" y="0" flags="0x400"/>
    </TTGlyph>
    <TTGlyph name="cent" xMin="50" yMin="-64" xMax="368" yMax="640">
      <contour>
        <pt x="306" y="445" on="0"/>
        <pt x="257" y="445" on="1"/>
        <pt x="215" y="445" on="0"/>
        <pt x="167" y="416" on="0"/>
        <pt x="146" y="348" on="0"/>
        <pt x="146" y="288" on="1"/>
        <pt x="146" y="229" on="0"/>
        <pt x="167" y="161" on="0"/>
        <pt x="215" y="131" on="0"/>
        <pt x="257" y="131" on="1"/>
        <pt x="300" y="131" on="0"/>
        <pt x="353" y="146" on="1"/>
        <pt x="368" y="79" on="1"/>
        <pt x="322" y="61" on="0"/>
        <pt x="266" y="58" on="1"/>
        <pt x="266" y="-64" on="1"/>
        <pt x="182" y="-64" on="1"/>
        <pt x="182" y="64" on="1"/>
        <pt x="50" y="97" on="0"/>
        <pt x="50" y="288" on="1"/>
        <pt x="50" y="479" on="0"/>
        <pt x="182" y="512" on="1"/>
        <pt x="182" y="640" on="1"/>
        <pt x="266" y="640" on="1"/>
        <pt x="266" y="518" on="1"/>
        <pt x="320" y="516" on="0"/>
        <pt x="368" y="498" on="1"/>
        <pt x="353" y="431" on="1"/>
      </contour>
    </TTGlyph>
    <TTGlyph name="chi" xMin="25" yMin="-192" xMax="399" yMax="448">
      <contour>
        <pt x="399" y="448" on="1"/>
        <pt x="263" y="158" on="1"/>
        <pt x="324" y="89" on="0"/>
        <pt x="381" y="-65" on="0"/>
        <pt x="393" y="-192" on="1"/>
        <pt x="321" y="-192" on="1"/>
        <pt x="311" y="-82" on="0"/>
        <pt x="272" y="42" on="0"/>
        <pt x="231" y="91" on="1"/>
        <pt x="98" y="-192" on="1"/>
        <pt x="25" y="-192" on="1"/>
        <pt x="180" y="138" on="1"/>
        <pt x="124" y="210" on="0"/>
        <pt x="68" y="345" on="0"/>
        <pt x="48" y="448" on="1"/>
        <pt x="123" y="448" on="1"/>
        <pt x="138" y="366" on="0"/>
        <pt x="177" y="259" on="0"/>
        <pt x="212" y="207" on="1"/>
        <pt x="325" y="448" on="1"/>
      </contour>
    </TTGlyph>
    <TTGlyph name="circle" xMin="54" yMin="120" xMax="394" yMax="456">
      <contour>
        <pt x="177" y="120" on="0"/>
        <pt x="99" y="164" on="0"/>
        <pt x="54" y="241" on="0"/>
        <pt x="54" y="288" on="1"/>
        <pt x="54" y="335" on="0"/>
        <pt x="99" y="412" on="0"/>
        <pt x="177" y="456" on="0"/>
        <pt x="224" y="456" on="1"/>
        <pt x="271" y="456" on="0"/>
        <pt x="349" y="412" on="0"/>
        <pt x="394" y="335" on="0"/>
        <pt x="394" y="288" on="1"/>
        <pt x="394" y="241" on="0"/>
        <pt x="349" y="164" on="0"/>
        <pt x="271" y="120" on="0"/>
        <pt x="224" y="120" on="1"/>
      </contour>
      <contour>
        <pt x="267" y="184" on="0"/>
        <pt x="324" y="244" on="0"/>
        <pt x="324" y="288" on="1"/>
        <pt x="324" y="332" on="0"/>
        <pt x="267" y="392" on="0"/>
        <pt x="224" y="392" on="1"/>
        <pt x="181" y="392" on="0"/>
        <pt x="124" y="332" on="0"/>
        <pt x="124" y="288" on="1"/>
        <pt x="124" y="244" on="0"/>
        <pt x="181" y="184" on="0"/>
        <pt x="224" y="184" on="1"/>
      </contour>
    </TTGlyph>
    <TTGlyph name="circumflex" xMin="76" yMin="509" xMax="373" yMax="650">
      <component glyphName="uni0302" x="0" y="0" flags="0x400"/>
    </TTGlyph>
    <TTGlyph name="club" xMin="64" yMin="64" xMax="384" yMax="512">
      <contour>
        <pt x="384" y="384" on="1"/>
        <pt x="384" y="192" on="1"/>
        <pt x="320" y="192" on="1"/>
        <pt x="320" y="256" on="1"/>
        <pt x="256" y="256" on="1"/>
        <pt x="256" y="128" on="1"/>
        <pt x="384" y="128" on="1"/>
        <pt x="384" y="64" on="1"/>
        <pt x="64" y="64" on="1"/>
        <pt x="64" y="128" on="1"/>
        <pt x="192" y="128" on="1"/>
        <pt x="192" y="256" on="1"/>
        <pt x="128" y="256" on="1"/>
        <pt x="128" y="192" on="1"/>
        <pt x="64" y="192" on="1"/>
        <pt x="64" y="384" on="1"/>
        <pt x="128" y="384" on="1"/>
        <pt x="128" y="320" on="1"/>
        <pt x="192" y="320" on="1"/>
        <pt x="192" y="448" on="1"/>
        <pt x="128" y="448" on="1"/>
        <pt x="128" y="512" on="1"/>
        <pt x="320" y="512" on="1"/>
        <pt x="320" y="448" on="1"/>
        <pt x="256" y="448" on="1"/>
        <pt x="256" y="320" on="1"/>
        <pt x="320" y="320" on="1"/>
        <pt x="320" y="384" on="1"/>
      </contour>
    </TTGlyph>
    <TTGlyph name="colon" xMin="118" yMin="-10" xMax="266" yMax="458">
      <contour>
        <pt x="161" y="-10" on="0"/>
        <pt x="118" y="29" on="0"/>
        <pt x="118" y="64" on="1"/>
        <pt x="118" y="99" on="0"/>
        <pt x="161" y="138" on="0"/>
        <pt x="192" y="138" on="1"/>
        <pt x="224" y="138" on="0"/>
        <pt x="266" y="99" on="0"/>
        <pt x="266" y="64" on="1"/>
        <pt x="266" y="29" on="0"/>
        <pt x="224" y="-10" on="0"/>
        <pt x="192" y="-10" on="1"/>
      </contour>
      <contour>
        <pt x="161" y="310" on="0"/>
        <pt x="118" y="349" on="0"/>
        <pt x="118" y="384" on="1"/>
        <pt x="118" y="419" on="0"/>
        <pt x="161" y="458" on="0"/>
        <pt x="192" y="458" on="1"/>
        <pt x="224" y="458" on="0"/>
        <pt x="266" y="419" on="0"/>
        <pt x="266" y="384" on="1"/>
        <pt x="266" y="349" on="0"/>
        <pt x="224" y="310" on="0"/>
        <pt x="192" y="310" on="1"/>
      </contour>
    </TTGlyph>
    <TTGlyph name="comma" xMin="119" yMin="-141" xMax="267" yMax="136">
      <contour>
        <pt x="153" y="-77" on="0"/>
        <pt x="178" y="-33" on="0"/>
        <pt x="183" y="-9" on="1"/>
        <pt x="153" y="-6" on="0"/>
        <pt x="119" y="32" on="0"/>
        <pt x="119" y="63" on="1"/>
        <pt x="119" y="96" on="0"/>
        <pt x="160" y="136" on="0"/>
        <pt x="191" y="136" on="1"/>
        <pt x="224" y="136" on="0"/>
        <pt x="267" y="91" on="0"/>
        <pt x="267" y="42" on="1"/>
        <pt x="267" y="-52" on="0"/>
        <pt x="182" y="-141" on="1"/>
        <pt x="133" y="-101" on="1"/>
      </contour>
    </TTGlyph>
    <TTGlyph name="copyright" xMin="4" yMin="7" xMax="444" yMax="505">
      <contour>
        <pt x="167" y="7" on="0"/>
        <pt x="66" y="64" on="0"/>
        <pt x="4" y="177" on="0"/>
        <pt x="4" y="256" on="1"/>
        <pt x="4" y="336" on="0"/>
        <pt x="66" y="449" on="0"/>
        <pt x="167" y="505" on="0"/>
        <pt x="224" y="505" on="1"/>
        <pt x="281" y="505" on="0"/>
        <pt x="382" y="449" on="0"/>
        <pt x="444" y="336" on="0"/>
        <pt x="444" y="256" on="1"/>
        <pt x="444" y="177" on="0"/>
        <pt x="382" y="64" on="0"/>
        <pt x="281" y="7" on="0"/>
        <pt x="224" y="7" on="1"/>
      </contour>
      <contour>
        <pt x="166" y="120" on="0"/>
        <pt x="105" y="196" on="0"/>
        <pt x="105" y="258" on="1"/>
        <pt x="105" y="321" on="0"/>
        <pt x="166" y="397" on="0"/>
        <pt x="232" y="397" on="1"/>
        <pt x="278" y="397" on="0"/>
        <pt x="319" y="381" on="1"/>
        <pt x="304" y="330" on="1"/>
        <pt x="277" y="340" on="0"/>
        <pt x="242" y="340" on="1"/>
        <pt x="209" y="340" on="0"/>
        <pt x="181" y="305" on="0"/>
        <pt x="181" y="259" on="1"/>
        <pt x="181" y="213" on="0"/>
        <pt x="209" y="178" on="0"/>
        <pt x="242" y="178" on="1"/>
        <pt x="269" y="178" on="0"/>
        <pt x="307" y="188" on="1"/>
        <pt x="319" y="136" on="1"/>
        <pt x="272" y="120" on="0"/>
        <pt x="232" y="120" on="1"/>
      </contour>
      <contour>
        <pt x="298" y="63" on="0"/>
        <pt x="383" y="166" on="0"/>
        <pt x="383" y="256" on="1"/>
        <pt x="383" y="346" on="0"/>
        <pt x="298" y="449" on="0"/>
        <pt x="224" y="449" on="1"/>
        <pt x="151" y="449" on="0"/>
        <pt x="65" y="346" on="0"/>
        <pt x="65" y="256" on="1"/>
        <pt x="65" y="166" on="0"/>
        <pt x="151" y="63" on="0"/>
        <pt x="224" y="63" on="1"/>
      </contour>
    </TTGlyph>
    <TTGlyph name="currency" xMin="39" yMin="54" xMax="410" yMax="522">
      <contour>
        <pt x="263" y="464" on="0"/>
        <pt x="297" y="450" on="1"/>
        <pt x="349" y="522" on="1"/>
        <pt x="409" y="478" on="1"/>
        <pt x="358" y="409" on="1"/>
        <pt x="407" y="358" on="0"/>
        <pt x="407" y="288" on="1"/>
        <pt x="407" y="253" on="0"/>
        <pt x="382" y="192" on="0"/>
        <pt x="359" y="168" on="1"/>
        <pt x="410" y="98" on="1"/>
        <pt x="349" y="54" on="1"/>
        <pt x="297" y="126" on="1"/>
        <pt x="263" y="112" on="0"/>
        <pt x="224" y="112" on="1"/>
        <pt x="185" y="112" on="0"/>
        <pt x="151" y="126" on="1"/>
        <pt x="99" y="54" on="1"/>
        <pt x="39" y="98" on="1"/>
        <pt x="90" y="167" on="1"/>
        <pt x="41" y="218" on="0"/>
        <pt x="41" y="288" on="1"/>
        <pt x="41" y="358" on="0"/>
        <pt x="90" y="409" on="1"/>
        <pt x="39" y="478" on="1"/>
        <pt x="99" y="522" on="1"/>
        <pt x="151" y="450" on="1"/>
        <pt x="185" y="464" on="0"/>
        <pt x="224" y="464" on="1"/>
      </contour>
      <contour>
        <pt x="265" y="184" on="0"/>
        <pt x="319" y="245" on="0"/>
        <pt x="319" y="288" on="1"/>
        <pt x="319" y="332" on="0"/>
        <pt x="265" y="392" on="0"/>
        <pt x="224" y="392" on="1"/>
        <pt x="184" y="392" on="0"/>
        <pt x="129" y="332" on="0"/>
        <pt x="129" y="288" on="1"/>
        <pt x="129" y="245" on="0"/>
        <pt x="184" y="184" on="0"/>
        <pt x="224" y="184" on="1"/>
      </contour>
    </TTGlyph>
    <TTGlyph name="d" xMin="40" yMin="-8" xMax="395" yMax="640">
      <contour>
        <pt x="315" y="38" on="1"/>
        <pt x="273" y="-8" on="0"/>
        <pt x="205" y="-8" on="1"/>
        <pt x="140" y="-8" on="0"/>
        <pt x="100" y="32" on="1"/>
        <pt x="40" y="92" on="0"/>
        <pt x="40" y="224" on="1"/>
        <pt x="40" y="286" on="0"/>
        <pt x="69" y="384" on="0"/>
        <pt x="99" y="414" on="1"/>
        <pt x="141" y="456" on="0"/>
        <pt x="206" y="456" on="1"/>
        <pt x="263" y="456" on="0"/>
        <pt x="301" y="425" on="1"/>
        <pt x="301" y="640" on="1"/>
        <pt x="393" y="640" on="1"/>
        <pt x="393" y="65" on="1"/>
        <pt x="395" y="0" on="1"/>
        <pt x="321" y="0" on="1"/>
      </contour>
      <contour>
        <pt x="138" y="166" on="0"/>
        <pt x="153" y="98" on="0"/>
        <pt x="169" y="82" on="1"/>
        <pt x="186" y="65" on="0"/>
        <pt x="219" y="65" on="1"/>
        <pt x="273" y="65" on="0"/>
        <pt x="301" y="103" on="1"/>
        <pt x="301" y="344" on="1"/>
        <pt x="272" y="383" on="0"/>
        <pt x="219" y="383" on="1"/>
        <pt x="186" y="383" on="0"/>
        <pt x="168" y="365" on="1"/>
        <pt x="152" y="349" on="0"/>
        <pt x="138" y="283" on="0"/>
        <pt x="138" y="224" on="1"/>
      </contour>
    </TTGlyph>
    <TTGlyph name="dagger" xMin="59" yMin="0" xMax="389" yMax="640">
      <contour>
        <pt x="268" y="462" on="1"/>
        <pt x="389" y="462" on="1"/>
        <pt x="389" y="390" on="1"/>
        <pt x="268" y="390" on="1"/>
        <pt x="268" y="0" on="1"/>
        <pt x="180" y="0" on="1"/>
        <pt x="180" y="390" on="1"/>
        <pt x="59" y="390" on="1"/>
        <pt x="59" y="462" on="1"/>
        <pt x="180" y="462" on="1"/>
        <pt x="180" y="640" on="1"/>
        <pt x="268" y="640" on="1"/>
      </contour>
    </TTGlyph>
    <TTGlyph name="daggerdbl" xMin="59" yMin="0" xMax="389" yMax="640">
      <contour>
        <pt x="268" y="462" on="1"/>
        <pt x="389" y="462" on="1"/>
        <pt x="389" y="390" on="1"/>
        <pt x="268" y="390" on="1"/>
        <pt x="268" y="250" on="1"/>
        <pt x="389" y="250" on="1"/>
        <pt x="389" y="178" on="1"/>
        <pt x="268" y="178" on="1"/>
        <pt x="268" y="0" on="1"/>
        <pt x="180" y="0" on="1"/>
        <pt x="180" y="178" on="1"/>
        <pt x="59" y="178" on="1"/>
        <pt x="59" y="250" on="1"/>
        <pt x="180" y="250" on="1"/>
        <pt x="180" y="390" on="1"/>
        <pt x="59" y="390" on="1"/>
        <pt x="59" y="462" on="1"/>
        <pt x="180" y="462" on="1"/>
        <pt x="180" y="640" on="1"/>
        <pt x="268" y="640" on="1"/>
      </contour>
    </TTGlyph>
    <TTGlyph name="dcaron" xMin="10" yMin="-8" xMax="490" yMax="640">
      <component glyphName="d" x="-30" y="0" flags="0x400"/>
      <component glyphName="uni030C.alt" x="44" y="0" flags="0x0"/>
    </TTGlyph>
    <TTGlyph name="dcroat" xMin="40" yMin="-8" xMax="443" yMax="640">
      <component glyphName="d" x="0" y="0" flags="0x400"/>
      <component glyphName="uni0335" x="86" y="310" flags="0x4"/>
    </TTGlyph>
    <TTGlyph name="degree" xMin="50" yMin="377" xMax="334" yMax="647">
      <contour>
        <pt x="255" y="647" on="0"/>
        <pt x="334" y="569" on="0"/>
        <pt x="334" y="512" on="1"/>
        <pt x="334" y="455" on="0"/>
        <pt x="255" y="377" on="0"/>
        <pt x="192" y="377" on="1"/>
        <pt x="129" y="377" on="0"/>
        <pt x="50" y="455" on="0"/>
        <pt x="50" y="512" on="1"/>
        <pt x="50" y="569" on="0"/>
        <pt x="129" y="647" on="0"/>
        <pt x="192" y="647" on="1"/>
      </contour>
      <contour>
        <pt x="222" y="441" on="0"/>
        <pt x="256" y="481" on="0"/>
        <pt x="256" y="512" on="1"/>
        <pt x="256" y="543" on="0"/>
        <pt x="222" y="583" on="0"/>
        <pt x="192" y="583" on="1"/>
        <pt x="162" y="583" on="0"/>
        <pt x="128" y="543" on="0"/>
        <pt x="128" y="512" on="1"/>
        <pt x="128" y="481" on="0"/>
        <pt x="162" y="441" on="0"/>
        <pt x="192" y="441" on="1"/>
      </contour>
    </TTGlyph>
    <TTGlyph name="delta" xMin="50" yMin="-13" xMax="398" yMax="642">
      <contour>
        <pt x="315" y="578" on="0"/>
        <pt x="278" y="578" on="1"/>
        <pt x="192" y="578" on="0"/>
        <pt x="192" y="516" on="1"/>
        <pt x="192" y="492" on="0"/>
        <pt x="218" y="457" on="0"/>
        <pt x="257" y="429" on="1"/>
        <pt x="317" y="386" on="0"/>
        <pt x="398" y="276" on="0"/>
        <pt x="398" y="192" on="1"/>
        <pt x="398" y="139" on="0"/>
        <pt x="362" y="46" on="0"/>
        <pt x="282" y="-13" on="0"/>
        <pt x="221" y="-13" on="1"/>
        <pt x="162" y="-13" on="0"/>
        <pt x="85" y="44" on="0"/>
        <pt x="50" y="131" on="0"/>
        <pt x="50" y="177" on="1"/>
        <pt x="50" y="247" on="0"/>
        <pt x="121" y="360" on="0"/>
        <pt x="184" y="396" on="1"/>
        <pt x="151" y="421" on="0"/>
        <pt x="117" y="478" on="0"/>
        <pt x="117" y="518" on="1"/>
        <pt x="117" y="572" on="0"/>
        <pt x="193" y="642" on="0"/>
        <pt x="278" y="642" on="1"/>
        <pt x="323" y="642" on="0"/>
        <pt x="384" y="635" on="1"/>
        <pt x="378" y="573" on="1"/>
      </contour>
      <contour>
        <pt x="125" y="118" on="0"/>
        <pt x="175" y="51" on="0"/>
        <pt x="221" y="51" on="1"/>
        <pt x="272" y="51" on="0"/>
        <pt x="324" y="122" on="0"/>
        <pt x="324" y="192" on="1"/>
        <pt x="324" y="291" on="0"/>
        <pt x="240" y="357" on="1"/>
        <pt x="175" y="320" on="0"/>
        <pt x="125" y="236" on="0"/>
        <pt x="125" y="176" on="1"/>
      </contour>
    </TTGlyph>
    <TTGlyph name="diamond" xMin="64" yMin="80" xMax="384" yMax="456">
      <contour>
        <pt x="202" y="456" on="1"/>
        <pt x="246" y="456" on="1"/>
        <pt x="384" y="284" on="1"/>
        <pt x="384" y="252" on="1"/>
        <pt x="246" y="80" on="1"/>
        <pt x="202" y="80" on="1"/>
        <pt x="64" y="252" on="1"/>
        <pt x="64" y="284" on="1"/>
      </contour>
    </TTGlyph>
    <TTGlyph name="dieresis" xMin="81" yMin="523" xMax="368" yMax="653">
      <component glyphName="uni0308" x="0" y="0" flags="0x400"/>
    </TTGlyph>
    <TTGlyph name="dieresistonos" xMin="29" yMin="512" xMax="420" yMax="704">
      <contour>
        <pt x="293" y="704" on="1"/>
        <pt x="255" y="512" on="1"/>
        <pt x="175" y="512" on="1"/>
        <pt x="177" y="704" on="1"/>
      </contour>
      <contour>
        <pt x="109" y="653" on="0"/>
        <pt x="140" y="620" on="0"/>
        <pt x="140" y="588" on="1"/>
        <pt x="140" y="556" on="0"/>
        <pt x="109" y="523" on="0"/>
        <pt x="84" y="523" on="1"/>
        <pt x="60" y="523" on="0"/>
        <pt x="29" y="556" on="0"/>
        <pt x="29" y="588" on="1"/>
        <pt x="29" y="620" on="0"/>
        <pt x="60" y="653" on="0"/>
        <pt x="84" y="653" on="1"/>
      </contour>
      <contour>
        <pt x="389" y="653" on="0"/>
        <pt x="420" y="620" on="0"/>
        <pt x="420" y="588" on="1"/>
        <pt x="420" y="556" on="0"/>
        <pt x="389" y="523" on="0"/>
        <pt x="364" y="523" on="1"/>
        <pt x="340" y="523" on="0"/>
        <pt x="309" y="556" on="0"/>
        <pt x="309" y="588" on="1"/>
        <pt x="309" y="620" on="0"/>
        <pt x="340" y="653" on="0"/>
        <pt x="364" y="653" on="1"/>
      </contour>
    </TTGlyph>
    <TTGlyph name="divide" xMin="24" yMin="47" xMax="424" yMax="529">
      <contour>
        <pt x="24" y="328" on="1"/>
        <pt x="424" y="328" on="1"/>
        <pt x="424" y="248" on="1"/>
        <pt x="24" y="248" on="1"/>
      </contour>
      <contour>
        <pt x="193" y="47" on="0"/>
        <pt x="150" y="86" on="0"/>
        <pt x="150" y="121" on="1"/>
        <pt x="150" y="156" on="0"/>
        <pt x="193" y="195" on="0"/>
        <pt x="224" y="195" on="1"/>
        <pt x="256" y="195" on="0"/>
        <pt x="298" y="156" on="0"/>
        <pt x="298" y="121" on="1"/>
        <pt x="298" y="86" on="0"/>
        <pt x="256" y="47" on="0"/>
        <pt x="224" y="47" on="1"/>
      </contour>
      <contour>
        <pt x="193" y="381" on="0"/>
        <pt x="150" y="420" on="0"/>
        <pt x="150" y="455" on="1"/>
        <pt x="150" y="490" on="0"/>
        <pt x="193" y="529" on="0"/>
        <pt x="224" y="529" on="1"/>
        <pt x="256" y="529" on="0"/>
        <pt x="298" y="490" on="0"/>
        <pt x="298" y="455" on="1"/>
        <pt x="298" y="420" on="0"/>
        <pt x="256" y="381" on="0"/>
        <pt x="224" y="381" on="1"/>
      </contour>
    </TTGlyph>
    <TTGlyph name="dkshade" xMin="0" yMin="-192" xMax="384" yMax="832">
      <contour>
        <pt x="64" y="64" on="1"/>
        <pt x="64" y="128" on="1"/>
        <pt x="0" y="128" on="1"/>
        <pt x="0" y="320" on="1"/>
        <pt x="64" y="320" on="1"/>
        <pt x="64" y="384" on="1"/>
        <pt x="0" y="384" on="1"/>
        <pt x="0" y="576" on="1"/>
        <pt x="64" y="576" on="1"/>
        <pt x="64" y="640" on="1"/>
        <pt x="0" y="640" on="1"/>
        <pt x="0" y="832" on="1"/>
        <pt x="384" y="832" on="1"/>
        <pt x="384" y="768" on="1"/>
        <pt x="320" y="768" on="1"/>
        <pt x="320" y="704" on="1"/>
        <pt x="384" y="704" on="1"/>
        <pt x="384" y="512" on="1"/>
        <pt x="320" y="512" on="1"/>
        <pt x="320" y="448" on="1"/>
        <pt x="384" y="448" on="1"/>
        <pt x="384" y="256" on="1"/>
        <pt x="320" y="256" on="1"/>
        <pt x="320" y="192" on="1"/>
        <pt x="384" y="192" on="1"/>
        <pt x="384" y="0" on="1"/>
        <pt x="320" y="0" on="1"/>
        <pt x="320" y="-64" on="1"/>
        <pt x="384" y="-64" on="1"/>
        <pt x="384" y="-192" on="1"/>
        <pt x="320" y="-192" on="1"/>
        <pt x="320" y="-128" on="1"/>
        <pt x="256" y="-128" on="1"/>
        <pt x="256" y="-192" on="1"/>
        <pt x="192" y="-192" on="1"/>
        <pt x="192" y="-128" on="1"/>
        <pt x="128" y="-128" on="1"/>
        <pt x="128" y="-192" on="1"/>
        <pt x="64" y="-192" on="1"/>
        <pt x="64" y="-128" on="1"/>
        <pt x="0" y="-128" on="1"/>
        <pt x="0" y="64" on="1"/>
      </contour>
      <contour>
        <pt x="128" y="-64" on="1"/>
        <pt x="128" y="0" on="1"/>
        <pt x="64" y="0" on="1"/>
        <pt x="64" y="-64" on="1"/>
      </contour>
      <contour>
        <pt x="256" y="-64" on="1"/>
        <pt x="256" y="0" on="1"/>
        <pt x="192" y="0" on="1"/>
        <pt x="192" y="-64" on="1"/>
      </contour>
      <contour>
        <pt x="192" y="64" on="1"/>
        <pt x="192" y="128" on="1"/>
        <pt x="128" y="128" on="1"/>
        <pt x="128" y="64" on="1"/>
      </contour>
      <contour>
        <pt x="320" y="64" on="1"/>
        <pt x="320" y="128" on="1"/>
        <pt x="256" y="128" on="1"/>
        <pt x="256" y="64" on="1"/>
      </contour>
      <contour>
        <pt x="128" y="448" on="1"/>
        <pt x="128" y="512" on="1"/>
        <pt x="64" y="512" on="1"/>
        <pt x="64" y="448" on="1"/>
      </contour>
      <contour>
        <pt x="128" y="704" on="1"/>
        <pt x="128" y="768" on="1"/>
        <pt x="64" y="768" on="1"/>
        <pt x="64" y="704" on="1"/>
      </contour>
      <contour>
        <pt x="256" y="704" on="1"/>
        <pt x="256" y="768" on="1"/>
        <pt x="192" y="768" on="1"/>
        <pt x="192" y="704" on="1"/>
      </contour>
      <contour>
        <pt x="192" y="576" on="1"/>
        <pt x="192" y="640" on="1"/>
        <pt x="128" y="640" on="1"/>
        <pt x="128" y="576" on="1"/>
      </contour>
      <contour>
        <pt x="320" y="576" on="1"/>
        <pt x="320" y="640" on="1"/>
        <pt x="256" y="640" on="1"/>
        <pt x="256" y="576" on="1"/>
      </contour>
      <contour>
        <pt x="256" y="512" on="1"/>
        <pt x="192" y="512" on="1"/>
        <pt x="192" y="448" on="1"/>
        <pt x="256" y="448" on="1"/>
      </contour>
      <contour>
        <pt x="320" y="384" on="1"/>
        <pt x="256" y="384" on="1"/>
        <pt x="256" y="320" on="1"/>
        <pt x="320" y="320" on="1"/>
      </contour>
      <contour>
        <pt x="128" y="384" on="1"/>
        <pt x="128" y="320" on="1"/>
        <pt x="192" y="320" on="1"/>
        <pt x="192" y="384" on="1"/>
      </contour>
      <contour>
        <pt x="64" y="256" on="1"/>
        <pt x="64" y="192" on="1"/>
        <pt x="128" y="192" on="1"/>
        <pt x="128" y="256" on="1"/>
      </contour>
      <contour>
        <pt x="192" y="256" on="1"/>
        <pt x="192" y="192" on="1"/>
        <pt x="256" y="192" on="1"/>
        <pt x="256" y="256" on="1"/>
      </contour>
    </TTGlyph>
    <TTGlyph name="dnblock" xMin="-5" yMin="-197" xMax="453" yMax="325">
      <contour>
        <pt x="-5" y="-197" on="1"/>
        <pt x="-5" y="325" on="1"/>
        <pt x="453" y="325" on="1"/>
        <pt x="453" y="-197" on="1"/>
      </contour>
    </TTGlyph>
    <TTGlyph name="dollar" xMin="44" yMin="-128" xMax="396" yMax="704">
      <contour>
        <pt x="66" y="90" on="1"/>
        <pt x="99" y="78" on="0"/>
        <pt x="155" y="65" on="0"/>
        <pt x="188" y="65" on="1"/>
        <pt x="250" y="65" on="0"/>
        <pt x="300" y="104" on="0"/>
        <pt x="300" y="137" on="1"/>
        <pt x="300" y="171" on="0"/>
        <pt x="253" y="208" on="0"/>
        <pt x="203" y="229" on="1"/>
        <pt x="156" y="249" on="0"/>
        <pt x="96" y="286" on="0"/>
        <pt x="54" y="357" on="0"/>
        <pt x="54" y="414" on="1"/>
        <pt x="54" y="475" on="0"/>
        <pt x="119" y="560" on="0"/>
        <pt x="182" y="575" on="1"/>
        <pt x="182" y="704" on="1"/>
        <pt x="266" y="704" on="1"/>
        <pt x="266" y="584" on="1"/>
        <pt x="331" y="582" on="0"/>
        <pt x="383" y="564" on="1"/>
        <pt x="365" y="494" on="1"/>
        <pt x="311" y="511" on="0"/>
        <pt x="265" y="511" on="1"/>
        <pt x="199" y="511" on="0"/>
        <pt x="150" y="464" on="0"/>
        <pt x="150" y="422" on="1"/>
        <pt x="150" y="390" on="0"/>
        <pt x="179" y="348" on="0"/>
        <pt x="222" y="323" on="0"/>
        <pt x="260" y="305" on="1"/>
        <pt x="304" y="286" on="0"/>
        <pt x="358" y="251" on="0"/>
        <pt x="396" y="190" on="0"/>
        <pt x="396" y="142" on="1"/>
        <pt x="396" y="81" on="0"/>
        <pt x="329" y="9" on="0"/>
        <pt x="266" y="-2" on="1"/>
        <pt x="266" y="-128" on="1"/>
        <pt x="182" y="-128" on="1"/>
        <pt x="182" y="-8" on="1"/>
        <pt x="108" y="-5" on="0"/>
        <pt x="44" y="21" on="1"/>
      </contour>
    </TTGlyph>
    <TTGlyph name="dotaccent" xMin="160" yMin="526" xMax="288" yMax="654">
      <component glyphName="uni0307" x="0" y="0" flags="0x400"/>
    </TTGlyph>
    <TTGlyph name="dotbelowcomb" xMin="160" yMin="-184" xMax="288" yMax="-56">
      <component glyphName="uni0307" x="0" y="-710" flags="0x404"/>
    </TTGlyph>
    <TTGlyph name="dotlessi" xMin="67" yMin="0" xMax="283" yMax="448">
      <contour>
        <pt x="191" y="374" on="1"/>
        <pt x="67" y="382" on="1"/>
        <pt x="67" y="448" on="1"/>
        <pt x="283" y="448" on="1"/>
        <pt x="283" y="0" on="1"/>
        <pt x="191" y="0" on="1"/>
      </contour>
    </TTGlyph>
    <TTGlyph name="dotlessi.cv02" xMin="178" yMin="0" xMax="270" yMax="448">
      <contour>
        <pt x="178" y="448" on="1"/>
        <pt x="270" y="448" on="1"/>
        <pt x="270" y="0" on="1"/>
        <pt x="178" y="0" on="1"/>
      </contour>
    </TTGlyph>
    <TTGlyph name="dotmath" xMin="150" yMin="214" xMax="298" yMax="362">
      <component glyphName="period" x="32" y="224" flags="0x404"/>
    </TTGlyph>
    <TTGlyph name="e" xMin="45" yMin="-13" xMax="402" yMax="461">
      <contour>
        <pt x="45" y="331" on="0"/>
        <pt x="130" y="461" on="0"/>
        <pt x="224" y="461" on="1"/>
        <pt x="310" y="461" on="0"/>
        <pt x="402" y="343" on="0"/>
        <pt x="402" y="243" on="1"/>
        <pt x="402" y="219" on="0"/>
        <pt x="399" y="195" on="1"/>
        <pt x="142" y="195" on="1"/>
        <pt x="145" y="120" on="0"/>
        <pt x="195" y="59" on="0"/>
        <pt x="252" y="59" on="1"/>
        <pt x="296" y="59" on="0"/>
        <pt x="366" y="83" on="1"/>
        <pt x="382" y="18" on="1"/>
        <pt x="309" y="-13" on="0"/>
        <pt x="242" y="-13" on="1"/>
        <pt x="45" y="-13" on="0"/>
        <pt x="45" y="224" on="1"/>
      </contour>
      <contour>
        <pt x="306" y="265" on="1"/>
        <pt x="303" y="389" on="0"/>
        <pt x="224" y="389" on="1"/>
        <pt x="185" y="389" on="0"/>
        <pt x="146" y="332" on="0"/>
        <pt x="142" y="265" on="1"/>
      </contour>
    </TTGlyph>
    <TTGlyph name="eacute" xMin="45" yMin="-13" xMax="402" yMax="704">
      <component glyphName="e" x="0" y="0" flags="0x400"/>
      <component glyphName="acutecomb" x="0" y="0" flags="0x0"/>
    </TTGlyph>
    <TTGlyph name="ebreve" xMin="45" yMin="-13" xMax="402" yMax="649">
      <component glyphName="e" x="0" y="0" flags="0x400"/>
      <component glyphName="uni0306" x="0" y="0" flags="0x0"/>
    </TTGlyph>
    <TTGlyph name="ecaron" xMin="45" yMin="-13" xMax="402" yMax="650">
      <component glyphName="e" x="0" y="0" flags="0x400"/>
      <component glyphName="uni030C" x="0" y="0" flags="0x0"/>
    </TTGlyph>
    <TTGlyph name="ecircumflex" xMin="45" yMin="-13" xMax="402" yMax="650">
      <component glyphName="e" x="0" y="0" flags="0x400"/>
      <component glyphName="uni0302" x="0" y="0" flags="0x0"/>
    </TTGlyph>
    <TTGlyph name="edieresis" xMin="45" yMin="-13" xMax="402" yMax="653">
      <component glyphName="e" x="0" y="0" flags="0x400"/>
      <component glyphName="uni0308" x="0" y="0" flags="0x0"/>
    </TTGlyph>
    <TTGlyph name="edotaccent" xMin="45" yMin="-13" xMax="402" yMax="654">
      <component glyphName="e" x="0" y="0" flags="0x400"/>
      <component glyphName="uni0307" x="0" y="0" flags="0x0"/>
    </TTGlyph>
    <TTGlyph name="egrave" xMin="45" yMin="-13" xMax="402" yMax="704">
      <component glyphName="e" x="0" y="0" flags="0x400"/>
      <component glyphName="gravecomb" x="0" y="0" flags="0x0"/>
    </TTGlyph>
    <TTGlyph name="eight" xMin="28" yMin="-11" xMax="420" yMax="586">
      <contour>
        <pt x="132" y="-11" on="0"/>
        <pt x="28" y="81" on="0"/>
        <pt x="28" y="152" on="1"/>
        <pt x="28" y="242" on="0"/>
        <pt x="115" y="306" on="1"/>
        <pt x="81" y="335" on="0"/>
        <pt x="53" y="397" on="0"/>
        <pt x="53" y="433" on="1"/>
        <pt x="53" y="477" on="0"/>
        <pt x="97" y="547" on="0"/>
        <pt x="175" y="586" on="0"/>
        <pt x="224" y="586" on="1"/>
        <pt x="299" y="586" on="0"/>
        <pt x="395" y="499" on="0"/>
        <pt x="395" y="427" on="1"/>
        <pt x="395" y="389" on="0"/>
        <pt x="361" y="311" on="0"/>
        <pt x="325" y="279" on="1"/>
        <pt x="374" y="250" on="0"/>
        <pt x="420" y="185" on="0"/>
        <pt x="420" y="139" on="1"/>
        <pt x="420" y="99" on="0"/>
        <pt x="373" y="31" on="0"/>
        <pt x="284" y="-11" on="0"/>
        <pt x="224" y="-11" on="1"/>
      </contour>
      <contour>
        <pt x="122" y="116" on="0"/>
        <pt x="173" y="61" on="0"/>
        <pt x="224" y="61" on="1"/>
        <pt x="275" y="61" on="0"/>
        <pt x="326" y="110" on="0"/>
        <pt x="326" y="140" on="1"/>
        <pt x="326" y="160" on="0"/>
        <pt x="306" y="191" on="0"/>
        <pt x="253" y="227" on="0"/>
        <pt x="201" y="252" on="1"/>
        <pt x="175" y="265" on="1"/>
        <pt x="145" y="242" on="0"/>
        <pt x="122" y="189" on="0"/>
        <pt x="122" y="156" on="1"/>
      </contour>
      <contour>
        <pt x="147" y="409" on="0"/>
        <pt x="163" y="375" on="0"/>
        <pt x="210" y="338" on="0"/>
        <pt x="256" y="314" on="1"/>
        <pt x="301" y="362" on="0"/>
        <pt x="301" y="427" on="1"/>
        <pt x="301" y="464" on="0"/>
        <pt x="263" y="514" on="0"/>
        <pt x="224" y="514" on="1"/>
        <pt x="184" y="514" on="0"/>
        <pt x="147" y="466" on="0"/>
        <pt x="147" y="432" on="1"/>
      </contour>
    </TTGlyph>
    <TTGlyph name="eight.dnom" xMin="166" yMin="-198" xMax="410" yMax="134">
      <component glyphName="uni2078" x="128" y="-512" flags="0x404"/>
    </TTGlyph>
    <TTGlyph name="eight.numr" xMin="38" yMin="314" xMax="282" yMax="646">
      <component glyphName="uni2078" x="0" y="0" flags="0x400"/>
    </TTGlyph>
    <TTGlyph name="eight.osf" xMin="28" yMin="-11" xMax="420" yMax="586">
      <component glyphName="eight" x="0" y="0" flags="0x400"/>
    </TTGlyph>
    <TTGlyph name="eight_fraction_nine" xMin="31" yMin="-198" xMax="417" yMax="646">
      <component glyphName="eight.numr" x="0" y="0" flags="0x400"/>
      <component glyphName="fraction.alt" x="0" y="0" flags="0x0"/>
      <component glyphName="nine.dnom" x="0" y="0" flags="0x0"/>
    </TTGlyph>
    <TTGlyph name="ellipsis" xMin="1" yMin="-10" xMax="447" yMax="138">
      <component glyphName="period" x="-117" y="0" flags="0x400"/>
      <component glyphName="period" x="32" y="0" flags="0x0"/>
      <component glyphName="period" x="181" y="0" flags="0x0"/>
    </TTGlyph>
    <TTGlyph name="emacron" xMin="45" yMin="-13" xMax="402" yMax="632">
      <component glyphName="e" x="0" y="0" flags="0x400"/>
      <component glyphName="uni0304" x="0" y="0" flags="0x0"/>
    </TTGlyph>
    <TTGlyph name="emdash" xMin="-10" yMin="248" xMax="458" yMax="328">
      <contour>
        <pt x="-10" y="248" on="1"/>
        <pt x="-10" y="328" on="1"/>
        <pt x="458" y="328" on="1"/>
        <pt x="458" y="248" on="1"/>
      </contour>
    </TTGlyph>
    <TTGlyph name="emoji.eyes" xMin="50" yMin="378" xMax="398" yMax="518">
      <contour>
        <pt x="77" y="378" on="0"/>
        <pt x="50" y="419" on="0"/>
        <pt x="50" y="448" on="1"/>
        <pt x="50" y="477" on="0"/>
        <pt x="77" y="518" on="0"/>
        <pt x="96" y="518" on="1"/>
        <pt x="115" y="518" on="0"/>
        <pt x="142" y="477" on="0"/>
        <pt x="142" y="448" on="1"/>
        <pt x="142" y="419" on="0"/>
        <pt x="115" y="378" on="0"/>
        <pt x="96" y="378" on="1"/>
      </contour>
      <contour>
        <pt x="333" y="378" on="0"/>
        <pt x="306" y="419" on="0"/>
        <pt x="306" y="448" on="1"/>
        <pt x="306" y="477" on="0"/>
        <pt x="333" y="518" on="0"/>
        <pt x="352" y="518" on="1"/>
        <pt x="371" y="518" on="0"/>
        <pt x="398" y="477" on="0"/>
        <pt x="398" y="448" on="1"/>
        <pt x="398" y="419" on="0"/>
        <pt x="371" y="378" on="0"/>
        <pt x="352" y="378" on="1"/>
      </contour>
    </TTGlyph>
    <TTGlyph name="emoji.eyes.angry" xMin="0" yMin="378" xMax="448" yMax="518">
      <contour>
        <pt x="0" y="518" on="1"/>
        <pt x="192" y="478" on="1"/>
        <pt x="192" y="414" on="1"/>
        <pt x="140" y="427" on="1"/>
        <pt x="135" y="406" on="0"/>
        <pt x="111" y="378" on="0"/>
        <pt x="96" y="378" on="1"/>
        <pt x="77" y="378" on="0"/>
        <pt x="50" y="419" on="0"/>
        <pt x="50" y="448" on="1"/>
        <pt x="56" y="448" on="1"/>
        <pt x="0" y="462" on="1"/>
      </contour>
      <contour>
        <pt x="256" y="478" on="1"/>
        <pt x="448" y="518" on="1"/>
        <pt x="448" y="462" on="1"/>
        <pt x="392" y="448" on="1"/>
        <pt x="398" y="448" on="1"/>
        <pt x="398" y="419" on="0"/>
        <pt x="371" y="378" on="0"/>
        <pt x="352" y="378" on="1"/>
        <pt x="337" y="378" on="0"/>
        <pt x="313" y="406" on="0"/>
        <pt x="308" y="427" on="1"/>
        <pt x="256" y="414" on="1"/>
      </contour>
    </TTGlyph>
    <TTGlyph name="emoji.eyes.smiling" xMin="0" yMin="384" xMax="448" yMax="512">
      <contour>
        <pt x="64" y="512" on="1"/>
        <pt x="128" y="512" on="1"/>
        <pt x="192" y="384" on="1"/>
        <pt x="133" y="384" on="1"/>
        <pt x="101" y="448" on="1"/>
        <pt x="91" y="448" on="1"/>
        <pt x="59" y="384" on="1"/>
        <pt x="0" y="384" on="1"/>
      </contour>
      <contour>
        <pt x="320" y="512" on="1"/>
        <pt x="384" y="512" on="1"/>
        <pt x="448" y="384" on="1"/>
        <pt x="389" y="384" on="1"/>
        <pt x="357" y="448" on="1"/>
        <pt x="347" y="448" on="1"/>
        <pt x="315" y="384" on="1"/>
        <pt x="256" y="384" on="1"/>
      </contour>
    </TTGlyph>
    <TTGlyph name="emoji.mouth" xMin="0" yMin="130" xMax="448" yMax="256">
      <contour>
        <pt x="61" y="130" on="0"/>
        <pt x="0" y="194" on="0"/>
        <pt x="0" y="249" on="1"/>
        <pt x="0" y="256" on="1"/>
        <pt x="64" y="256" on="1"/>
        <pt x="64" y="251" on="1"/>
        <pt x="64" y="221" on="0"/>
        <pt x="88" y="190" on="0"/>
        <pt x="116" y="190" on="1"/>
        <pt x="332" y="190" on="1"/>
        <pt x="360" y="190" on="0"/>
        <pt x="384" y="221" on="0"/>
        <pt x="384" y="251" on="1"/>
        <pt x="384" y="256" on="1"/>
        <pt x="448" y="256" on="1"/>
        <pt x="448" y="249" on="1"/>
        <pt x="448" y="194" on="0"/>
        <pt x="387" y="130" on="0"/>
        <pt x="332" y="130" on="1"/>
        <pt x="116" y="130" on="1"/>
      </contour>
    </TTGlyph>
    <TTGlyph name="emoji.mouth.grinning" xMin="0" yMin="66" xMax="448" yMax="254">
      <contour>
        <pt x="61" y="66" on="0"/>
        <pt x="0" y="130" on="0"/>
        <pt x="0" y="185" on="1"/>
        <pt x="0" y="254" on="1"/>
        <pt x="448" y="254" on="1"/>
        <pt x="448" y="185" on="1"/>
        <pt x="448" y="130" on="0"/>
        <pt x="387" y="66" on="0"/>
        <pt x="332" y="66" on="1"/>
        <pt x="116" y="66" on="1"/>
      </contour>
      <contour>
        <pt x="360" y="126" on="0"/>
        <pt x="384" y="157" on="0"/>
        <pt x="384" y="187" on="1"/>
        <pt x="384" y="194" on="1"/>
        <pt x="320" y="194" on="1"/>
        <pt x="320" y="126" on="1"/>
        <pt x="332" y="126" on="1"/>
      </contour>
      <contour>
        <pt x="64" y="157" on="0"/>
        <pt x="88" y="126" on="0"/>
        <pt x="116" y="126" on="1"/>
        <pt x="128" y="126" on="1"/>
        <pt x="128" y="194" on="1"/>
        <pt x="64" y="194" on="1"/>
        <pt x="64" y="187" on="1"/>
      </contour>
      <contour>
        <pt x="256" y="126" on="1"/>
        <pt x="256" y="194" on="1"/>
        <pt x="192" y="194" on="1"/>
        <pt x="192" y="126" on="1"/>
      </contour>
    </TTGlyph>
    <TTGlyph name="endash" xMin="74" yMin="248" xMax="374" yMax="328">
      <component glyphName="hyphen" x="0" y="0" flags="0x400"/>
    </TTGlyph>
    <TTGlyph name="eng" xMin="53" yMin="-196" xMax="393" yMax="452">
      <contour>
        <pt x="55" y="384" on="1"/>
        <pt x="53" y="448" on="1"/>
        <pt x="137" y="448" on="1"/>
        <pt x="142" y="400" on="1"/>
        <pt x="201" y="452" on="0"/>
        <pt x="266" y="452" on="1"/>
        <pt x="325" y="452" on="0"/>
        <pt x="393" y="382" on="0"/>
        <pt x="393" y="309" on="1"/>
        <pt x="393" y="-5" on="1"/>
        <pt x="393" y="-79" on="0"/>
        <pt x="336" y="-169" on="0"/>
        <pt x="267" y="-196" on="1"/>
        <pt x="234" y="-126" on="1"/>
        <pt x="273" y="-109" on="0"/>
        <pt x="301" y="-61" on="0"/>
        <pt x="301" y="-13" on="1"/>
        <pt x="301" y="304" on="1"/>
        <pt x="301" y="378" on="0"/>
        <pt x="240" y="378" on="1"/>
        <pt x="196" y="378" on="0"/>
        <pt x="147" y="332" on="1"/>
        <pt x="147" y="0" on="1"/>
        <pt x="55" y="0" on="1"/>
      </contour>
    </TTGlyph>
    <TTGlyph name="eogonek" xMin="45" yMin="-197" xMax="402" yMax="461">
      <component glyphName="e" x="0" y="0" flags="0x400"/>
      <component glyphName="uni0328" x="-58" y="0" flags="0x0"/>
    </TTGlyph>
    <TTGlyph name="epsilon" xMin="47" yMin="-7" xMax="388" yMax="455">
      <contour>
        <pt x="136" y="-7" on="0"/>
        <pt x="47" y="64" on="0"/>
        <pt x="47" y="120" on="1"/>
        <pt x="47" y="158" on="0"/>
        <pt x="87" y="215" on="0"/>
        <pt x="127" y="231" on="1"/>
        <pt x="91" y="244" on="0"/>
        <pt x="53" y="294" on="0"/>
        <pt x="53" y="328" on="1"/>
        <pt x="53" y="381" on="0"/>
        <pt x="141" y="455" on="0"/>
        <pt x="237" y="455" on="1"/>
        <pt x="317" y="455" on="0"/>
        <pt x="376" y="434" on="1"/>
        <pt x="360" y="368" on="1"/>
        <pt x="303" y="383" on="0"/>
        <pt x="248" y="383" on="1"/>
        <pt x="147" y="383" on="0"/>
        <pt x="147" y="325" on="1"/>
        <pt x="147" y="298" on="0"/>
        <pt x="190" y="267" on="0"/>
        <pt x="234" y="267" on="1"/>
        <pt x="324" y="267" on="1"/>
        <pt x="324" y="197" on="1"/>
        <pt x="234" y="197" on="1"/>
        <pt x="187" y="197" on="0"/>
        <pt x="141" y="161" on="0"/>
        <pt x="141" y="133" on="1"/>
        <pt x="141" y="65" on="0"/>
        <pt x="251" y="65" on="1"/>
        <pt x="306" y="65" on="0"/>
        <pt x="371" y="82" on="1"/>
        <pt x="388" y="16" on="1"/>
        <pt x="317" y="-7" on="0"/>
        <pt x="236" y="-7" on="1"/>
      </contour>
    </TTGlyph>
    <TTGlyph name="epsilontonos" xMin="47" yMin="-7" xMax="388" yMax="704">
      <component glyphName="epsilon" x="0" y="0" flags="0x400"/>
      <component glyphName="tonos" x="0" y="0" flags="0x0"/>
    </TTGlyph>
    <TTGlyph name="equal" xMin="32" yMin="164" xMax="416" yMax="412">
      <contour>
        <pt x="32" y="164" on="1"/>
        <pt x="32" y="244" on="1"/>
        <pt x="416" y="244" on="1"/>
        <pt x="416" y="164" on="1"/>
      </contour>
      <contour>
        <pt x="32" y="332" on="1"/>
        <pt x="32" y="412" on="1"/>
        <pt x="416" y="412" on="1"/>
        <pt x="416" y="332" on="1"/>
      </contour>
    </TTGlyph>
    <TTGlyph name="equivalence" xMin="32" yMin="98" xMax="416" yMax="478">
      <contour>
        <pt x="32" y="98" on="1"/>
        <pt x="32" y="178" on="1"/>
        <pt x="416" y="178" on="1"/>
        <pt x="416" y="98" on="1"/>
      </contour>
      <contour>
        <pt x="32" y="248" on="1"/>
        <pt x="32" y="328" on="1"/>
        <pt x="416" y="328" on="1"/>
        <pt x="416" y="248" on="1"/>
      </contour>
      <contour>
        <pt x="32" y="398" on="1"/>
        <pt x="32" y="478" on="1"/>
        <pt x="416" y="478" on="1"/>
        <pt x="416" y="398" on="1"/>
      </contour>
    </TTGlyph>
    <TTGlyph name="estimated" xMin="50" yMin="-13" xMax="398" yMax="461">
      <contour>
        <pt x="296" y="-13" on="0"/>
        <pt x="238" y="-13" on="1"/>
        <pt x="138" y="-13" on="0"/>
        <pt x="50" y="122" on="0"/>
        <pt x="50" y="224" on="1"/>
        <pt x="50" y="326" on="0"/>
        <pt x="139" y="461" on="0"/>
        <pt x="229" y="461" on="1"/>
        <pt x="317" y="461" on="0"/>
        <pt x="398" y="333" on="0"/>
        <pt x="398" y="224" on="1"/>
        <pt x="398" y="191" on="1"/>
        <pt x="164" y="191" on="1"/>
        <pt x="166" y="109" on="0"/>
        <pt x="202" y="41" on="0"/>
        <pt x="249" y="41" on="1"/>
        <pt x="297" y="41" on="0"/>
        <pt x="348" y="57" on="1"/>
        <pt x="362" y="8" on="1"/>
      </contour>
      <contour>
        <pt x="284" y="247" on="1"/>
        <pt x="282" y="335" on="0"/>
        <pt x="256" y="407" on="0"/>
        <pt x="225" y="407" on="1"/>
        <pt x="192" y="407" on="0"/>
        <pt x="166" y="335" on="0"/>
        <pt x="164" y="247" on="1"/>
      </contour>
    </TTGlyph>
    <TTGlyph name="eta" xMin="53" yMin="-192" xMax="393" yMax="452">
      <contour>
        <pt x="55" y="384" on="1"/>
        <pt x="53" y="448" on="1"/>
        <pt x="137" y="448" on="1"/>
        <pt x="142" y="401" on="1"/>
        <pt x="202" y="452" on="0"/>
        <pt x="266" y="452" on="1"/>
        <pt x="325" y="452" on="0"/>
        <pt x="393" y="382" on="0"/>
        <pt x="393" y="309" on="1"/>
        <pt x="393" y="-192" on="1"/>
        <pt x="301" y="-192" on="1"/>
        <pt x="301" y="304" on="1"/>
        <pt x="301" y="378" on="0"/>
        <pt x="240" y="378" on="1"/>
        <pt x="196" y="378" on="0"/>
        <pt x="147" y="331" on="1"/>
        <pt x="147" y="0" on="1"/>
        <pt x="55" y="0" on="1"/>
      </contour>
    </TTGlyph>
    <TTGlyph name="etatonos" xMin="53" yMin="-192" xMax="393" yMax="704">
      <component glyphName="eta" x="0" y="0" flags="0x400"/>
      <component glyphName="tonos" x="0" y="0" flags="0x0"/>
    </TTGlyph>
    <TTGlyph name="eth" xMin="42" yMin="-8" xMax="405" yMax="648">
      <contour>
        <pt x="215" y="618" on="0"/>
        <pt x="244" y="593" on="1"/>
        <pt x="312" y="640" on="1"/>
        <pt x="348" y="590" on="1"/>
        <pt x="290" y="550" on="1"/>
        <pt x="405" y="425" on="0"/>
        <pt x="405" y="252" on="1"/>
        <pt x="405" y="124" on="0"/>
        <pt x="310" y="-8" on="0"/>
        <pt x="221" y="-8" on="1"/>
        <pt x="139" y="-8" on="0"/>
        <pt x="42" y="106" on="0"/>
        <pt x="42" y="203" on="1"/>
        <pt x="42" y="269" on="0"/>
        <pt x="88" y="364" on="0"/>
        <pt x="166" y="414" on="0"/>
        <pt x="215" y="414" on="1"/>
        <pt x="251" y="414" on="0"/>
        <pt x="287" y="400" on="1"/>
        <pt x="266" y="454" on="0"/>
        <pt x="221" y="502" on="1"/>
        <pt x="144" y="448" on="1"/>
        <pt x="108" y="499" on="1"/>
        <pt x="175" y="545" on="1"/>
        <pt x="156" y="560" on="0"/>
        <pt x="123" y="583" on="1"/>
        <pt x="170" y="648" on="1"/>
      </contour>
      <contour>
        <pt x="136" y="64" on="0"/>
        <pt x="224" y="64" on="1"/>
        <pt x="274" y="64" on="0"/>
        <pt x="312" y="159" on="0"/>
        <pt x="312" y="249" on="1"/>
        <pt x="312" y="292" on="0"/>
        <pt x="307" y="321" on="1"/>
        <pt x="270" y="342" on="0"/>
        <pt x="229" y="342" on="1"/>
        <pt x="177" y="342" on="0"/>
        <pt x="136" y="266" on="0"/>
        <pt x="136" y="203" on="1"/>
      </contour>
    </TTGlyph>
    <TTGlyph name="exclam" xMin="150" yMin="-10" xMax="298" yMax="640">
      <contour>
        <pt x="168" y="640" on="1"/>
        <pt x="280" y="640" on="1"/>
        <pt x="265" y="202" on="1"/>
        <pt x="183" y="202" on="1"/>
      </contour>
      <contour>
        <pt x="192" y="-10" on="0"/>
        <pt x="150" y="27" on="0"/>
        <pt x="150" y="59" on="1"/>
        <pt x="150" y="91" on="0"/>
        <pt x="193" y="128" on="0"/>
        <pt x="224" y="128" on="1"/>
        <pt x="256" y="128" on="0"/>
        <pt x="298" y="91" on="0"/>
        <pt x="298" y="59" on="1"/>
        <pt x="298" y="26" on="0"/>
        <pt x="256" y="-10" on="0"/>
        <pt x="224" y="-10" on="1"/>
      </contour>
    </TTGlyph>
    <TTGlyph name="exclamdbl" xMin="49" yMin="-10" xMax="399" yMax="640">
      <component glyphName="exclam" x="-101" y="0" flags="0x400"/>
      <component glyphName="exclam" x="101" y="0" flags="0x0"/>
    </TTGlyph>
    <TTGlyph name="exclamdown" xMin="150" yMin="-192" xMax="298" yMax="458">
      <contour>
        <pt x="280" y="-192" on="1"/>
        <pt x="168" y="-192" on="1"/>
        <pt x="183" y="246" on="1"/>
        <pt x="265" y="246" on="1"/>
      </contour>
      <contour>
        <pt x="256" y="458" on="0"/>
        <pt x="298" y="421" on="0"/>
        <pt x="298" y="389" on="1"/>
        <pt x="298" y="357" on="0"/>
        <pt x="255" y="320" on="0"/>
        <pt x="224" y="320" on="1"/>
        <pt x="192" y="320" on="0"/>
        <pt x="150" y="357" on="0"/>
        <pt x="150" y="389" on="1"/>
        <pt x="150" y="422" on="0"/>
        <pt x="192" y="458" on="0"/>
        <pt x="224" y="458" on="1"/>
      </contour>
    </TTGlyph>
    <TTGlyph name="f" xMin="59" yMin="0" xMax="393" yMax="648">
      <contour>
        <pt x="59" y="376" on="1"/>
        <pt x="59" y="448" on="1"/>
        <pt x="134" y="448" on="1"/>
        <pt x="134" y="504" on="1"/>
        <pt x="134" y="577" on="0"/>
        <pt x="213" y="648" on="0"/>
        <pt x="279" y="648" on="1"/>
        <pt x="333" y="648" on="0"/>
        <pt x="393" y="636" on="1"/>
        <pt x="381" y="568" on="1"/>
        <pt x="336" y="576" on="0"/>
        <pt x="295" y="576" on="1"/>
        <pt x="226" y="576" on="0"/>
        <pt x="226" y="508" on="1"/>
        <pt x="226" y="448" on="1"/>
        <pt x="360" y="448" on="1"/>
        <pt x="360" y="374" on="1"/>
        <pt x="226" y="374" on="1"/>
        <pt x="226" y="0" on="1"/>
        <pt x="134" y="0" on="1"/>
        <pt x="134" y="373" on="1"/>
      </contour>
    </TTGlyph>
    <TTGlyph name="female" xMin="54" yMin="-114" xMax="394" yMax="456">
      <contour>
        <pt x="190" y="-16" on="1"/>
        <pt x="94" y="-16" on="1"/>
        <pt x="94" y="48" on="1"/>
        <pt x="190" y="48" on="1"/>
        <pt x="190" y="123" on="1"/>
        <pt x="130" y="134" on="0"/>
        <pt x="54" y="226" on="0"/>
        <pt x="54" y="288" on="1"/>
        <pt x="54" y="335" on="0"/>
        <pt x="99" y="412" on="0"/>
        <pt x="177" y="456" on="0"/>
        <pt x="224" y="456" on="1"/>
        <pt x="271" y="456" on="0"/>
        <pt x="349" y="412" on="0"/>
        <pt x="394" y="335" on="0"/>
        <pt x="394" y="288" on="1"/>
        <pt x="394" y="226" on="0"/>
        <pt x="318" y="134" on="0"/>
        <pt x="258" y="123" on="1"/>
        <pt x="258" y="48" on="1"/>
        <pt x="354" y="48" on="1"/>
        <pt x="354" y="-16" on="1"/>
        <pt x="258" y="-16" on="1"/>
        <pt x="258" y="-114" on="1"/>
        <pt x="190" y="-114" on="1"/>
      </contour>
      <contour>
        <pt x="267" y="184" on="0"/>
        <pt x="324" y="244" on="0"/>
        <pt x="324" y="288" on="1"/>
        <pt x="324" y="332" on="0"/>
        <pt x="267" y="392" on="0"/>
        <pt x="224" y="392" on="1"/>
        <pt x="181" y="392" on="0"/>
        <pt x="124" y="332" on="0"/>
        <pt x="124" y="288" on="1"/>
        <pt x="124" y="244" on="0"/>
        <pt x="181" y="184" on="0"/>
        <pt x="224" y="184" on="1"/>
      </contour>
    </TTGlyph>
    <TTGlyph name="filledbox" xMin="62" yMin="128" xMax="386" yMax="448">
      <contour>
        <pt x="386" y="128" on="1"/>
        <pt x="62" y="128" on="1"/>
        <pt x="62" y="448" on="1"/>
        <pt x="386" y="448" on="1"/>
      </contour>
    </TTGlyph>
    <TTGlyph name="filledrect" xMin="16" yMin="192" xMax="432" yMax="384">
      <contour>
        <pt x="432" y="192" on="1"/>
        <pt x="16" y="192" on="1"/>
        <pt x="16" y="384" on="1"/>
        <pt x="432" y="384" on="1"/>
      </contour>
    </TTGlyph>
    <TTGlyph name="five" xMin="48" yMin="-5" xMax="401" yMax="576">
      <contour>
        <pt x="143" y="67" on="0"/>
        <pt x="198" y="67" on="1"/>
        <pt x="255" y="67" on="0"/>
        <pt x="305" y="113" on="0"/>
        <pt x="305" y="166" on="1"/>
        <pt x="305" y="217" on="0"/>
        <pt x="265" y="257" on="0"/>
        <pt x="211" y="257" on="1"/>
        <pt x="171" y="257" on="0"/>
        <pt x="99" y="244" on="1"/>
        <pt x="63" y="271" on="1"/>
        <pt x="76" y="576" on="1"/>
        <pt x="379" y="576" on="1"/>
        <pt x="379" y="504" on="1"/>
        <pt x="165" y="504" on="1"/>
        <pt x="157" y="323" on="1"/>
        <pt x="189" y="329" on="0"/>
        <pt x="236" y="329" on="1"/>
        <pt x="309" y="329" on="0"/>
        <pt x="401" y="253" on="0"/>
        <pt x="401" y="169" on="1"/>
        <pt x="401" y="-5" on="0"/>
        <pt x="213" y="-5" on="1"/>
        <pt x="134" y="-5" on="0"/>
        <pt x="48" y="20" on="1"/>
        <pt x="65" y="87" on="1"/>
      </contour>
    </TTGlyph>
    <TTGlyph name="five.dnom" xMin="171" yMin="-198" xMax="397" yMax="128">
      <component glyphName="uni2075" x="128" y="-512" flags="0x404"/>
    </TTGlyph>
    <TTGlyph name="five.numr" xMin="43" yMin="314" xMax="269" yMax="640">
      <component glyphName="uni2075" x="0" y="0" flags="0x400"/>
    </TTGlyph>
    <TTGlyph name="five.osf" xMin="48" yMin="-128" xMax="401" yMax="448">
      <contour>
        <pt x="143" y="-56" on="0"/>
        <pt x="198" y="-56" on="1"/>
        <pt x="255" y="-56" on="0"/>
        <pt x="305" y="-11" on="0"/>
        <pt x="305" y="40" on="1"/>
        <pt x="305" y="90" on="0"/>
        <pt x="265" y="129" on="0"/>
        <pt x="211" y="129" on="1"/>
        <pt x="171" y="129" on="0"/>
        <pt x="99" y="116" on="1"/>
        <pt x="63" y="143" on="1"/>
        <pt x="76" y="448" on="1"/>
        <pt x="379" y="448" on="1"/>
        <pt x="379" y="376" on="1"/>
        <pt x="165" y="376" on="1"/>
        <pt x="157" y="195" on="1"/>
        <pt x="189" y="201" on="0"/>
        <pt x="236" y="201" on="1"/>
        <pt x="309" y="201" on="0"/>
        <pt x="401" y="126" on="0"/>
        <pt x="401" y="44" on="1"/>
        <pt x="401" y="-128" on="0"/>
        <pt x="213" y="-128" on="1"/>
        <pt x="134" y="-128" on="0"/>
        <pt x="48" y="-103" on="1"/>
        <pt x="65" y="-36" on="1"/>
      </contour>
    </TTGlyph>
    <TTGlyph name="five_fraction_nine" xMin="31" yMin="-198" xMax="417" yMax="640">
      <component glyphName="five.numr" x="0" y="0" flags="0x400"/>
      <component glyphName="fraction.alt" x="0" y="0" flags="0x0"/>
      <component glyphName="nine.dnom" x="0" y="0" flags="0x0"/>
    </TTGlyph>
    <TTGlyph name="five_fraction_seven" xMin="31" yMin="-198" xMax="417" yMax="640">
      <component glyphName="five.numr" x="0" y="0" flags="0x400"/>
      <component glyphName="fraction.alt" x="0" y="0" flags="0x0"/>
      <component glyphName="seven.dnom" x="0" y="0" flags="0x0"/>
    </TTGlyph>
    <TTGlyph name="fiveeighths" xMin="31" yMin="-198" xMax="417" yMax="640">
      <component glyphName="five.numr" x="0" y="0" flags="0x400"/>
      <component glyphName="fraction.alt" x="0" y="0" flags="0x0"/>
      <component glyphName="eight.dnom" x="0" y="0" flags="0x0"/>
    </TTGlyph>
    <TTGlyph name="florin" xMin="69" yMin="-196" xMax="403" yMax="648">
      <contour>
        <pt x="115" y="-107" on="0"/>
        <pt x="144" y="-59" on="0"/>
        <pt x="144" y="-13" on="1"/>
        <pt x="144" y="373" on="1"/>
        <pt x="69" y="376" on="1"/>
        <pt x="69" y="448" on="1"/>
        <pt x="144" y="448" on="1"/>
        <pt x="144" y="504" on="1"/>
        <pt x="144" y="577" on="0"/>
        <pt x="223" y="648" on="0"/>
        <pt x="289" y="648" on="1"/>
        <pt x="343" y="648" on="0"/>
        <pt x="403" y="636" on="1"/>
        <pt x="391" y="568" on="1"/>
        <pt x="346" y="576" on="0"/>
        <pt x="305" y="576" on="1"/>
        <pt x="236" y="576" on="0"/>
        <pt x="236" y="508" on="1"/>
        <pt x="236" y="448" on="1"/>
        <pt x="370" y="448" on="1"/>
        <pt x="370" y="374" on="1"/>
        <pt x="236" y="374" on="1"/>
        <pt x="236" y="-5" on="1"/>
        <pt x="236" y="-80" on="0"/>
        <pt x="180" y="-168" on="0"/>
        <pt x="110" y="-196" on="1"/>
        <pt x="77" y="-126" on="1"/>
      </contour>
    </TTGlyph>
    <TTGlyph name="four" xMin="36" yMin="0" xMax="428" yMax="592">
      <contour>
        <pt x="257" y="124" on="1"/>
        <pt x="36" y="124" on="1"/>
        <pt x="44" y="333" on="0"/>
        <pt x="197" y="564" on="0"/>
        <pt x="349" y="592" on="1"/>
        <pt x="349" y="196" on="1"/>
        <pt x="428" y="196" on="1"/>
        <pt x="428" y="124" on="1"/>
        <pt x="349" y="124" on="1"/>
        <pt x="349" y="0" on="1"/>
        <pt x="257" y="0" on="1"/>
      </contour>
      <contour>
        <pt x="257" y="196" on="1"/>
        <pt x="257" y="392" on="1"/>
        <pt x="260" y="479" on="1"/>
        <pt x="154" y="405" on="0"/>
        <pt x="133" y="196" on="1"/>
      </contour>
    </TTGlyph>
    <TTGlyph name="four.dnom" xMin="179" yMin="-192" xMax="419" yMax="133">
      <component glyphName="uni2074" x="128" y="-512" flags="0x404"/>
    </TTGlyph>
    <TTGlyph name="four.numr" xMin="51" yMin="320" xMax="291" yMax="645">
      <component glyphName="uni2074" x="0" y="0" flags="0x400"/>
    </TTGlyph>
    <TTGlyph name="four.osf" xMin="36" yMin="-128" xMax="428" yMax="464">
      <contour>
        <pt x="257" y="-4" on="1"/>
        <pt x="36" y="-4" on="1"/>
        <pt x="44" y="205" on="0"/>
        <pt x="197" y="436" on="0"/>
        <pt x="349" y="464" on="1"/>
        <pt x="349" y="68" on="1"/>
        <pt x="428" y="68" on="1"/>
        <pt x="428" y="-4" on="1"/>
        <pt x="349" y="-4" on="1"/>
        <pt x="349" y="-128" on="1"/>
        <pt x="257" y="-128" on="1"/>
      </contour>
      <contour>
        <pt x="257" y="68" on="1"/>
        <pt x="257" y="264" on="1"/>
        <pt x="260" y="351" on="1"/>
        <pt x="154" y="277" on="0"/>
        <pt x="133" y="68" on="1"/>
      </contour>
    </TTGlyph>
    <TTGlyph name="four_fraction_nine" xMin="31" yMin="-198" xMax="417" yMax="645">
      <component glyphName="four.numr" x="0" y="0" flags="0x400"/>
      <component glyphName="fraction.alt" x="0" y="0" flags="0x0"/>
      <component glyphName="nine.dnom" x="0" y="0" flags="0x0"/>
    </TTGlyph>
    <TTGlyph name="four_fraction_seven" xMin="31" yMin="-198" xMax="417" yMax="645">
      <component glyphName="four.numr" x="0" y="0" flags="0x400"/>
      <component glyphName="fraction.alt" x="0" y="0" flags="0x0"/>
      <component glyphName="seven.dnom" x="0" y="0" flags="0x0"/>
    </TTGlyph>
    <TTGlyph name="fraction" xMin="109" yMin="-69" xMax="339" yMax="710">
      <component glyphName="slash" x="0" y="0" flags="0x400"/>
    </TTGlyph>
    <TTGlyph name="fraction.alt" xMin="31" yMin="166" xMax="417" yMax="283">
      <contour>
        <pt x="408" y="283" on="1"/>
        <pt x="417" y="220" on="1"/>
        <pt x="40" y="166" on="1"/>
        <pt x="31" y="229" on="1"/>
      </contour>
    </TTGlyph>
    <TTGlyph name="fraction.percent" xMin="21" yMin="179" xMax="428" yMax="462">
      <contour>
        <pt x="390" y="462" on="1"/>
        <pt x="428" y="400" on="1"/>
        <pt x="58" y="179" on="1"/>
        <pt x="21" y="241" on="1"/>
      </contour>
    </TTGlyph>
    <TTGlyph name="franc" xMin="5" yMin="0" xMax="394" yMax="576">
      <contour>
        <pt x="55" y="178" on="1"/>
        <pt x="55" y="576" on="1"/>
        <pt x="394" y="576" on="1"/>
        <pt x="394" y="504" on="1"/>
        <pt x="147" y="504" on="1"/>
        <pt x="147" y="324" on="1"/>
        <pt x="330" y="324" on="1"/>
        <pt x="330" y="252" on="1"/>
        <pt x="147" y="252" on="1"/>
        <pt x="147" y="178" on="1"/>
        <pt x="276" y="178" on="1"/>
        <pt x="276" y="111" on="1"/>
        <pt x="147" y="111" on="1"/>
        <pt x="147" y="0" on="1"/>
        <pt x="55" y="0" on="1"/>
        <pt x="55" y="111" on="1"/>
        <pt x="5" y="111" on="1"/>
        <pt x="5" y="178" on="1"/>
      </contour>
    </TTGlyph>
    <TTGlyph name="g" xMin="40" yMin="-196" xMax="395" yMax="456">
      <contour>
        <pt x="159" y="-196" on="0"/>
        <pt x="90" y="-180" on="1"/>
        <pt x="101" y="-114" on="1"/>
        <pt x="157" y="-124" on="0"/>
        <pt x="211" y="-124" on="1"/>
        <pt x="263" y="-124" on="0"/>
        <pt x="301" y="-89" on="0"/>
        <pt x="301" y="-49" on="1"/>
        <pt x="301" y="24" on="1"/>
        <pt x="262" y="-8" on="0"/>
        <pt x="205" y="-8" on="1"/>
        <pt x="141" y="-8" on="0"/>
        <pt x="100" y="33" on="1"/>
        <pt x="70" y="63" on="0"/>
        <pt x="40" y="162" on="0"/>
        <pt x="40" y="224" on="1"/>
        <pt x="40" y="286" on="0"/>
        <pt x="70" y="385" on="0"/>
        <pt x="99" y="414" on="1"/>
        <pt x="141" y="456" on="0"/>
        <pt x="206" y="456" on="1"/>
        <pt x="273" y="456" on="0"/>
        <pt x="315" y="413" on="1"/>
        <pt x="320" y="448" on="1"/>
        <pt x="395" y="448" on="1"/>
        <pt x="393" y="384" on="1"/>
        <pt x="393" y="-36" on="1"/>
        <pt x="393" y="-196" on="0"/>
        <pt x="221" y="-196" on="1"/>
      </contour>
      <contour>
        <pt x="138" y="166" on="0"/>
        <pt x="153" y="99" on="0"/>
        <pt x="170" y="82" on="1"/>
        <pt x="187" y="65" on="0"/>
        <pt x="220" y="65" on="1"/>
        <pt x="274" y="65" on="0"/>
        <pt x="301" y="103" on="1"/>
        <pt x="301" y="345" on="1"/>
        <pt x="274" y="383" on="0"/>
        <pt x="220" y="383" on="1"/>
        <pt x="186" y="383" on="0"/>
        <pt x="168" y="365" on="1"/>
        <pt x="152" y="349" on="0"/>
        <pt x="138" y="282" on="0"/>
        <pt x="138" y="224" on="1"/>
      </contour>
    </TTGlyph>
    <TTGlyph name="g.cv01" xMin="32" yMin="-200" xMax="435" yMax="456">
      <contour>
        <pt x="253" y="456" on="0"/>
        <pt x="282" y="448" on="1"/>
        <pt x="435" y="448" on="1"/>
        <pt x="435" y="381" on="1"/>
        <pt x="373" y="378" on="1"/>
        <pt x="392" y="344" on="0"/>
        <pt x="392" y="298" on="1"/>
        <pt x="392" y="230" on="0"/>
        <pt x="302" y="139" on="0"/>
        <pt x="220" y="139" on="1"/>
        <pt x="183" y="139" on="0"/>
        <pt x="154" y="148" on="1"/>
        <pt x="143" y="142" on="0"/>
        <pt x="130" y="121" on="0"/>
        <pt x="130" y="110" on="1"/>
        <pt x="130" y="81" on="0"/>
        <pt x="171" y="81" on="1"/>
        <pt x="270" y="81" on="1"/>
        <pt x="353" y="81" on="0"/>
        <pt x="435" y="5" on="0"/>
        <pt x="435" y="-55" on="1"/>
        <pt x="435" y="-126" on="0"/>
        <pt x="332" y="-200" on="0"/>
        <pt x="233" y="-200" on="1"/>
        <pt x="127" y="-200" on="0"/>
        <pt x="32" y="-129" on="0"/>
        <pt x="32" y="-78" on="1"/>
        <pt x="32" y="-52" on="0"/>
        <pt x="59" y="-5" on="0"/>
        <pt x="83" y="11" on="1"/>
        <pt x="42" y="37" on="0"/>
        <pt x="42" y="92" on="1"/>
        <pt x="42" y="119" on="0"/>
        <pt x="71" y="165" on="0"/>
        <pt x="94" y="182" on="1"/>
        <pt x="48" y="224" on="0"/>
        <pt x="48" y="298" on="1"/>
        <pt x="48" y="368" on="0"/>
        <pt x="137" y="456" on="0"/>
        <pt x="220" y="456" on="1"/>
      </contour>
      <contour>
        <pt x="296" y="208" on="0"/>
        <pt x="296" y="298" on="1"/>
        <pt x="296" y="341" on="0"/>
        <pt x="258" y="387" on="0"/>
        <pt x="220" y="387" on="1"/>
        <pt x="183" y="387" on="0"/>
        <pt x="144" y="341" on="0"/>
        <pt x="144" y="298" on="1"/>
        <pt x="144" y="254" on="0"/>
        <pt x="183" y="208" on="0"/>
        <pt x="220" y="208" on="1"/>
      </contour>
      <contour>
        <pt x="125" y="-92" on="0"/>
        <pt x="170" y="-128" on="0"/>
        <pt x="233" y="-128" on="1"/>
        <pt x="292" y="-128" on="0"/>
        <pt x="340" y="-94" on="0"/>
        <pt x="340" y="-64" on="1"/>
        <pt x="340" y="-39" on="0"/>
        <pt x="304" y="-9" on="0"/>
        <pt x="265" y="-9" on="1"/>
        <pt x="168" y="-9" on="1"/>
        <pt x="154" y="-9" on="0"/>
        <pt x="148" y="-8" on="1"/>
        <pt x="137" y="-20" on="0"/>
        <pt x="125" y="-49" on="0"/>
        <pt x="125" y="-62" on="1"/>
      </contour>
    </TTGlyph>
    <TTGlyph name="gamma" xMin="42" yMin="-192" xMax="406" yMax="450">
      <contour>
        <pt x="117" y="450" on="1"/>
        <pt x="128" y="325" on="0"/>
        <pt x="177" y="166" on="0"/>
        <pt x="224" y="86" on="1"/>
        <pt x="271" y="166" on="0"/>
        <pt x="320" y="325" on="0"/>
        <pt x="331" y="450" on="1"/>
        <pt x="406" y="448" on="1"/>
        <pt x="395" y="314" on="0"/>
        <pt x="322" y="110" on="0"/>
        <pt x="260" y="15" on="1"/>
        <pt x="260" y="-192" on="1"/>
        <pt x="188" y="-192" on="1"/>
        <pt x="188" y="15" on="1"/>
        <pt x="126" y="110" on="0"/>
        <pt x="53" y="314" on="0"/>
        <pt x="42" y="448" on="1"/>
      </contour>
    </TTGlyph>
    <TTGlyph name="gbreve" xMin="40" yMin="-196" xMax="395" yMax="649">
      <component glyphName="g" x="0" y="0" flags="0x400"/>
      <component glyphName="uni0306" x="0" y="0" flags="0x0"/>
    </TTGlyph>
    <TTGlyph name="gbreve.cv01" xMin="32" yMin="-200" xMax="435" yMax="649">
      <component glyphName="g.cv01" x="0" y="0" flags="0x400"/>
      <component glyphName="uni0306" x="5" y="0" flags="0x0"/>
    </TTGlyph>
    <TTGlyph name="gcaron" xMin="40" yMin="-196" xMax="395" yMax="650">
      <component glyphName="g" x="0" y="0" flags="0x400"/>
      <component glyphName="uni030C" x="0" y="0" flags="0x0"/>
    </TTGlyph>
    <TTGlyph name="gcaron.cv01" xMin="32" yMin="-200" xMax="435" yMax="650">
      <component glyphName="g.cv01" x="0" y="0" flags="0x400"/>
      <component glyphName="uni030C" x="5" y="0" flags="0x0"/>
    </TTGlyph>
    <TTGlyph name="gcircumflex" xMin="40" yMin="-196" xMax="395" yMax="650">
      <component glyphName="g" x="0" y="0" flags="0x400"/>
      <component glyphName="uni0302" x="0" y="0" flags="0x0"/>
    </TTGlyph>
    <TTGlyph name="gcircumflex.cv01" xMin="32" yMin="-200" xMax="435" yMax="650">
      <component glyphName="g.cv01" x="0" y="0" flags="0x400"/>
      <component glyphName="uni0302" x="5" y="0" flags="0x0"/>
    </TTGlyph>
    <TTGlyph name="gdotaccent" xMin="40" yMin="-196" xMax="395" yMax="654">
      <component glyphName="g" x="0" y="0" flags="0x400"/>
      <component glyphName="uni0307" x="0" y="0" flags="0x0"/>
    </TTGlyph>
    <TTGlyph name="gdotaccent.cv01" xMin="32" yMin="-200" xMax="435" yMax="654">
      <component glyphName="g.cv01" x="0" y="0" flags="0x400"/>
      <component glyphName="uni0307" x="5" y="0" flags="0x0"/>
    </TTGlyph>
    <TTGlyph name="germandbls" xMin="55" yMin="-8" xMax="413" yMax="648">
      <contour>
        <pt x="55" y="574" on="0"/>
        <pt x="142" y="648" on="0"/>
        <pt x="217" y="648" on="1"/>
        <pt x="287" y="648" on="0"/>
        <pt x="375" y="579" on="0"/>
        <pt x="375" y="517" on="1"/>
        <pt x="375" y="479" on="0"/>
        <pt x="348" y="432" on="0"/>
        <pt x="322" y="405" on="1"/>
        <pt x="301" y="383" on="0"/>
        <pt x="282" y="353" on="0"/>
        <pt x="282" y="330" on="1"/>
        <pt x="282" y="307" on="0"/>
        <pt x="309" y="272" on="0"/>
        <pt x="337" y="249" on="1"/>
        <pt x="374" y="218" on="0"/>
        <pt x="413" y="163" on="0"/>
        <pt x="413" y="119" on="1"/>
        <pt x="413" y="56" on="0"/>
        <pt x="335" y="-8" on="0"/>
        <pt x="273" y="-8" on="1"/>
        <pt x="228" y="-8" on="0"/>
        <pt x="184" y="6" on="1"/>
        <pt x="196" y="75" on="1"/>
        <pt x="230" y="66" on="0"/>
        <pt x="258" y="66" on="1"/>
        <pt x="317" y="66" on="0"/>
        <pt x="317" y="119" on="1"/>
        <pt x="317" y="144" on="0"/>
        <pt x="290" y="177" on="0"/>
        <pt x="262" y="197" on="1"/>
        <pt x="225" y="224" on="0"/>
        <pt x="186" y="276" on="0"/>
        <pt x="186" y="322" on="1"/>
        <pt x="186" y="357" on="0"/>
        <pt x="210" y="398" on="0"/>
        <pt x="235" y="424" on="1"/>
        <pt x="257" y="447" on="0"/>
        <pt x="279" y="484" on="0"/>
        <pt x="279" y="513" on="1"/>
        <pt x="279" y="576" on="0"/>
        <pt x="215" y="576" on="1"/>
        <pt x="147" y="576" on="0"/>
        <pt x="147" y="501" on="1"/>
        <pt x="147" y="0" on="1"/>
        <pt x="55" y="0" on="1"/>
        <pt x="55" y="496" on="1"/>
      </contour>
    </TTGlyph>
    <TTGlyph name="grave" xMin="126" yMin="384" xMax="308" yMax="640">
      <contour>
        <pt x="217" y="384" on="1"/>
        <pt x="126" y="640" on="1"/>
        <pt x="244" y="640" on="1"/>
        <pt x="308" y="384" on="1"/>
      </contour>
    </TTGlyph>
    <TTGlyph name="gravecomb" xMin="91" yMin="512" xMax="262" yMax="704">
      <contour>
        <pt x="186" y="512" on="1"/>
        <pt x="91" y="704" on="1"/>
        <pt x="223" y="704" on="1"/>
        <pt x="262" y="512" on="1"/>
      </contour>
    </TTGlyph>
    <TTGlyph name="gravecomb.alt" xMin="91" yMin="510" xMax="262" yMax="652">
      <contour>
        <pt x="186" y="510" on="1"/>
        <pt x="91" y="652" on="1"/>
        <pt x="223" y="652" on="1"/>
        <pt x="262" y="510" on="1"/>
      </contour>
    </TTGlyph>
    <TTGlyph name="gravecomb.case" xMin="91" yMin="702" xMax="262" yMax="844">
      <component glyphName="gravecomb.alt" x="0" y="192" flags="0x404"/>
    </TTGlyph>
    <TTGlyph name="greater" xMin="97" yMin="45" xMax="413" yMax="532">
      <contour>
        <pt x="97" y="102" on="1"/>
        <pt x="290" y="288" on="1"/>
        <pt x="97" y="475" on="1"/>
        <pt x="162" y="532" on="1"/>
        <pt x="413" y="288" on="1"/>
        <pt x="162" y="45" on="1"/>
      </contour>
    </TTGlyph>
    <TTGlyph name="greaterequal" xMin="64" yMin="-8" xMax="413" yMax="596">
      <contour>
        <pt x="64" y="-8" on="1"/>
        <pt x="64" y="72" on="1"/>
        <pt x="384" y="72" on="1"/>
        <pt x="384" y="-8" on="1"/>
      </contour>
      <contour>
        <pt x="97" y="166" on="1"/>
        <pt x="290" y="352" on="1"/>
        <pt x="97" y="539" on="1"/>
        <pt x="162" y="596" on="1"/>
        <pt x="413" y="352" on="1"/>
        <pt x="162" y="109" on="1"/>
      </contour>
    </TTGlyph>
</ttFont>
